%TF.GenerationSoftware,KiCad,Pcbnew,7.0.10*%
%TF.CreationDate,2024-11-29T16:25:44-07:00*%
%TF.ProjectId,PiTrac Connector Board,50695472-6163-4204-936f-6e6e6563746f,rev?*%
%TF.SameCoordinates,Original*%
%TF.FileFunction,Copper,L1,Top*%
%TF.FilePolarity,Positive*%
%FSLAX46Y46*%
G04 Gerber Fmt 4.6, Leading zero omitted, Abs format (unit mm)*
G04 Created by KiCad (PCBNEW 7.0.10) date 2024-11-29 16:25:44*
%MOMM*%
%LPD*%
G01*
G04 APERTURE LIST*
%TA.AperFunction,ComponentPad*%
%ADD10R,1.600000X1.600000*%
%TD*%
%TA.AperFunction,ComponentPad*%
%ADD11O,1.600000X1.600000*%
%TD*%
%TA.AperFunction,ComponentPad*%
%ADD12R,1.700000X1.700000*%
%TD*%
%TA.AperFunction,ComponentPad*%
%ADD13O,1.700000X1.700000*%
%TD*%
%TA.AperFunction,ComponentPad*%
%ADD14C,2.000000*%
%TD*%
%TA.AperFunction,ComponentPad*%
%ADD15C,3.000000*%
%TD*%
%TA.AperFunction,ComponentPad*%
%ADD16C,1.600000*%
%TD*%
%TA.AperFunction,ComponentPad*%
%ADD17C,4.000000*%
%TD*%
%TA.AperFunction,ComponentPad*%
%ADD18R,2.500000X2.500000*%
%TD*%
%TA.AperFunction,ComponentPad*%
%ADD19C,4.100000*%
%TD*%
%TA.AperFunction,ComponentPad*%
%ADD20C,1.524000*%
%TD*%
%TA.AperFunction,ViaPad*%
%ADD21C,1.300000*%
%TD*%
%TA.AperFunction,Conductor*%
%ADD22C,0.800000*%
%TD*%
G04 APERTURE END LIST*
D10*
%TO.P,U2,1*%
%TO.N,Net-(R4-Pad1)*%
X155551400Y-81280000D03*
D11*
%TO.P,U2,2*%
%TO.N,GND1*%
X155551400Y-83820000D03*
%TO.P,U2,3*%
%TO.N,unconnected-(U2-Pad3)*%
X155551400Y-86360000D03*
%TO.P,U2,4*%
%TO.N,Net-(Sys2_Conn1-Pin_2)*%
X163171400Y-86360000D03*
%TO.P,U2,5*%
%TO.N,GND3*%
X163171400Y-83820000D03*
%TO.P,U2,6*%
%TO.N,+3.3V*%
X163171400Y-81280000D03*
%TD*%
D12*
%TO.P,Sys2_Conn1,1,Pin_1*%
%TO.N,+3.3V*%
X172720000Y-85090000D03*
D13*
%TO.P,Sys2_Conn1,2,Pin_2*%
%TO.N,Net-(Sys2_Conn1-Pin_2)*%
X172720000Y-87630000D03*
%TO.P,Sys2_Conn1,3,Pin_3*%
%TO.N,GND3*%
X172720000Y-90170000D03*
%TD*%
D12*
%TO.P,Sys1_Conn1,1,Pin_1*%
%TO.N,+3.3VA*%
X114485068Y-81280000D03*
D13*
%TO.P,Sys1_Conn1,2,Pin_2*%
%TO.N,Net-(Sys1_Conn1-Pin_2)*%
X114485068Y-83820000D03*
%TO.P,Sys1_Conn1,3,Pin_3*%
%TO.N,Net-(Sys1_Conn1-Pin_3)*%
X114485068Y-86360000D03*
%TO.P,Sys1_Conn1,4,Pin_4*%
%TO.N,GND1*%
X114485068Y-88900000D03*
%TD*%
D14*
%TO.P,U5,1,GND*%
%TO.N,GND2*%
X143625757Y-115391309D03*
%TO.P,U5,2,TRIG/PWM*%
%TO.N,Net-(U5-TRIG{slash}PWM)*%
X143625757Y-110311309D03*
D15*
%TO.P,U5,3,Vout-*%
%TO.N,unconnected-(U5-Vout--Pad3)*%
X166485757Y-108851309D03*
%TO.P,U5,4,Vout+*%
%TO.N,unconnected-(U5-Vout+-Pad4)*%
X171565757Y-108851309D03*
%TO.P,U5,5,Vin-*%
%TO.N,unconnected-(U5-Vin--Pad5)*%
X166485757Y-117431309D03*
%TO.P,U5,6,Vin+*%
%TO.N,unconnected-(U5-Vin+-Pad6)*%
X171565757Y-117431309D03*
%TD*%
D16*
%TO.P,R2,1*%
%TO.N,Net-(R2-Pad1)*%
X146176246Y-89079071D03*
D11*
%TO.P,R2,2*%
%TO.N,+5VP*%
X146176246Y-78919071D03*
%TD*%
D10*
%TO.P,U3,1*%
%TO.N,Net-(R1-Pad1)*%
X134620000Y-81280000D03*
D11*
%TO.P,U3,2*%
%TO.N,GND1*%
X134620000Y-83820000D03*
%TO.P,U3,3*%
%TO.N,unconnected-(U3-Pad3)*%
X134620000Y-86360000D03*
%TO.P,U3,4*%
%TO.N,Net-(R2-Pad1)*%
X142240000Y-86360000D03*
%TO.P,U3,5*%
%TO.N,GND2*%
X142240000Y-83820000D03*
%TO.P,U3,6*%
%TO.N,+5VP*%
X142240000Y-81280000D03*
%TD*%
D16*
%TO.P,R3,1*%
%TO.N,Net-(Sys2_Conn1-Pin_2)*%
X167640000Y-91440000D03*
D11*
%TO.P,R3,2*%
%TO.N,+3.3V*%
X167640000Y-81280000D03*
%TD*%
D17*
%TO.P,REF\u002A\u002A,1*%
%TO.N,N/C*%
X110500000Y-79300000D03*
%TD*%
D18*
%TO.P,Strobe1,1,1*%
%TO.N,Net-(Sys1_Conn1-Pin_2)*%
X111760000Y-100330000D03*
%TD*%
D19*
%TO.P,REF\u002A\u002A,1*%
%TO.N,N/C*%
X175000000Y-124000000D03*
%TD*%
D18*
%TO.P,Shutter1,1,1*%
%TO.N,Net-(Sys1_Conn1-Pin_3)*%
X111760000Y-94694197D03*
%TD*%
D10*
%TO.P,U4,1*%
%TO.N,N/C*%
X121920000Y-91440000D03*
D11*
%TO.P,U4,2*%
X121920000Y-93980000D03*
%TO.P,U4,3*%
X121920000Y-96520000D03*
%TO.P,U4,4*%
X121920000Y-99060000D03*
%TO.P,U4,5*%
X121920000Y-101600000D03*
%TO.P,U4,6*%
X121920000Y-104140000D03*
%TO.P,U4,7,GND*%
%TO.N,GND2*%
X121920000Y-106680000D03*
%TO.P,U4,8*%
%TO.N,N/C*%
X129540000Y-106680000D03*
%TO.P,U4,9*%
X129540000Y-104140000D03*
%TO.P,U4,10*%
X129540000Y-101600000D03*
%TO.P,U4,11*%
X129540000Y-99060000D03*
%TO.P,U4,12*%
%TO.N,Net-(U5-TRIG{slash}PWM)*%
X129540000Y-96520000D03*
%TO.P,U4,13*%
%TO.N,Net-(R2-Pad1)*%
X129540000Y-93980000D03*
%TO.P,U4,14,VCC*%
%TO.N,+5VP*%
X129540000Y-91440000D03*
%TD*%
D17*
%TO.P,REF\u002A\u002A,1*%
%TO.N,N/C*%
X175000000Y-79300000D03*
%TD*%
D16*
%TO.P,R1,1*%
%TO.N,Net-(R1-Pad1)*%
X130810000Y-81280000D03*
D11*
%TO.P,R1,2*%
%TO.N,Net-(Sys1_Conn1-Pin_2)*%
X120650000Y-81280000D03*
%TD*%
D19*
%TO.P,REF\u002A\u002A,1*%
%TO.N,N/C*%
X110500000Y-124000000D03*
%TD*%
D18*
%TO.P,Sys1_GND1,1,1*%
%TO.N,GND1*%
X111760000Y-105410000D03*
%TD*%
D16*
%TO.P,R4,1*%
%TO.N,Net-(R4-Pad1)*%
X150840032Y-78861002D03*
D11*
%TO.P,R4,2*%
%TO.N,Net-(Sys1_Conn1-Pin_3)*%
X150840032Y-89021002D03*
%TD*%
D20*
%TO.P,J3,1,VCC*%
%TO.N,+5VP*%
X119700000Y-110240000D03*
%TO.P,J3,2,D-*%
%TO.N,unconnected-(J3-D--Pad2)*%
X119700000Y-112780000D03*
%TO.P,J3,3,D+*%
%TO.N,unconnected-(J3-D+-Pad3)*%
X119700000Y-115320000D03*
%TO.P,J3,4,ID*%
%TO.N,unconnected-(J3-ID-Pad4)*%
X119700000Y-117860000D03*
%TO.P,J3,5,GND*%
%TO.N,GND2*%
X119700000Y-120400000D03*
D15*
%TO.P,J3,6*%
%TO.N,N/C*%
X113700000Y-110820000D03*
%TO.P,J3,7*%
X113700000Y-119820000D03*
%TD*%
D21*
%TO.N,Net-(R2-Pad1)*%
X140970000Y-93980000D03*
%TO.N,Net-(Sys1_Conn1-Pin_3)*%
X130810000Y-87630000D03*
%TD*%
D22*
%TO.N,GND1*%
X125730000Y-88900000D02*
X114485068Y-88900000D01*
X130810000Y-83820000D02*
X125730000Y-88900000D01*
X134620000Y-83820000D02*
X130810000Y-83820000D01*
%TO.N,+3.3V*%
X167640000Y-81280000D02*
X168910000Y-81280000D01*
X168910000Y-81280000D02*
X172720000Y-85090000D01*
X167640000Y-81280000D02*
X163171400Y-81280000D01*
%TO.N,Net-(R2-Pad1)*%
X140970000Y-93980000D02*
X129540000Y-93980000D01*
X143457175Y-86360000D02*
X146176246Y-89079071D01*
X142240000Y-86360000D02*
X143457175Y-86360000D01*
%TO.N,+5VP*%
X143815317Y-81280000D02*
X146176246Y-78919071D01*
X142240000Y-81280000D02*
X143815317Y-81280000D01*
%TO.N,GND2*%
X124719186Y-120390814D02*
X125730000Y-119380000D01*
X124460000Y-106680000D02*
X121920000Y-106680000D01*
X119700000Y-120390814D02*
X124719186Y-120390814D01*
X125730000Y-119380000D02*
X125730000Y-107950000D01*
X125730000Y-107950000D02*
X124460000Y-106680000D01*
%TO.N,Net-(R1-Pad1)*%
X134620000Y-81280000D02*
X130810000Y-81280000D01*
%TO.N,Net-(U5-TRIG{slash}PWM)*%
X132080000Y-96520000D02*
X143625757Y-108065757D01*
X129540000Y-96520000D02*
X132080000Y-96520000D01*
X143625757Y-108065757D02*
X143625757Y-110311309D01*
%TO.N,Net-(Sys2_Conn1-Pin_2)*%
X167640000Y-91440000D02*
X168910000Y-91440000D01*
X163171400Y-86971400D02*
X163171400Y-86360000D01*
X167640000Y-91440000D02*
X163171400Y-86971400D01*
X168910000Y-91440000D02*
X172720000Y-87630000D01*
%TO.N,Net-(R4-Pad1)*%
X150840032Y-78861002D02*
X153132402Y-78861002D01*
X153132402Y-78861002D02*
X155551400Y-81280000D01*
%TO.N,Net-(Sys1_Conn1-Pin_3)*%
X148421034Y-91440000D02*
X137160000Y-91440000D01*
X150840032Y-89021002D02*
X148421034Y-91440000D01*
X134620000Y-88900000D02*
X132080000Y-88900000D01*
X132080000Y-88900000D02*
X130810000Y-87630000D01*
X137160000Y-91440000D02*
X134620000Y-88900000D01*
%TO.N,Net-(Sys1_Conn1-Pin_2)*%
X114300000Y-91440000D02*
X113030000Y-91440000D01*
X118110000Y-83820000D02*
X120650000Y-81280000D01*
X114300000Y-100330000D02*
X116840000Y-97790000D01*
X114485068Y-83820000D02*
X118110000Y-83820000D01*
X111760000Y-100330000D02*
X114300000Y-100330000D01*
X111760000Y-90170000D02*
X111760000Y-85090000D01*
X113030000Y-91440000D02*
X111760000Y-90170000D01*
X111760000Y-85090000D02*
X113030000Y-83820000D01*
X116840000Y-93980000D02*
X114300000Y-91440000D01*
X116840000Y-97790000D02*
X116840000Y-93980000D01*
X113030000Y-83820000D02*
X114485068Y-83820000D01*
%TD*%
M02*
