%TF.GenerationSoftware,KiCad,Pcbnew,7.0.10*%
%TF.CreationDate,2024-11-29T16:25:44-07:00*%
%TF.ProjectId,PiTrac Connector Board,50695472-6163-4204-936f-6e6e6563746f,rev?*%
%TF.SameCoordinates,Original*%
%TF.FileFunction,Soldermask,Bot*%
%TF.FilePolarity,Negative*%
%FSLAX46Y46*%
G04 Gerber Fmt 4.6, Leading zero omitted, Abs format (unit mm)*
G04 Created by KiCad (PCBNEW 7.0.10) date 2024-11-29 16:25:44*
%MOMM*%
%LPD*%
G01*
G04 APERTURE LIST*
%ADD10R,1.600000X1.600000*%
%ADD11O,1.600000X1.600000*%
%ADD12R,1.700000X1.700000*%
%ADD13O,1.700000X1.700000*%
%ADD14C,2.000000*%
%ADD15C,3.000000*%
%ADD16C,1.600000*%
%ADD17C,4.000000*%
%ADD18R,2.500000X2.500000*%
%ADD19C,4.100000*%
%ADD20C,1.524000*%
G04 APERTURE END LIST*
D10*
%TO.C,U2*%
X155551400Y-81280000D03*
D11*
X155551400Y-83820000D03*
X155551400Y-86360000D03*
X163171400Y-86360000D03*
X163171400Y-83820000D03*
X163171400Y-81280000D03*
%TD*%
D12*
%TO.C,Sys2_Conn1*%
X172720000Y-85090000D03*
D13*
X172720000Y-87630000D03*
X172720000Y-90170000D03*
%TD*%
D12*
%TO.C,Sys1_Conn1*%
X114485068Y-81280000D03*
D13*
X114485068Y-83820000D03*
X114485068Y-86360000D03*
X114485068Y-88900000D03*
%TD*%
D14*
%TO.C,U5*%
X143625757Y-115391309D03*
X143625757Y-110311309D03*
D15*
X166485757Y-108851309D03*
X171565757Y-108851309D03*
X166485757Y-117431309D03*
X171565757Y-117431309D03*
%TD*%
D16*
%TO.C,R2*%
X146176246Y-89079071D03*
D11*
X146176246Y-78919071D03*
%TD*%
D10*
%TO.C,U3*%
X134620000Y-81280000D03*
D11*
X134620000Y-83820000D03*
X134620000Y-86360000D03*
X142240000Y-86360000D03*
X142240000Y-83820000D03*
X142240000Y-81280000D03*
%TD*%
D16*
%TO.C,R3*%
X167640000Y-91440000D03*
D11*
X167640000Y-81280000D03*
%TD*%
D17*
%TO.C,REF\u002A\u002A*%
X110500000Y-79300000D03*
%TD*%
D18*
%TO.C,Strobe1*%
X111760000Y-100330000D03*
%TD*%
D19*
%TO.C,REF\u002A\u002A*%
X175000000Y-124000000D03*
%TD*%
D18*
%TO.C,Shutter1*%
X111760000Y-94694197D03*
%TD*%
D10*
%TO.C,U4*%
X121920000Y-91440000D03*
D11*
X121920000Y-93980000D03*
X121920000Y-96520000D03*
X121920000Y-99060000D03*
X121920000Y-101600000D03*
X121920000Y-104140000D03*
X121920000Y-106680000D03*
X129540000Y-106680000D03*
X129540000Y-104140000D03*
X129540000Y-101600000D03*
X129540000Y-99060000D03*
X129540000Y-96520000D03*
X129540000Y-93980000D03*
X129540000Y-91440000D03*
%TD*%
D17*
%TO.C,REF\u002A\u002A*%
X175000000Y-79300000D03*
%TD*%
D16*
%TO.C,R1*%
X130810000Y-81280000D03*
D11*
X120650000Y-81280000D03*
%TD*%
D19*
%TO.C,REF\u002A\u002A*%
X110500000Y-124000000D03*
%TD*%
D18*
%TO.C,Sys1_GND1*%
X111760000Y-105410000D03*
%TD*%
D16*
%TO.C,R4*%
X150840032Y-78861002D03*
D11*
X150840032Y-89021002D03*
%TD*%
D20*
%TO.C,J3*%
X119700000Y-110240000D03*
X119700000Y-112780000D03*
X119700000Y-115320000D03*
X119700000Y-117860000D03*
X119700000Y-120400000D03*
D15*
X113700000Y-110820000D03*
X113700000Y-119820000D03*
%TD*%
M02*
