M48
; DRILL file {KiCad 7.0.10} date Fri Nov 29 16:23:57 2024
; FORMAT={-:-/ absolute / inch / decimal}
; #@! TF.CreationDate,2024-11-29T16:23:57-07:00
; #@! TF.GenerationSoftware,Kicad,Pcbnew,7.0.10
; #@! TF.FileFunction,Plated,1,2,PTH
FMAT,2
INCH
; #@! TA.AperFunction,Plated,PTH,ComponentDrill
T1C0.0300
; #@! TA.AperFunction,Plated,PTH,ComponentDrill
T2C0.0315
; #@! TA.AperFunction,Plated,PTH,ViaDrill
T3C0.0394
; #@! TA.AperFunction,Plated,PTH,ComponentDrill
T4C0.0394
; #@! TA.AperFunction,Plated,PTH,ComponentDrill
T5C0.0472
; #@! TA.AperFunction,Plated,PTH,ComponentDrill
T6C0.0787
; #@! TA.AperFunction,Plated,PTH,ComponentDrill
T7C0.1063
; #@! TA.AperFunction,Plated,PTH,ComponentDrill
T8C0.1181
%
G90
G05
T1
X4.7126Y-4.3402
X4.7126Y-4.4402
X4.7126Y-4.5402
X4.7126Y-4.6402
X4.7126Y-4.7402
T2
X4.75Y-3.2
X4.8Y-3.6
X4.8Y-3.7
X4.8Y-3.8
X4.8Y-3.9
X4.8Y-4.0
X4.8Y-4.1
X4.8Y-4.2
X5.1Y-3.6
X5.1Y-3.7
X5.1Y-3.8
X5.1Y-3.9
X5.1Y-4.0
X5.1Y-4.1
X5.1Y-4.2
X5.15Y-3.2
X5.3Y-3.2
X5.3Y-3.3
X5.3Y-3.4
X5.6Y-3.2
X5.6Y-3.3
X5.6Y-3.4
X5.755Y-3.1071
X5.755Y-3.5071
X5.9386Y-3.1048
X5.9386Y-3.5048
X6.1241Y-3.2
X6.1241Y-3.3
X6.1241Y-3.4
X6.4241Y-3.2
X6.4241Y-3.3
X6.4241Y-3.4
X6.6Y-3.2
X6.6Y-3.6
T3
X5.15Y-3.45
X5.55Y-3.7
T4
X4.5073Y-3.2
X4.5073Y-3.3
X4.5073Y-3.4
X4.5073Y-3.5
X5.6546Y-4.343
X5.6546Y-4.543
X6.8Y-3.35
X6.8Y-3.45
X6.8Y-3.55
T5
X4.4Y-3.7281
X4.4Y-3.95
X4.4Y-4.15
T6
X6.5546Y-4.2855
X6.5546Y-4.6233
X6.7546Y-4.2855
X6.7546Y-4.6233
T7
X4.4764Y-4.363
X4.4764Y-4.7173
T8
X4.3504Y-3.122
X4.3504Y-4.8819
X6.8898Y-3.122
X6.8898Y-4.8819
M30
