%TF.GenerationSoftware,KiCad,Pcbnew,7.0.10*%
%TF.CreationDate,2024-11-29T16:24:07-07:00*%
%TF.ProjectId,PiTrac Connector Board,50695472-6163-4204-936f-6e6e6563746f,rev?*%
%TF.SameCoordinates,Original*%
%TF.FileFunction,Drillmap*%
%TF.FilePolarity,Positive*%
%FSLAX45Y45*%
G04 Gerber Fmt 4.5, Leading zero omitted, Abs format (unit mm)*
G04 Created by KiCad (PCBNEW 7.0.10) date 2024-11-29 16:24:07*
%MOMM*%
%LPD*%
G01*
G04 APERTURE LIST*
%ADD10C,0.050000*%
%ADD11C,0.200000*%
%ADD12C,0.100000*%
%ADD13C,0.120000*%
%ADD14C,0.270000*%
%ADD15C,0.300000*%
G04 APERTURE END LIST*
D10*
X10780000Y-7660000D02*
X17780000Y-7660000D01*
X17780000Y-12660000D01*
X10780000Y-12660000D01*
X10780000Y-7660000D01*
D11*
D12*
X11931900Y-10985900D02*
X12008100Y-11062100D01*
X12008100Y-10985900D02*
X11931900Y-11062100D01*
X11931900Y-11239900D02*
X12008100Y-11316100D01*
X12008100Y-11239900D02*
X11931900Y-11316100D01*
X11931900Y-11493900D02*
X12008100Y-11570100D01*
X12008100Y-11493900D02*
X11931900Y-11570100D01*
X11931900Y-11747900D02*
X12008100Y-11824100D01*
X12008100Y-11747900D02*
X11931900Y-11824100D01*
X11931900Y-12001900D02*
X12008100Y-12078100D01*
X12008100Y-12001900D02*
X11931900Y-12078100D01*
X12105000Y-8128000D02*
G75*
G03*
X12025000Y-8128000I-40000J0D01*
G01*
X12025000Y-8128000D02*
G75*
G03*
X12105000Y-8128000I40000J0D01*
G01*
X12232000Y-9144000D02*
G75*
G03*
X12152000Y-9144000I-40000J0D01*
G01*
X12152000Y-9144000D02*
G75*
G03*
X12232000Y-9144000I40000J0D01*
G01*
X12232000Y-9398000D02*
G75*
G03*
X12152000Y-9398000I-40000J0D01*
G01*
X12152000Y-9398000D02*
G75*
G03*
X12232000Y-9398000I40000J0D01*
G01*
X12232000Y-9652000D02*
G75*
G03*
X12152000Y-9652000I-40000J0D01*
G01*
X12152000Y-9652000D02*
G75*
G03*
X12232000Y-9652000I40000J0D01*
G01*
X12232000Y-9906000D02*
G75*
G03*
X12152000Y-9906000I-40000J0D01*
G01*
X12152000Y-9906000D02*
G75*
G03*
X12232000Y-9906000I40000J0D01*
G01*
X12232000Y-10160000D02*
G75*
G03*
X12152000Y-10160000I-40000J0D01*
G01*
X12152000Y-10160000D02*
G75*
G03*
X12232000Y-10160000I40000J0D01*
G01*
X12232000Y-10414000D02*
G75*
G03*
X12152000Y-10414000I-40000J0D01*
G01*
X12152000Y-10414000D02*
G75*
G03*
X12232000Y-10414000I40000J0D01*
G01*
X12232000Y-10668000D02*
G75*
G03*
X12152000Y-10668000I-40000J0D01*
G01*
X12152000Y-10668000D02*
G75*
G03*
X12232000Y-10668000I40000J0D01*
G01*
X12994000Y-9144000D02*
G75*
G03*
X12914000Y-9144000I-40000J0D01*
G01*
X12914000Y-9144000D02*
G75*
G03*
X12994000Y-9144000I40000J0D01*
G01*
X12994000Y-9398000D02*
G75*
G03*
X12914000Y-9398000I-40000J0D01*
G01*
X12914000Y-9398000D02*
G75*
G03*
X12994000Y-9398000I40000J0D01*
G01*
X12994000Y-9652000D02*
G75*
G03*
X12914000Y-9652000I-40000J0D01*
G01*
X12914000Y-9652000D02*
G75*
G03*
X12994000Y-9652000I40000J0D01*
G01*
X12994000Y-9906000D02*
G75*
G03*
X12914000Y-9906000I-40000J0D01*
G01*
X12914000Y-9906000D02*
G75*
G03*
X12994000Y-9906000I40000J0D01*
G01*
X12994000Y-10160000D02*
G75*
G03*
X12914000Y-10160000I-40000J0D01*
G01*
X12914000Y-10160000D02*
G75*
G03*
X12994000Y-10160000I40000J0D01*
G01*
X12994000Y-10414000D02*
G75*
G03*
X12914000Y-10414000I-40000J0D01*
G01*
X12914000Y-10414000D02*
G75*
G03*
X12994000Y-10414000I40000J0D01*
G01*
X12994000Y-10668000D02*
G75*
G03*
X12914000Y-10668000I-40000J0D01*
G01*
X12914000Y-10668000D02*
G75*
G03*
X12994000Y-10668000I40000J0D01*
G01*
X13121000Y-8128000D02*
G75*
G03*
X13041000Y-8128000I-40000J0D01*
G01*
X13041000Y-8128000D02*
G75*
G03*
X13121000Y-8128000I40000J0D01*
G01*
X13502000Y-8128000D02*
G75*
G03*
X13422000Y-8128000I-40000J0D01*
G01*
X13422000Y-8128000D02*
G75*
G03*
X13502000Y-8128000I40000J0D01*
G01*
X13502000Y-8382000D02*
G75*
G03*
X13422000Y-8382000I-40000J0D01*
G01*
X13422000Y-8382000D02*
G75*
G03*
X13502000Y-8382000I40000J0D01*
G01*
X13502000Y-8636000D02*
G75*
G03*
X13422000Y-8636000I-40000J0D01*
G01*
X13422000Y-8636000D02*
G75*
G03*
X13502000Y-8636000I40000J0D01*
G01*
X14264000Y-8128000D02*
G75*
G03*
X14184000Y-8128000I-40000J0D01*
G01*
X14184000Y-8128000D02*
G75*
G03*
X14264000Y-8128000I40000J0D01*
G01*
X14264000Y-8382000D02*
G75*
G03*
X14184000Y-8382000I-40000J0D01*
G01*
X14184000Y-8382000D02*
G75*
G03*
X14264000Y-8382000I40000J0D01*
G01*
X14264000Y-8636000D02*
G75*
G03*
X14184000Y-8636000I-40000J0D01*
G01*
X14184000Y-8636000D02*
G75*
G03*
X14264000Y-8636000I40000J0D01*
G01*
X14657625Y-7891907D02*
G75*
G03*
X14577625Y-7891907I-40000J0D01*
G01*
X14577625Y-7891907D02*
G75*
G03*
X14657625Y-7891907I40000J0D01*
G01*
X14657625Y-8907907D02*
G75*
G03*
X14577625Y-8907907I-40000J0D01*
G01*
X14577625Y-8907907D02*
G75*
G03*
X14657625Y-8907907I40000J0D01*
G01*
X15124003Y-7886100D02*
G75*
G03*
X15044003Y-7886100I-40000J0D01*
G01*
X15044003Y-7886100D02*
G75*
G03*
X15124003Y-7886100I40000J0D01*
G01*
X15124003Y-8902100D02*
G75*
G03*
X15044003Y-8902100I-40000J0D01*
G01*
X15044003Y-8902100D02*
G75*
G03*
X15124003Y-8902100I40000J0D01*
G01*
X15595140Y-8128000D02*
G75*
G03*
X15515140Y-8128000I-40000J0D01*
G01*
X15515140Y-8128000D02*
G75*
G03*
X15595140Y-8128000I40000J0D01*
G01*
X15595140Y-8382000D02*
G75*
G03*
X15515140Y-8382000I-40000J0D01*
G01*
X15515140Y-8382000D02*
G75*
G03*
X15595140Y-8382000I40000J0D01*
G01*
X15595140Y-8636000D02*
G75*
G03*
X15515140Y-8636000I-40000J0D01*
G01*
X15515140Y-8636000D02*
G75*
G03*
X15595140Y-8636000I40000J0D01*
G01*
X16357140Y-8128000D02*
G75*
G03*
X16277140Y-8128000I-40000J0D01*
G01*
X16277140Y-8128000D02*
G75*
G03*
X16357140Y-8128000I40000J0D01*
G01*
X16357140Y-8382000D02*
G75*
G03*
X16277140Y-8382000I-40000J0D01*
G01*
X16277140Y-8382000D02*
G75*
G03*
X16357140Y-8382000I40000J0D01*
G01*
X16357140Y-8636000D02*
G75*
G03*
X16277140Y-8636000I-40000J0D01*
G01*
X16277140Y-8636000D02*
G75*
G03*
X16357140Y-8636000I40000J0D01*
G01*
X16804000Y-8128000D02*
G75*
G03*
X16724000Y-8128000I-40000J0D01*
G01*
X16724000Y-8128000D02*
G75*
G03*
X16804000Y-8128000I40000J0D01*
G01*
X16804000Y-9144000D02*
G75*
G03*
X16724000Y-9144000I-40000J0D01*
G01*
X16724000Y-9144000D02*
G75*
G03*
X16804000Y-9144000I40000J0D01*
G01*
X13081000Y-8713000D02*
X13081000Y-8813000D01*
X13031000Y-8763000D02*
X13131000Y-8763000D01*
X14097000Y-9348000D02*
X14097000Y-9448000D01*
X14047000Y-9398000D02*
X14147000Y-9398000D01*
X11483862Y-8163356D02*
X11483862Y-8092644D01*
X11413151Y-8092644D01*
X11413151Y-8163356D01*
X11483862Y-8163356D01*
X11483862Y-8417356D02*
X11483862Y-8346644D01*
X11413151Y-8346644D01*
X11413151Y-8417356D01*
X11483862Y-8417356D01*
X11483862Y-8671356D02*
X11483862Y-8600644D01*
X11413151Y-8600644D01*
X11413151Y-8671356D01*
X11483862Y-8671356D01*
X11483862Y-8925356D02*
X11483862Y-8854644D01*
X11413151Y-8854644D01*
X11413151Y-8925356D01*
X11483862Y-8925356D01*
X14397931Y-11066487D02*
X14397931Y-10995775D01*
X14327220Y-10995775D01*
X14327220Y-11066487D01*
X14397931Y-11066487D01*
X14397931Y-11574487D02*
X14397931Y-11503775D01*
X14327220Y-11503775D01*
X14327220Y-11574487D01*
X14397931Y-11574487D01*
X17307356Y-8544356D02*
X17307356Y-8473644D01*
X17236644Y-8473644D01*
X17236644Y-8544356D01*
X17307356Y-8544356D01*
X17307356Y-8798356D02*
X17307356Y-8727644D01*
X17236644Y-8727644D01*
X17236644Y-8798356D01*
X17307356Y-8798356D01*
X17307356Y-9052356D02*
X17307356Y-8981644D01*
X17236644Y-8981644D01*
X17236644Y-9052356D01*
X17307356Y-9052356D01*
D13*
X11176000Y-9529420D02*
X11236000Y-9469420D01*
X11176000Y-9409420D01*
X11116000Y-9469420D01*
X11176000Y-9529420D01*
X11176000Y-10093000D02*
X11236000Y-10033000D01*
X11176000Y-9973000D01*
X11116000Y-10033000D01*
X11176000Y-10093000D01*
X11176000Y-10601000D02*
X11236000Y-10541000D01*
X11176000Y-10481000D01*
X11116000Y-10541000D01*
X11176000Y-10601000D01*
D11*
X16548576Y-10785131D02*
X16748576Y-10985131D01*
X16748576Y-10785131D02*
X16548576Y-10985131D01*
X16748576Y-10885131D02*
G75*
G03*
X16548576Y-10885131I-100000J0D01*
G01*
X16548576Y-10885131D02*
G75*
G03*
X16748576Y-10885131I100000J0D01*
G01*
X16548576Y-11643131D02*
X16748576Y-11843131D01*
X16748576Y-11643131D02*
X16548576Y-11843131D01*
X16748576Y-11743131D02*
G75*
G03*
X16548576Y-11743131I-100000J0D01*
G01*
X16548576Y-11743131D02*
G75*
G03*
X16748576Y-11743131I100000J0D01*
G01*
X17056576Y-10785131D02*
X17256576Y-10985131D01*
X17256576Y-10785131D02*
X17056576Y-10985131D01*
X17256576Y-10885131D02*
G75*
G03*
X17056576Y-10885131I-100000J0D01*
G01*
X17056576Y-10885131D02*
G75*
G03*
X17256576Y-10885131I100000J0D01*
G01*
X17056576Y-11643131D02*
X17256576Y-11843131D01*
X17256576Y-11643131D02*
X17056576Y-11843131D01*
X17256576Y-11743131D02*
G75*
G03*
X17056576Y-11743131I-100000J0D01*
G01*
X17056576Y-11743131D02*
G75*
G03*
X17256576Y-11743131I100000J0D01*
G01*
D14*
X11235000Y-10947000D02*
X11505000Y-11217000D01*
X11505000Y-10947000D02*
X11235000Y-11217000D01*
X11370000Y-10947000D02*
X11370000Y-11217000D01*
X11235000Y-11082000D02*
X11505000Y-11082000D01*
X11235000Y-11847000D02*
X11505000Y-12117000D01*
X11505000Y-11847000D02*
X11235000Y-12117000D01*
X11370000Y-11847000D02*
X11370000Y-12117000D01*
X11235000Y-11982000D02*
X11505000Y-11982000D01*
D15*
X10900000Y-7780000D02*
X11200000Y-8080000D01*
X11200000Y-7780000D02*
X10900000Y-8080000D01*
X11156067Y-8036067D02*
X11156067Y-7823933D01*
X10943933Y-7823933D01*
X10943933Y-8036067D01*
X11156067Y-8036067D01*
X10900000Y-12250000D02*
X11200000Y-12550000D01*
X11200000Y-12250000D02*
X10900000Y-12550000D01*
X11156067Y-12506067D02*
X11156067Y-12293933D01*
X10943933Y-12293933D01*
X10943933Y-12506067D01*
X11156067Y-12506067D01*
X17350000Y-7780000D02*
X17650000Y-8080000D01*
X17650000Y-7780000D02*
X17350000Y-8080000D01*
X17606067Y-8036067D02*
X17606067Y-7823933D01*
X17393933Y-7823933D01*
X17393933Y-8036067D01*
X17606067Y-8036067D01*
X17350000Y-12250000D02*
X17650000Y-12550000D01*
X17650000Y-12250000D02*
X17350000Y-12550000D01*
X17606067Y-12506067D02*
X17606067Y-12293933D01*
X17393933Y-12293933D01*
X17393933Y-12506067D01*
X17606067Y-12506067D01*
D11*
X11038277Y-12973984D02*
X11038277Y-12773984D01*
X11038277Y-12773984D02*
X11085896Y-12773984D01*
X11085896Y-12773984D02*
X11114467Y-12783508D01*
X11114467Y-12783508D02*
X11133515Y-12802555D01*
X11133515Y-12802555D02*
X11143039Y-12821603D01*
X11143039Y-12821603D02*
X11152563Y-12859698D01*
X11152563Y-12859698D02*
X11152563Y-12888269D01*
X11152563Y-12888269D02*
X11143039Y-12926365D01*
X11143039Y-12926365D02*
X11133515Y-12945412D01*
X11133515Y-12945412D02*
X11114467Y-12964460D01*
X11114467Y-12964460D02*
X11085896Y-12973984D01*
X11085896Y-12973984D02*
X11038277Y-12973984D01*
X11238277Y-12973984D02*
X11238277Y-12840650D01*
X11238277Y-12878746D02*
X11247801Y-12859698D01*
X11247801Y-12859698D02*
X11257324Y-12850174D01*
X11257324Y-12850174D02*
X11276372Y-12840650D01*
X11276372Y-12840650D02*
X11295420Y-12840650D01*
X11362086Y-12973984D02*
X11362086Y-12840650D01*
X11362086Y-12773984D02*
X11352562Y-12783508D01*
X11352562Y-12783508D02*
X11362086Y-12793031D01*
X11362086Y-12793031D02*
X11371610Y-12783508D01*
X11371610Y-12783508D02*
X11362086Y-12773984D01*
X11362086Y-12773984D02*
X11362086Y-12793031D01*
X11485896Y-12973984D02*
X11466848Y-12964460D01*
X11466848Y-12964460D02*
X11457324Y-12945412D01*
X11457324Y-12945412D02*
X11457324Y-12773984D01*
X11590658Y-12973984D02*
X11571610Y-12964460D01*
X11571610Y-12964460D02*
X11562086Y-12945412D01*
X11562086Y-12945412D02*
X11562086Y-12773984D01*
X11819229Y-12973984D02*
X11819229Y-12773984D01*
X11819229Y-12773984D02*
X11885896Y-12916841D01*
X11885896Y-12916841D02*
X11952562Y-12773984D01*
X11952562Y-12773984D02*
X11952562Y-12973984D01*
X12133515Y-12973984D02*
X12133515Y-12869222D01*
X12133515Y-12869222D02*
X12123991Y-12850174D01*
X12123991Y-12850174D02*
X12104943Y-12840650D01*
X12104943Y-12840650D02*
X12066848Y-12840650D01*
X12066848Y-12840650D02*
X12047801Y-12850174D01*
X12133515Y-12964460D02*
X12114467Y-12973984D01*
X12114467Y-12973984D02*
X12066848Y-12973984D01*
X12066848Y-12973984D02*
X12047801Y-12964460D01*
X12047801Y-12964460D02*
X12038277Y-12945412D01*
X12038277Y-12945412D02*
X12038277Y-12926365D01*
X12038277Y-12926365D02*
X12047801Y-12907317D01*
X12047801Y-12907317D02*
X12066848Y-12897793D01*
X12066848Y-12897793D02*
X12114467Y-12897793D01*
X12114467Y-12897793D02*
X12133515Y-12888269D01*
X12228753Y-12840650D02*
X12228753Y-13040650D01*
X12228753Y-12850174D02*
X12247801Y-12840650D01*
X12247801Y-12840650D02*
X12285896Y-12840650D01*
X12285896Y-12840650D02*
X12304943Y-12850174D01*
X12304943Y-12850174D02*
X12314467Y-12859698D01*
X12314467Y-12859698D02*
X12323991Y-12878746D01*
X12323991Y-12878746D02*
X12323991Y-12935888D01*
X12323991Y-12935888D02*
X12314467Y-12954936D01*
X12314467Y-12954936D02*
X12304943Y-12964460D01*
X12304943Y-12964460D02*
X12285896Y-12973984D01*
X12285896Y-12973984D02*
X12247801Y-12973984D01*
X12247801Y-12973984D02*
X12228753Y-12964460D01*
X12409705Y-12954936D02*
X12419229Y-12964460D01*
X12419229Y-12964460D02*
X12409705Y-12973984D01*
X12409705Y-12973984D02*
X12400182Y-12964460D01*
X12400182Y-12964460D02*
X12409705Y-12954936D01*
X12409705Y-12954936D02*
X12409705Y-12973984D01*
X12409705Y-12850174D02*
X12419229Y-12859698D01*
X12419229Y-12859698D02*
X12409705Y-12869222D01*
X12409705Y-12869222D02*
X12400182Y-12859698D01*
X12400182Y-12859698D02*
X12409705Y-12850174D01*
X12409705Y-12850174D02*
X12409705Y-12869222D01*
D12*
X10701300Y-13264400D02*
X10777500Y-13340600D01*
X10777500Y-13264400D02*
X10701300Y-13340600D01*
D11*
X11076372Y-13193984D02*
X11095420Y-13193984D01*
X11095420Y-13193984D02*
X11114467Y-13203508D01*
X11114467Y-13203508D02*
X11123991Y-13213031D01*
X11123991Y-13213031D02*
X11133515Y-13232079D01*
X11133515Y-13232079D02*
X11143039Y-13270174D01*
X11143039Y-13270174D02*
X11143039Y-13317793D01*
X11143039Y-13317793D02*
X11133515Y-13355888D01*
X11133515Y-13355888D02*
X11123991Y-13374936D01*
X11123991Y-13374936D02*
X11114467Y-13384460D01*
X11114467Y-13384460D02*
X11095420Y-13393984D01*
X11095420Y-13393984D02*
X11076372Y-13393984D01*
X11076372Y-13393984D02*
X11057324Y-13384460D01*
X11057324Y-13384460D02*
X11047801Y-13374936D01*
X11047801Y-13374936D02*
X11038277Y-13355888D01*
X11038277Y-13355888D02*
X11028753Y-13317793D01*
X11028753Y-13317793D02*
X11028753Y-13270174D01*
X11028753Y-13270174D02*
X11038277Y-13232079D01*
X11038277Y-13232079D02*
X11047801Y-13213031D01*
X11047801Y-13213031D02*
X11057324Y-13203508D01*
X11057324Y-13203508D02*
X11076372Y-13193984D01*
X11228753Y-13374936D02*
X11238277Y-13384460D01*
X11238277Y-13384460D02*
X11228753Y-13393984D01*
X11228753Y-13393984D02*
X11219229Y-13384460D01*
X11219229Y-13384460D02*
X11228753Y-13374936D01*
X11228753Y-13374936D02*
X11228753Y-13393984D01*
X11304943Y-13193984D02*
X11438277Y-13193984D01*
X11438277Y-13193984D02*
X11352562Y-13393984D01*
X11600182Y-13193984D02*
X11562086Y-13193984D01*
X11562086Y-13193984D02*
X11543039Y-13203508D01*
X11543039Y-13203508D02*
X11533515Y-13213031D01*
X11533515Y-13213031D02*
X11514467Y-13241603D01*
X11514467Y-13241603D02*
X11504943Y-13279698D01*
X11504943Y-13279698D02*
X11504943Y-13355888D01*
X11504943Y-13355888D02*
X11514467Y-13374936D01*
X11514467Y-13374936D02*
X11523991Y-13384460D01*
X11523991Y-13384460D02*
X11543039Y-13393984D01*
X11543039Y-13393984D02*
X11581134Y-13393984D01*
X11581134Y-13393984D02*
X11600182Y-13384460D01*
X11600182Y-13384460D02*
X11609705Y-13374936D01*
X11609705Y-13374936D02*
X11619229Y-13355888D01*
X11619229Y-13355888D02*
X11619229Y-13308269D01*
X11619229Y-13308269D02*
X11609705Y-13289222D01*
X11609705Y-13289222D02*
X11600182Y-13279698D01*
X11600182Y-13279698D02*
X11581134Y-13270174D01*
X11581134Y-13270174D02*
X11543039Y-13270174D01*
X11543039Y-13270174D02*
X11523991Y-13279698D01*
X11523991Y-13279698D02*
X11514467Y-13289222D01*
X11514467Y-13289222D02*
X11504943Y-13308269D01*
X11695420Y-13213031D02*
X11704943Y-13203508D01*
X11704943Y-13203508D02*
X11723991Y-13193984D01*
X11723991Y-13193984D02*
X11771610Y-13193984D01*
X11771610Y-13193984D02*
X11790658Y-13203508D01*
X11790658Y-13203508D02*
X11800182Y-13213031D01*
X11800182Y-13213031D02*
X11809705Y-13232079D01*
X11809705Y-13232079D02*
X11809705Y-13251127D01*
X11809705Y-13251127D02*
X11800182Y-13279698D01*
X11800182Y-13279698D02*
X11685896Y-13393984D01*
X11685896Y-13393984D02*
X11809705Y-13393984D01*
X11895420Y-13393984D02*
X11895420Y-13260650D01*
X11895420Y-13279698D02*
X11904943Y-13270174D01*
X11904943Y-13270174D02*
X11923991Y-13260650D01*
X11923991Y-13260650D02*
X11952563Y-13260650D01*
X11952563Y-13260650D02*
X11971610Y-13270174D01*
X11971610Y-13270174D02*
X11981134Y-13289222D01*
X11981134Y-13289222D02*
X11981134Y-13393984D01*
X11981134Y-13289222D02*
X11990658Y-13270174D01*
X11990658Y-13270174D02*
X12009705Y-13260650D01*
X12009705Y-13260650D02*
X12038277Y-13260650D01*
X12038277Y-13260650D02*
X12057324Y-13270174D01*
X12057324Y-13270174D02*
X12066848Y-13289222D01*
X12066848Y-13289222D02*
X12066848Y-13393984D01*
X12162086Y-13393984D02*
X12162086Y-13260650D01*
X12162086Y-13279698D02*
X12171610Y-13270174D01*
X12171610Y-13270174D02*
X12190658Y-13260650D01*
X12190658Y-13260650D02*
X12219229Y-13260650D01*
X12219229Y-13260650D02*
X12238277Y-13270174D01*
X12238277Y-13270174D02*
X12247801Y-13289222D01*
X12247801Y-13289222D02*
X12247801Y-13393984D01*
X12247801Y-13289222D02*
X12257324Y-13270174D01*
X12257324Y-13270174D02*
X12276372Y-13260650D01*
X12276372Y-13260650D02*
X12304943Y-13260650D01*
X12304943Y-13260650D02*
X12323991Y-13270174D01*
X12323991Y-13270174D02*
X12333515Y-13289222D01*
X12333515Y-13289222D02*
X12333515Y-13393984D01*
X12723991Y-13184460D02*
X12552563Y-13441603D01*
X12981134Y-13193984D02*
X13000182Y-13193984D01*
X13000182Y-13193984D02*
X13019229Y-13203508D01*
X13019229Y-13203508D02*
X13028753Y-13213031D01*
X13028753Y-13213031D02*
X13038277Y-13232079D01*
X13038277Y-13232079D02*
X13047801Y-13270174D01*
X13047801Y-13270174D02*
X13047801Y-13317793D01*
X13047801Y-13317793D02*
X13038277Y-13355888D01*
X13038277Y-13355888D02*
X13028753Y-13374936D01*
X13028753Y-13374936D02*
X13019229Y-13384460D01*
X13019229Y-13384460D02*
X13000182Y-13393984D01*
X13000182Y-13393984D02*
X12981134Y-13393984D01*
X12981134Y-13393984D02*
X12962086Y-13384460D01*
X12962086Y-13384460D02*
X12952563Y-13374936D01*
X12952563Y-13374936D02*
X12943039Y-13355888D01*
X12943039Y-13355888D02*
X12933515Y-13317793D01*
X12933515Y-13317793D02*
X12933515Y-13270174D01*
X12933515Y-13270174D02*
X12943039Y-13232079D01*
X12943039Y-13232079D02*
X12952563Y-13213031D01*
X12952563Y-13213031D02*
X12962086Y-13203508D01*
X12962086Y-13203508D02*
X12981134Y-13193984D01*
X13133515Y-13374936D02*
X13143039Y-13384460D01*
X13143039Y-13384460D02*
X13133515Y-13393984D01*
X13133515Y-13393984D02*
X13123991Y-13384460D01*
X13123991Y-13384460D02*
X13133515Y-13374936D01*
X13133515Y-13374936D02*
X13133515Y-13393984D01*
X13266848Y-13193984D02*
X13285896Y-13193984D01*
X13285896Y-13193984D02*
X13304944Y-13203508D01*
X13304944Y-13203508D02*
X13314467Y-13213031D01*
X13314467Y-13213031D02*
X13323991Y-13232079D01*
X13323991Y-13232079D02*
X13333515Y-13270174D01*
X13333515Y-13270174D02*
X13333515Y-13317793D01*
X13333515Y-13317793D02*
X13323991Y-13355888D01*
X13323991Y-13355888D02*
X13314467Y-13374936D01*
X13314467Y-13374936D02*
X13304944Y-13384460D01*
X13304944Y-13384460D02*
X13285896Y-13393984D01*
X13285896Y-13393984D02*
X13266848Y-13393984D01*
X13266848Y-13393984D02*
X13247801Y-13384460D01*
X13247801Y-13384460D02*
X13238277Y-13374936D01*
X13238277Y-13374936D02*
X13228753Y-13355888D01*
X13228753Y-13355888D02*
X13219229Y-13317793D01*
X13219229Y-13317793D02*
X13219229Y-13270174D01*
X13219229Y-13270174D02*
X13228753Y-13232079D01*
X13228753Y-13232079D02*
X13238277Y-13213031D01*
X13238277Y-13213031D02*
X13247801Y-13203508D01*
X13247801Y-13203508D02*
X13266848Y-13193984D01*
X13400182Y-13193984D02*
X13523991Y-13193984D01*
X13523991Y-13193984D02*
X13457325Y-13270174D01*
X13457325Y-13270174D02*
X13485896Y-13270174D01*
X13485896Y-13270174D02*
X13504944Y-13279698D01*
X13504944Y-13279698D02*
X13514467Y-13289222D01*
X13514467Y-13289222D02*
X13523991Y-13308269D01*
X13523991Y-13308269D02*
X13523991Y-13355888D01*
X13523991Y-13355888D02*
X13514467Y-13374936D01*
X13514467Y-13374936D02*
X13504944Y-13384460D01*
X13504944Y-13384460D02*
X13485896Y-13393984D01*
X13485896Y-13393984D02*
X13428753Y-13393984D01*
X13428753Y-13393984D02*
X13409706Y-13384460D01*
X13409706Y-13384460D02*
X13400182Y-13374936D01*
X13647801Y-13193984D02*
X13666848Y-13193984D01*
X13666848Y-13193984D02*
X13685896Y-13203508D01*
X13685896Y-13203508D02*
X13695420Y-13213031D01*
X13695420Y-13213031D02*
X13704944Y-13232079D01*
X13704944Y-13232079D02*
X13714467Y-13270174D01*
X13714467Y-13270174D02*
X13714467Y-13317793D01*
X13714467Y-13317793D02*
X13704944Y-13355888D01*
X13704944Y-13355888D02*
X13695420Y-13374936D01*
X13695420Y-13374936D02*
X13685896Y-13384460D01*
X13685896Y-13384460D02*
X13666848Y-13393984D01*
X13666848Y-13393984D02*
X13647801Y-13393984D01*
X13647801Y-13393984D02*
X13628753Y-13384460D01*
X13628753Y-13384460D02*
X13619229Y-13374936D01*
X13619229Y-13374936D02*
X13609706Y-13355888D01*
X13609706Y-13355888D02*
X13600182Y-13317793D01*
X13600182Y-13317793D02*
X13600182Y-13270174D01*
X13600182Y-13270174D02*
X13609706Y-13232079D01*
X13609706Y-13232079D02*
X13619229Y-13213031D01*
X13619229Y-13213031D02*
X13628753Y-13203508D01*
X13628753Y-13203508D02*
X13647801Y-13193984D01*
X13838277Y-13193984D02*
X13857325Y-13193984D01*
X13857325Y-13193984D02*
X13876372Y-13203508D01*
X13876372Y-13203508D02*
X13885896Y-13213031D01*
X13885896Y-13213031D02*
X13895420Y-13232079D01*
X13895420Y-13232079D02*
X13904944Y-13270174D01*
X13904944Y-13270174D02*
X13904944Y-13317793D01*
X13904944Y-13317793D02*
X13895420Y-13355888D01*
X13895420Y-13355888D02*
X13885896Y-13374936D01*
X13885896Y-13374936D02*
X13876372Y-13384460D01*
X13876372Y-13384460D02*
X13857325Y-13393984D01*
X13857325Y-13393984D02*
X13838277Y-13393984D01*
X13838277Y-13393984D02*
X13819229Y-13384460D01*
X13819229Y-13384460D02*
X13809706Y-13374936D01*
X13809706Y-13374936D02*
X13800182Y-13355888D01*
X13800182Y-13355888D02*
X13790658Y-13317793D01*
X13790658Y-13317793D02*
X13790658Y-13270174D01*
X13790658Y-13270174D02*
X13800182Y-13232079D01*
X13800182Y-13232079D02*
X13809706Y-13213031D01*
X13809706Y-13213031D02*
X13819229Y-13203508D01*
X13819229Y-13203508D02*
X13838277Y-13193984D01*
X13981134Y-13193984D02*
X13981134Y-13232079D01*
X14057325Y-13193984D02*
X14057325Y-13232079D01*
X14352563Y-13470174D02*
X14343039Y-13460650D01*
X14343039Y-13460650D02*
X14323991Y-13432079D01*
X14323991Y-13432079D02*
X14314468Y-13413031D01*
X14314468Y-13413031D02*
X14304944Y-13384460D01*
X14304944Y-13384460D02*
X14295420Y-13336841D01*
X14295420Y-13336841D02*
X14295420Y-13298746D01*
X14295420Y-13298746D02*
X14304944Y-13251127D01*
X14304944Y-13251127D02*
X14314468Y-13222555D01*
X14314468Y-13222555D02*
X14323991Y-13203508D01*
X14323991Y-13203508D02*
X14343039Y-13174936D01*
X14343039Y-13174936D02*
X14352563Y-13165412D01*
X14523991Y-13193984D02*
X14428753Y-13193984D01*
X14428753Y-13193984D02*
X14419229Y-13289222D01*
X14419229Y-13289222D02*
X14428753Y-13279698D01*
X14428753Y-13279698D02*
X14447801Y-13270174D01*
X14447801Y-13270174D02*
X14495420Y-13270174D01*
X14495420Y-13270174D02*
X14514468Y-13279698D01*
X14514468Y-13279698D02*
X14523991Y-13289222D01*
X14523991Y-13289222D02*
X14533515Y-13308269D01*
X14533515Y-13308269D02*
X14533515Y-13355888D01*
X14533515Y-13355888D02*
X14523991Y-13374936D01*
X14523991Y-13374936D02*
X14514468Y-13384460D01*
X14514468Y-13384460D02*
X14495420Y-13393984D01*
X14495420Y-13393984D02*
X14447801Y-13393984D01*
X14447801Y-13393984D02*
X14428753Y-13384460D01*
X14428753Y-13384460D02*
X14419229Y-13374936D01*
X14771610Y-13393984D02*
X14771610Y-13193984D01*
X14857325Y-13393984D02*
X14857325Y-13289222D01*
X14857325Y-13289222D02*
X14847801Y-13270174D01*
X14847801Y-13270174D02*
X14828753Y-13260650D01*
X14828753Y-13260650D02*
X14800182Y-13260650D01*
X14800182Y-13260650D02*
X14781134Y-13270174D01*
X14781134Y-13270174D02*
X14771610Y-13279698D01*
X14981134Y-13393984D02*
X14962087Y-13384460D01*
X14962087Y-13384460D02*
X14952563Y-13374936D01*
X14952563Y-13374936D02*
X14943039Y-13355888D01*
X14943039Y-13355888D02*
X14943039Y-13298746D01*
X14943039Y-13298746D02*
X14952563Y-13279698D01*
X14952563Y-13279698D02*
X14962087Y-13270174D01*
X14962087Y-13270174D02*
X14981134Y-13260650D01*
X14981134Y-13260650D02*
X15009706Y-13260650D01*
X15009706Y-13260650D02*
X15028753Y-13270174D01*
X15028753Y-13270174D02*
X15038277Y-13279698D01*
X15038277Y-13279698D02*
X15047801Y-13298746D01*
X15047801Y-13298746D02*
X15047801Y-13355888D01*
X15047801Y-13355888D02*
X15038277Y-13374936D01*
X15038277Y-13374936D02*
X15028753Y-13384460D01*
X15028753Y-13384460D02*
X15009706Y-13393984D01*
X15009706Y-13393984D02*
X14981134Y-13393984D01*
X15162087Y-13393984D02*
X15143039Y-13384460D01*
X15143039Y-13384460D02*
X15133515Y-13365412D01*
X15133515Y-13365412D02*
X15133515Y-13193984D01*
X15314468Y-13384460D02*
X15295420Y-13393984D01*
X15295420Y-13393984D02*
X15257325Y-13393984D01*
X15257325Y-13393984D02*
X15238277Y-13384460D01*
X15238277Y-13384460D02*
X15228753Y-13365412D01*
X15228753Y-13365412D02*
X15228753Y-13289222D01*
X15228753Y-13289222D02*
X15238277Y-13270174D01*
X15238277Y-13270174D02*
X15257325Y-13260650D01*
X15257325Y-13260650D02*
X15295420Y-13260650D01*
X15295420Y-13260650D02*
X15314468Y-13270174D01*
X15314468Y-13270174D02*
X15323991Y-13289222D01*
X15323991Y-13289222D02*
X15323991Y-13308269D01*
X15323991Y-13308269D02*
X15228753Y-13327317D01*
X15400182Y-13384460D02*
X15419230Y-13393984D01*
X15419230Y-13393984D02*
X15457325Y-13393984D01*
X15457325Y-13393984D02*
X15476372Y-13384460D01*
X15476372Y-13384460D02*
X15485896Y-13365412D01*
X15485896Y-13365412D02*
X15485896Y-13355888D01*
X15485896Y-13355888D02*
X15476372Y-13336841D01*
X15476372Y-13336841D02*
X15457325Y-13327317D01*
X15457325Y-13327317D02*
X15428753Y-13327317D01*
X15428753Y-13327317D02*
X15409706Y-13317793D01*
X15409706Y-13317793D02*
X15400182Y-13298746D01*
X15400182Y-13298746D02*
X15400182Y-13289222D01*
X15400182Y-13289222D02*
X15409706Y-13270174D01*
X15409706Y-13270174D02*
X15428753Y-13260650D01*
X15428753Y-13260650D02*
X15457325Y-13260650D01*
X15457325Y-13260650D02*
X15476372Y-13270174D01*
X15552563Y-13470174D02*
X15562087Y-13460650D01*
X15562087Y-13460650D02*
X15581134Y-13432079D01*
X15581134Y-13432079D02*
X15590658Y-13413031D01*
X15590658Y-13413031D02*
X15600182Y-13384460D01*
X15600182Y-13384460D02*
X15609706Y-13336841D01*
X15609706Y-13336841D02*
X15609706Y-13298746D01*
X15609706Y-13298746D02*
X15600182Y-13251127D01*
X15600182Y-13251127D02*
X15590658Y-13222555D01*
X15590658Y-13222555D02*
X15581134Y-13203508D01*
X15581134Y-13203508D02*
X15562087Y-13174936D01*
X15562087Y-13174936D02*
X15552563Y-13165412D01*
D12*
X10777500Y-13566500D02*
G75*
G03*
X10697500Y-13566500I-40000J0D01*
G01*
X10697500Y-13566500D02*
G75*
G03*
X10777500Y-13566500I40000J0D01*
G01*
D11*
X11076372Y-13457984D02*
X11095420Y-13457984D01*
X11095420Y-13457984D02*
X11114467Y-13467508D01*
X11114467Y-13467508D02*
X11123991Y-13477031D01*
X11123991Y-13477031D02*
X11133515Y-13496079D01*
X11133515Y-13496079D02*
X11143039Y-13534174D01*
X11143039Y-13534174D02*
X11143039Y-13581793D01*
X11143039Y-13581793D02*
X11133515Y-13619888D01*
X11133515Y-13619888D02*
X11123991Y-13638936D01*
X11123991Y-13638936D02*
X11114467Y-13648460D01*
X11114467Y-13648460D02*
X11095420Y-13657984D01*
X11095420Y-13657984D02*
X11076372Y-13657984D01*
X11076372Y-13657984D02*
X11057324Y-13648460D01*
X11057324Y-13648460D02*
X11047801Y-13638936D01*
X11047801Y-13638936D02*
X11038277Y-13619888D01*
X11038277Y-13619888D02*
X11028753Y-13581793D01*
X11028753Y-13581793D02*
X11028753Y-13534174D01*
X11028753Y-13534174D02*
X11038277Y-13496079D01*
X11038277Y-13496079D02*
X11047801Y-13477031D01*
X11047801Y-13477031D02*
X11057324Y-13467508D01*
X11057324Y-13467508D02*
X11076372Y-13457984D01*
X11228753Y-13638936D02*
X11238277Y-13648460D01*
X11238277Y-13648460D02*
X11228753Y-13657984D01*
X11228753Y-13657984D02*
X11219229Y-13648460D01*
X11219229Y-13648460D02*
X11228753Y-13638936D01*
X11228753Y-13638936D02*
X11228753Y-13657984D01*
X11352562Y-13543698D02*
X11333515Y-13534174D01*
X11333515Y-13534174D02*
X11323991Y-13524650D01*
X11323991Y-13524650D02*
X11314467Y-13505603D01*
X11314467Y-13505603D02*
X11314467Y-13496079D01*
X11314467Y-13496079D02*
X11323991Y-13477031D01*
X11323991Y-13477031D02*
X11333515Y-13467508D01*
X11333515Y-13467508D02*
X11352562Y-13457984D01*
X11352562Y-13457984D02*
X11390658Y-13457984D01*
X11390658Y-13457984D02*
X11409705Y-13467508D01*
X11409705Y-13467508D02*
X11419229Y-13477031D01*
X11419229Y-13477031D02*
X11428753Y-13496079D01*
X11428753Y-13496079D02*
X11428753Y-13505603D01*
X11428753Y-13505603D02*
X11419229Y-13524650D01*
X11419229Y-13524650D02*
X11409705Y-13534174D01*
X11409705Y-13534174D02*
X11390658Y-13543698D01*
X11390658Y-13543698D02*
X11352562Y-13543698D01*
X11352562Y-13543698D02*
X11333515Y-13553222D01*
X11333515Y-13553222D02*
X11323991Y-13562746D01*
X11323991Y-13562746D02*
X11314467Y-13581793D01*
X11314467Y-13581793D02*
X11314467Y-13619888D01*
X11314467Y-13619888D02*
X11323991Y-13638936D01*
X11323991Y-13638936D02*
X11333515Y-13648460D01*
X11333515Y-13648460D02*
X11352562Y-13657984D01*
X11352562Y-13657984D02*
X11390658Y-13657984D01*
X11390658Y-13657984D02*
X11409705Y-13648460D01*
X11409705Y-13648460D02*
X11419229Y-13638936D01*
X11419229Y-13638936D02*
X11428753Y-13619888D01*
X11428753Y-13619888D02*
X11428753Y-13581793D01*
X11428753Y-13581793D02*
X11419229Y-13562746D01*
X11419229Y-13562746D02*
X11409705Y-13553222D01*
X11409705Y-13553222D02*
X11390658Y-13543698D01*
X11552562Y-13457984D02*
X11571610Y-13457984D01*
X11571610Y-13457984D02*
X11590658Y-13467508D01*
X11590658Y-13467508D02*
X11600182Y-13477031D01*
X11600182Y-13477031D02*
X11609705Y-13496079D01*
X11609705Y-13496079D02*
X11619229Y-13534174D01*
X11619229Y-13534174D02*
X11619229Y-13581793D01*
X11619229Y-13581793D02*
X11609705Y-13619888D01*
X11609705Y-13619888D02*
X11600182Y-13638936D01*
X11600182Y-13638936D02*
X11590658Y-13648460D01*
X11590658Y-13648460D02*
X11571610Y-13657984D01*
X11571610Y-13657984D02*
X11552562Y-13657984D01*
X11552562Y-13657984D02*
X11533515Y-13648460D01*
X11533515Y-13648460D02*
X11523991Y-13638936D01*
X11523991Y-13638936D02*
X11514467Y-13619888D01*
X11514467Y-13619888D02*
X11504943Y-13581793D01*
X11504943Y-13581793D02*
X11504943Y-13534174D01*
X11504943Y-13534174D02*
X11514467Y-13496079D01*
X11514467Y-13496079D02*
X11523991Y-13477031D01*
X11523991Y-13477031D02*
X11533515Y-13467508D01*
X11533515Y-13467508D02*
X11552562Y-13457984D01*
X11743039Y-13457984D02*
X11762086Y-13457984D01*
X11762086Y-13457984D02*
X11781134Y-13467508D01*
X11781134Y-13467508D02*
X11790658Y-13477031D01*
X11790658Y-13477031D02*
X11800182Y-13496079D01*
X11800182Y-13496079D02*
X11809705Y-13534174D01*
X11809705Y-13534174D02*
X11809705Y-13581793D01*
X11809705Y-13581793D02*
X11800182Y-13619888D01*
X11800182Y-13619888D02*
X11790658Y-13638936D01*
X11790658Y-13638936D02*
X11781134Y-13648460D01*
X11781134Y-13648460D02*
X11762086Y-13657984D01*
X11762086Y-13657984D02*
X11743039Y-13657984D01*
X11743039Y-13657984D02*
X11723991Y-13648460D01*
X11723991Y-13648460D02*
X11714467Y-13638936D01*
X11714467Y-13638936D02*
X11704943Y-13619888D01*
X11704943Y-13619888D02*
X11695420Y-13581793D01*
X11695420Y-13581793D02*
X11695420Y-13534174D01*
X11695420Y-13534174D02*
X11704943Y-13496079D01*
X11704943Y-13496079D02*
X11714467Y-13477031D01*
X11714467Y-13477031D02*
X11723991Y-13467508D01*
X11723991Y-13467508D02*
X11743039Y-13457984D01*
X11895420Y-13657984D02*
X11895420Y-13524650D01*
X11895420Y-13543698D02*
X11904943Y-13534174D01*
X11904943Y-13534174D02*
X11923991Y-13524650D01*
X11923991Y-13524650D02*
X11952563Y-13524650D01*
X11952563Y-13524650D02*
X11971610Y-13534174D01*
X11971610Y-13534174D02*
X11981134Y-13553222D01*
X11981134Y-13553222D02*
X11981134Y-13657984D01*
X11981134Y-13553222D02*
X11990658Y-13534174D01*
X11990658Y-13534174D02*
X12009705Y-13524650D01*
X12009705Y-13524650D02*
X12038277Y-13524650D01*
X12038277Y-13524650D02*
X12057324Y-13534174D01*
X12057324Y-13534174D02*
X12066848Y-13553222D01*
X12066848Y-13553222D02*
X12066848Y-13657984D01*
X12162086Y-13657984D02*
X12162086Y-13524650D01*
X12162086Y-13543698D02*
X12171610Y-13534174D01*
X12171610Y-13534174D02*
X12190658Y-13524650D01*
X12190658Y-13524650D02*
X12219229Y-13524650D01*
X12219229Y-13524650D02*
X12238277Y-13534174D01*
X12238277Y-13534174D02*
X12247801Y-13553222D01*
X12247801Y-13553222D02*
X12247801Y-13657984D01*
X12247801Y-13553222D02*
X12257324Y-13534174D01*
X12257324Y-13534174D02*
X12276372Y-13524650D01*
X12276372Y-13524650D02*
X12304943Y-13524650D01*
X12304943Y-13524650D02*
X12323991Y-13534174D01*
X12323991Y-13534174D02*
X12333515Y-13553222D01*
X12333515Y-13553222D02*
X12333515Y-13657984D01*
X12723991Y-13448460D02*
X12552563Y-13705603D01*
X12981134Y-13457984D02*
X13000182Y-13457984D01*
X13000182Y-13457984D02*
X13019229Y-13467508D01*
X13019229Y-13467508D02*
X13028753Y-13477031D01*
X13028753Y-13477031D02*
X13038277Y-13496079D01*
X13038277Y-13496079D02*
X13047801Y-13534174D01*
X13047801Y-13534174D02*
X13047801Y-13581793D01*
X13047801Y-13581793D02*
X13038277Y-13619888D01*
X13038277Y-13619888D02*
X13028753Y-13638936D01*
X13028753Y-13638936D02*
X13019229Y-13648460D01*
X13019229Y-13648460D02*
X13000182Y-13657984D01*
X13000182Y-13657984D02*
X12981134Y-13657984D01*
X12981134Y-13657984D02*
X12962086Y-13648460D01*
X12962086Y-13648460D02*
X12952563Y-13638936D01*
X12952563Y-13638936D02*
X12943039Y-13619888D01*
X12943039Y-13619888D02*
X12933515Y-13581793D01*
X12933515Y-13581793D02*
X12933515Y-13534174D01*
X12933515Y-13534174D02*
X12943039Y-13496079D01*
X12943039Y-13496079D02*
X12952563Y-13477031D01*
X12952563Y-13477031D02*
X12962086Y-13467508D01*
X12962086Y-13467508D02*
X12981134Y-13457984D01*
X13133515Y-13638936D02*
X13143039Y-13648460D01*
X13143039Y-13648460D02*
X13133515Y-13657984D01*
X13133515Y-13657984D02*
X13123991Y-13648460D01*
X13123991Y-13648460D02*
X13133515Y-13638936D01*
X13133515Y-13638936D02*
X13133515Y-13657984D01*
X13266848Y-13457984D02*
X13285896Y-13457984D01*
X13285896Y-13457984D02*
X13304944Y-13467508D01*
X13304944Y-13467508D02*
X13314467Y-13477031D01*
X13314467Y-13477031D02*
X13323991Y-13496079D01*
X13323991Y-13496079D02*
X13333515Y-13534174D01*
X13333515Y-13534174D02*
X13333515Y-13581793D01*
X13333515Y-13581793D02*
X13323991Y-13619888D01*
X13323991Y-13619888D02*
X13314467Y-13638936D01*
X13314467Y-13638936D02*
X13304944Y-13648460D01*
X13304944Y-13648460D02*
X13285896Y-13657984D01*
X13285896Y-13657984D02*
X13266848Y-13657984D01*
X13266848Y-13657984D02*
X13247801Y-13648460D01*
X13247801Y-13648460D02*
X13238277Y-13638936D01*
X13238277Y-13638936D02*
X13228753Y-13619888D01*
X13228753Y-13619888D02*
X13219229Y-13581793D01*
X13219229Y-13581793D02*
X13219229Y-13534174D01*
X13219229Y-13534174D02*
X13228753Y-13496079D01*
X13228753Y-13496079D02*
X13238277Y-13477031D01*
X13238277Y-13477031D02*
X13247801Y-13467508D01*
X13247801Y-13467508D02*
X13266848Y-13457984D01*
X13400182Y-13457984D02*
X13523991Y-13457984D01*
X13523991Y-13457984D02*
X13457325Y-13534174D01*
X13457325Y-13534174D02*
X13485896Y-13534174D01*
X13485896Y-13534174D02*
X13504944Y-13543698D01*
X13504944Y-13543698D02*
X13514467Y-13553222D01*
X13514467Y-13553222D02*
X13523991Y-13572269D01*
X13523991Y-13572269D02*
X13523991Y-13619888D01*
X13523991Y-13619888D02*
X13514467Y-13638936D01*
X13514467Y-13638936D02*
X13504944Y-13648460D01*
X13504944Y-13648460D02*
X13485896Y-13657984D01*
X13485896Y-13657984D02*
X13428753Y-13657984D01*
X13428753Y-13657984D02*
X13409706Y-13648460D01*
X13409706Y-13648460D02*
X13400182Y-13638936D01*
X13714467Y-13657984D02*
X13600182Y-13657984D01*
X13657325Y-13657984D02*
X13657325Y-13457984D01*
X13657325Y-13457984D02*
X13638277Y-13486555D01*
X13638277Y-13486555D02*
X13619229Y-13505603D01*
X13619229Y-13505603D02*
X13600182Y-13515127D01*
X13895420Y-13457984D02*
X13800182Y-13457984D01*
X13800182Y-13457984D02*
X13790658Y-13553222D01*
X13790658Y-13553222D02*
X13800182Y-13543698D01*
X13800182Y-13543698D02*
X13819229Y-13534174D01*
X13819229Y-13534174D02*
X13866848Y-13534174D01*
X13866848Y-13534174D02*
X13885896Y-13543698D01*
X13885896Y-13543698D02*
X13895420Y-13553222D01*
X13895420Y-13553222D02*
X13904944Y-13572269D01*
X13904944Y-13572269D02*
X13904944Y-13619888D01*
X13904944Y-13619888D02*
X13895420Y-13638936D01*
X13895420Y-13638936D02*
X13885896Y-13648460D01*
X13885896Y-13648460D02*
X13866848Y-13657984D01*
X13866848Y-13657984D02*
X13819229Y-13657984D01*
X13819229Y-13657984D02*
X13800182Y-13648460D01*
X13800182Y-13648460D02*
X13790658Y-13638936D01*
X13981134Y-13457984D02*
X13981134Y-13496079D01*
X14057325Y-13457984D02*
X14057325Y-13496079D01*
X14352563Y-13734174D02*
X14343039Y-13724650D01*
X14343039Y-13724650D02*
X14323991Y-13696079D01*
X14323991Y-13696079D02*
X14314468Y-13677031D01*
X14314468Y-13677031D02*
X14304944Y-13648460D01*
X14304944Y-13648460D02*
X14295420Y-13600841D01*
X14295420Y-13600841D02*
X14295420Y-13562746D01*
X14295420Y-13562746D02*
X14304944Y-13515127D01*
X14304944Y-13515127D02*
X14314468Y-13486555D01*
X14314468Y-13486555D02*
X14323991Y-13467508D01*
X14323991Y-13467508D02*
X14343039Y-13438936D01*
X14343039Y-13438936D02*
X14352563Y-13429412D01*
X14409706Y-13457984D02*
X14533515Y-13457984D01*
X14533515Y-13457984D02*
X14466848Y-13534174D01*
X14466848Y-13534174D02*
X14495420Y-13534174D01*
X14495420Y-13534174D02*
X14514468Y-13543698D01*
X14514468Y-13543698D02*
X14523991Y-13553222D01*
X14523991Y-13553222D02*
X14533515Y-13572269D01*
X14533515Y-13572269D02*
X14533515Y-13619888D01*
X14533515Y-13619888D02*
X14523991Y-13638936D01*
X14523991Y-13638936D02*
X14514468Y-13648460D01*
X14514468Y-13648460D02*
X14495420Y-13657984D01*
X14495420Y-13657984D02*
X14438277Y-13657984D01*
X14438277Y-13657984D02*
X14419229Y-13648460D01*
X14419229Y-13648460D02*
X14409706Y-13638936D01*
X14704944Y-13524650D02*
X14704944Y-13657984D01*
X14657325Y-13448460D02*
X14609706Y-13591317D01*
X14609706Y-13591317D02*
X14733515Y-13591317D01*
X14962087Y-13657984D02*
X14962087Y-13457984D01*
X15047801Y-13657984D02*
X15047801Y-13553222D01*
X15047801Y-13553222D02*
X15038277Y-13534174D01*
X15038277Y-13534174D02*
X15019230Y-13524650D01*
X15019230Y-13524650D02*
X14990658Y-13524650D01*
X14990658Y-13524650D02*
X14971610Y-13534174D01*
X14971610Y-13534174D02*
X14962087Y-13543698D01*
X15171610Y-13657984D02*
X15152563Y-13648460D01*
X15152563Y-13648460D02*
X15143039Y-13638936D01*
X15143039Y-13638936D02*
X15133515Y-13619888D01*
X15133515Y-13619888D02*
X15133515Y-13562746D01*
X15133515Y-13562746D02*
X15143039Y-13543698D01*
X15143039Y-13543698D02*
X15152563Y-13534174D01*
X15152563Y-13534174D02*
X15171610Y-13524650D01*
X15171610Y-13524650D02*
X15200182Y-13524650D01*
X15200182Y-13524650D02*
X15219230Y-13534174D01*
X15219230Y-13534174D02*
X15228753Y-13543698D01*
X15228753Y-13543698D02*
X15238277Y-13562746D01*
X15238277Y-13562746D02*
X15238277Y-13619888D01*
X15238277Y-13619888D02*
X15228753Y-13638936D01*
X15228753Y-13638936D02*
X15219230Y-13648460D01*
X15219230Y-13648460D02*
X15200182Y-13657984D01*
X15200182Y-13657984D02*
X15171610Y-13657984D01*
X15352563Y-13657984D02*
X15333515Y-13648460D01*
X15333515Y-13648460D02*
X15323991Y-13629412D01*
X15323991Y-13629412D02*
X15323991Y-13457984D01*
X15504944Y-13648460D02*
X15485896Y-13657984D01*
X15485896Y-13657984D02*
X15447801Y-13657984D01*
X15447801Y-13657984D02*
X15428753Y-13648460D01*
X15428753Y-13648460D02*
X15419230Y-13629412D01*
X15419230Y-13629412D02*
X15419230Y-13553222D01*
X15419230Y-13553222D02*
X15428753Y-13534174D01*
X15428753Y-13534174D02*
X15447801Y-13524650D01*
X15447801Y-13524650D02*
X15485896Y-13524650D01*
X15485896Y-13524650D02*
X15504944Y-13534174D01*
X15504944Y-13534174D02*
X15514468Y-13553222D01*
X15514468Y-13553222D02*
X15514468Y-13572269D01*
X15514468Y-13572269D02*
X15419230Y-13591317D01*
X15590658Y-13648460D02*
X15609706Y-13657984D01*
X15609706Y-13657984D02*
X15647801Y-13657984D01*
X15647801Y-13657984D02*
X15666849Y-13648460D01*
X15666849Y-13648460D02*
X15676372Y-13629412D01*
X15676372Y-13629412D02*
X15676372Y-13619888D01*
X15676372Y-13619888D02*
X15666849Y-13600841D01*
X15666849Y-13600841D02*
X15647801Y-13591317D01*
X15647801Y-13591317D02*
X15619230Y-13591317D01*
X15619230Y-13591317D02*
X15600182Y-13581793D01*
X15600182Y-13581793D02*
X15590658Y-13562746D01*
X15590658Y-13562746D02*
X15590658Y-13553222D01*
X15590658Y-13553222D02*
X15600182Y-13534174D01*
X15600182Y-13534174D02*
X15619230Y-13524650D01*
X15619230Y-13524650D02*
X15647801Y-13524650D01*
X15647801Y-13524650D02*
X15666849Y-13534174D01*
X15743039Y-13734174D02*
X15752563Y-13724650D01*
X15752563Y-13724650D02*
X15771611Y-13696079D01*
X15771611Y-13696079D02*
X15781134Y-13677031D01*
X15781134Y-13677031D02*
X15790658Y-13648460D01*
X15790658Y-13648460D02*
X15800182Y-13600841D01*
X15800182Y-13600841D02*
X15800182Y-13562746D01*
X15800182Y-13562746D02*
X15790658Y-13515127D01*
X15790658Y-13515127D02*
X15781134Y-13486555D01*
X15781134Y-13486555D02*
X15771611Y-13467508D01*
X15771611Y-13467508D02*
X15752563Y-13438936D01*
X15752563Y-13438936D02*
X15743039Y-13429412D01*
D12*
X10727500Y-13780500D02*
X10727500Y-13880500D01*
X10677500Y-13830500D02*
X10777500Y-13830500D01*
D11*
X11143039Y-13921984D02*
X11028753Y-13921984D01*
X11085896Y-13921984D02*
X11085896Y-13721984D01*
X11085896Y-13721984D02*
X11066848Y-13750555D01*
X11066848Y-13750555D02*
X11047801Y-13769603D01*
X11047801Y-13769603D02*
X11028753Y-13779127D01*
X11228753Y-13902936D02*
X11238277Y-13912460D01*
X11238277Y-13912460D02*
X11228753Y-13921984D01*
X11228753Y-13921984D02*
X11219229Y-13912460D01*
X11219229Y-13912460D02*
X11228753Y-13902936D01*
X11228753Y-13902936D02*
X11228753Y-13921984D01*
X11362086Y-13721984D02*
X11381134Y-13721984D01*
X11381134Y-13721984D02*
X11400182Y-13731508D01*
X11400182Y-13731508D02*
X11409705Y-13741031D01*
X11409705Y-13741031D02*
X11419229Y-13760079D01*
X11419229Y-13760079D02*
X11428753Y-13798174D01*
X11428753Y-13798174D02*
X11428753Y-13845793D01*
X11428753Y-13845793D02*
X11419229Y-13883888D01*
X11419229Y-13883888D02*
X11409705Y-13902936D01*
X11409705Y-13902936D02*
X11400182Y-13912460D01*
X11400182Y-13912460D02*
X11381134Y-13921984D01*
X11381134Y-13921984D02*
X11362086Y-13921984D01*
X11362086Y-13921984D02*
X11343039Y-13912460D01*
X11343039Y-13912460D02*
X11333515Y-13902936D01*
X11333515Y-13902936D02*
X11323991Y-13883888D01*
X11323991Y-13883888D02*
X11314467Y-13845793D01*
X11314467Y-13845793D02*
X11314467Y-13798174D01*
X11314467Y-13798174D02*
X11323991Y-13760079D01*
X11323991Y-13760079D02*
X11333515Y-13741031D01*
X11333515Y-13741031D02*
X11343039Y-13731508D01*
X11343039Y-13731508D02*
X11362086Y-13721984D01*
X11552562Y-13721984D02*
X11571610Y-13721984D01*
X11571610Y-13721984D02*
X11590658Y-13731508D01*
X11590658Y-13731508D02*
X11600182Y-13741031D01*
X11600182Y-13741031D02*
X11609705Y-13760079D01*
X11609705Y-13760079D02*
X11619229Y-13798174D01*
X11619229Y-13798174D02*
X11619229Y-13845793D01*
X11619229Y-13845793D02*
X11609705Y-13883888D01*
X11609705Y-13883888D02*
X11600182Y-13902936D01*
X11600182Y-13902936D02*
X11590658Y-13912460D01*
X11590658Y-13912460D02*
X11571610Y-13921984D01*
X11571610Y-13921984D02*
X11552562Y-13921984D01*
X11552562Y-13921984D02*
X11533515Y-13912460D01*
X11533515Y-13912460D02*
X11523991Y-13902936D01*
X11523991Y-13902936D02*
X11514467Y-13883888D01*
X11514467Y-13883888D02*
X11504943Y-13845793D01*
X11504943Y-13845793D02*
X11504943Y-13798174D01*
X11504943Y-13798174D02*
X11514467Y-13760079D01*
X11514467Y-13760079D02*
X11523991Y-13741031D01*
X11523991Y-13741031D02*
X11533515Y-13731508D01*
X11533515Y-13731508D02*
X11552562Y-13721984D01*
X11743039Y-13721984D02*
X11762086Y-13721984D01*
X11762086Y-13721984D02*
X11781134Y-13731508D01*
X11781134Y-13731508D02*
X11790658Y-13741031D01*
X11790658Y-13741031D02*
X11800182Y-13760079D01*
X11800182Y-13760079D02*
X11809705Y-13798174D01*
X11809705Y-13798174D02*
X11809705Y-13845793D01*
X11809705Y-13845793D02*
X11800182Y-13883888D01*
X11800182Y-13883888D02*
X11790658Y-13902936D01*
X11790658Y-13902936D02*
X11781134Y-13912460D01*
X11781134Y-13912460D02*
X11762086Y-13921984D01*
X11762086Y-13921984D02*
X11743039Y-13921984D01*
X11743039Y-13921984D02*
X11723991Y-13912460D01*
X11723991Y-13912460D02*
X11714467Y-13902936D01*
X11714467Y-13902936D02*
X11704943Y-13883888D01*
X11704943Y-13883888D02*
X11695420Y-13845793D01*
X11695420Y-13845793D02*
X11695420Y-13798174D01*
X11695420Y-13798174D02*
X11704943Y-13760079D01*
X11704943Y-13760079D02*
X11714467Y-13741031D01*
X11714467Y-13741031D02*
X11723991Y-13731508D01*
X11723991Y-13731508D02*
X11743039Y-13721984D01*
X11895420Y-13921984D02*
X11895420Y-13788650D01*
X11895420Y-13807698D02*
X11904943Y-13798174D01*
X11904943Y-13798174D02*
X11923991Y-13788650D01*
X11923991Y-13788650D02*
X11952563Y-13788650D01*
X11952563Y-13788650D02*
X11971610Y-13798174D01*
X11971610Y-13798174D02*
X11981134Y-13817222D01*
X11981134Y-13817222D02*
X11981134Y-13921984D01*
X11981134Y-13817222D02*
X11990658Y-13798174D01*
X11990658Y-13798174D02*
X12009705Y-13788650D01*
X12009705Y-13788650D02*
X12038277Y-13788650D01*
X12038277Y-13788650D02*
X12057324Y-13798174D01*
X12057324Y-13798174D02*
X12066848Y-13817222D01*
X12066848Y-13817222D02*
X12066848Y-13921984D01*
X12162086Y-13921984D02*
X12162086Y-13788650D01*
X12162086Y-13807698D02*
X12171610Y-13798174D01*
X12171610Y-13798174D02*
X12190658Y-13788650D01*
X12190658Y-13788650D02*
X12219229Y-13788650D01*
X12219229Y-13788650D02*
X12238277Y-13798174D01*
X12238277Y-13798174D02*
X12247801Y-13817222D01*
X12247801Y-13817222D02*
X12247801Y-13921984D01*
X12247801Y-13817222D02*
X12257324Y-13798174D01*
X12257324Y-13798174D02*
X12276372Y-13788650D01*
X12276372Y-13788650D02*
X12304943Y-13788650D01*
X12304943Y-13788650D02*
X12323991Y-13798174D01*
X12323991Y-13798174D02*
X12333515Y-13817222D01*
X12333515Y-13817222D02*
X12333515Y-13921984D01*
X12723991Y-13712460D02*
X12552563Y-13969603D01*
X12981134Y-13721984D02*
X13000182Y-13721984D01*
X13000182Y-13721984D02*
X13019229Y-13731508D01*
X13019229Y-13731508D02*
X13028753Y-13741031D01*
X13028753Y-13741031D02*
X13038277Y-13760079D01*
X13038277Y-13760079D02*
X13047801Y-13798174D01*
X13047801Y-13798174D02*
X13047801Y-13845793D01*
X13047801Y-13845793D02*
X13038277Y-13883888D01*
X13038277Y-13883888D02*
X13028753Y-13902936D01*
X13028753Y-13902936D02*
X13019229Y-13912460D01*
X13019229Y-13912460D02*
X13000182Y-13921984D01*
X13000182Y-13921984D02*
X12981134Y-13921984D01*
X12981134Y-13921984D02*
X12962086Y-13912460D01*
X12962086Y-13912460D02*
X12952563Y-13902936D01*
X12952563Y-13902936D02*
X12943039Y-13883888D01*
X12943039Y-13883888D02*
X12933515Y-13845793D01*
X12933515Y-13845793D02*
X12933515Y-13798174D01*
X12933515Y-13798174D02*
X12943039Y-13760079D01*
X12943039Y-13760079D02*
X12952563Y-13741031D01*
X12952563Y-13741031D02*
X12962086Y-13731508D01*
X12962086Y-13731508D02*
X12981134Y-13721984D01*
X13133515Y-13902936D02*
X13143039Y-13912460D01*
X13143039Y-13912460D02*
X13133515Y-13921984D01*
X13133515Y-13921984D02*
X13123991Y-13912460D01*
X13123991Y-13912460D02*
X13133515Y-13902936D01*
X13133515Y-13902936D02*
X13133515Y-13921984D01*
X13266848Y-13721984D02*
X13285896Y-13721984D01*
X13285896Y-13721984D02*
X13304944Y-13731508D01*
X13304944Y-13731508D02*
X13314467Y-13741031D01*
X13314467Y-13741031D02*
X13323991Y-13760079D01*
X13323991Y-13760079D02*
X13333515Y-13798174D01*
X13333515Y-13798174D02*
X13333515Y-13845793D01*
X13333515Y-13845793D02*
X13323991Y-13883888D01*
X13323991Y-13883888D02*
X13314467Y-13902936D01*
X13314467Y-13902936D02*
X13304944Y-13912460D01*
X13304944Y-13912460D02*
X13285896Y-13921984D01*
X13285896Y-13921984D02*
X13266848Y-13921984D01*
X13266848Y-13921984D02*
X13247801Y-13912460D01*
X13247801Y-13912460D02*
X13238277Y-13902936D01*
X13238277Y-13902936D02*
X13228753Y-13883888D01*
X13228753Y-13883888D02*
X13219229Y-13845793D01*
X13219229Y-13845793D02*
X13219229Y-13798174D01*
X13219229Y-13798174D02*
X13228753Y-13760079D01*
X13228753Y-13760079D02*
X13238277Y-13741031D01*
X13238277Y-13741031D02*
X13247801Y-13731508D01*
X13247801Y-13731508D02*
X13266848Y-13721984D01*
X13400182Y-13721984D02*
X13523991Y-13721984D01*
X13523991Y-13721984D02*
X13457325Y-13798174D01*
X13457325Y-13798174D02*
X13485896Y-13798174D01*
X13485896Y-13798174D02*
X13504944Y-13807698D01*
X13504944Y-13807698D02*
X13514467Y-13817222D01*
X13514467Y-13817222D02*
X13523991Y-13836269D01*
X13523991Y-13836269D02*
X13523991Y-13883888D01*
X13523991Y-13883888D02*
X13514467Y-13902936D01*
X13514467Y-13902936D02*
X13504944Y-13912460D01*
X13504944Y-13912460D02*
X13485896Y-13921984D01*
X13485896Y-13921984D02*
X13428753Y-13921984D01*
X13428753Y-13921984D02*
X13409706Y-13912460D01*
X13409706Y-13912460D02*
X13400182Y-13902936D01*
X13619229Y-13921984D02*
X13657325Y-13921984D01*
X13657325Y-13921984D02*
X13676372Y-13912460D01*
X13676372Y-13912460D02*
X13685896Y-13902936D01*
X13685896Y-13902936D02*
X13704944Y-13874365D01*
X13704944Y-13874365D02*
X13714467Y-13836269D01*
X13714467Y-13836269D02*
X13714467Y-13760079D01*
X13714467Y-13760079D02*
X13704944Y-13741031D01*
X13704944Y-13741031D02*
X13695420Y-13731508D01*
X13695420Y-13731508D02*
X13676372Y-13721984D01*
X13676372Y-13721984D02*
X13638277Y-13721984D01*
X13638277Y-13721984D02*
X13619229Y-13731508D01*
X13619229Y-13731508D02*
X13609706Y-13741031D01*
X13609706Y-13741031D02*
X13600182Y-13760079D01*
X13600182Y-13760079D02*
X13600182Y-13807698D01*
X13600182Y-13807698D02*
X13609706Y-13826746D01*
X13609706Y-13826746D02*
X13619229Y-13836269D01*
X13619229Y-13836269D02*
X13638277Y-13845793D01*
X13638277Y-13845793D02*
X13676372Y-13845793D01*
X13676372Y-13845793D02*
X13695420Y-13836269D01*
X13695420Y-13836269D02*
X13704944Y-13826746D01*
X13704944Y-13826746D02*
X13714467Y-13807698D01*
X13885896Y-13788650D02*
X13885896Y-13921984D01*
X13838277Y-13712460D02*
X13790658Y-13855317D01*
X13790658Y-13855317D02*
X13914467Y-13855317D01*
X13981134Y-13721984D02*
X13981134Y-13760079D01*
X14057325Y-13721984D02*
X14057325Y-13760079D01*
X14352563Y-13998174D02*
X14343039Y-13988650D01*
X14343039Y-13988650D02*
X14323991Y-13960079D01*
X14323991Y-13960079D02*
X14314468Y-13941031D01*
X14314468Y-13941031D02*
X14304944Y-13912460D01*
X14304944Y-13912460D02*
X14295420Y-13864841D01*
X14295420Y-13864841D02*
X14295420Y-13826746D01*
X14295420Y-13826746D02*
X14304944Y-13779127D01*
X14304944Y-13779127D02*
X14314468Y-13750555D01*
X14314468Y-13750555D02*
X14323991Y-13731508D01*
X14323991Y-13731508D02*
X14343039Y-13702936D01*
X14343039Y-13702936D02*
X14352563Y-13693412D01*
X14419229Y-13741031D02*
X14428753Y-13731508D01*
X14428753Y-13731508D02*
X14447801Y-13721984D01*
X14447801Y-13721984D02*
X14495420Y-13721984D01*
X14495420Y-13721984D02*
X14514468Y-13731508D01*
X14514468Y-13731508D02*
X14523991Y-13741031D01*
X14523991Y-13741031D02*
X14533515Y-13760079D01*
X14533515Y-13760079D02*
X14533515Y-13779127D01*
X14533515Y-13779127D02*
X14523991Y-13807698D01*
X14523991Y-13807698D02*
X14409706Y-13921984D01*
X14409706Y-13921984D02*
X14533515Y-13921984D01*
X14771610Y-13921984D02*
X14771610Y-13721984D01*
X14857325Y-13921984D02*
X14857325Y-13817222D01*
X14857325Y-13817222D02*
X14847801Y-13798174D01*
X14847801Y-13798174D02*
X14828753Y-13788650D01*
X14828753Y-13788650D02*
X14800182Y-13788650D01*
X14800182Y-13788650D02*
X14781134Y-13798174D01*
X14781134Y-13798174D02*
X14771610Y-13807698D01*
X14981134Y-13921984D02*
X14962087Y-13912460D01*
X14962087Y-13912460D02*
X14952563Y-13902936D01*
X14952563Y-13902936D02*
X14943039Y-13883888D01*
X14943039Y-13883888D02*
X14943039Y-13826746D01*
X14943039Y-13826746D02*
X14952563Y-13807698D01*
X14952563Y-13807698D02*
X14962087Y-13798174D01*
X14962087Y-13798174D02*
X14981134Y-13788650D01*
X14981134Y-13788650D02*
X15009706Y-13788650D01*
X15009706Y-13788650D02*
X15028753Y-13798174D01*
X15028753Y-13798174D02*
X15038277Y-13807698D01*
X15038277Y-13807698D02*
X15047801Y-13826746D01*
X15047801Y-13826746D02*
X15047801Y-13883888D01*
X15047801Y-13883888D02*
X15038277Y-13902936D01*
X15038277Y-13902936D02*
X15028753Y-13912460D01*
X15028753Y-13912460D02*
X15009706Y-13921984D01*
X15009706Y-13921984D02*
X14981134Y-13921984D01*
X15162087Y-13921984D02*
X15143039Y-13912460D01*
X15143039Y-13912460D02*
X15133515Y-13893412D01*
X15133515Y-13893412D02*
X15133515Y-13721984D01*
X15314468Y-13912460D02*
X15295420Y-13921984D01*
X15295420Y-13921984D02*
X15257325Y-13921984D01*
X15257325Y-13921984D02*
X15238277Y-13912460D01*
X15238277Y-13912460D02*
X15228753Y-13893412D01*
X15228753Y-13893412D02*
X15228753Y-13817222D01*
X15228753Y-13817222D02*
X15238277Y-13798174D01*
X15238277Y-13798174D02*
X15257325Y-13788650D01*
X15257325Y-13788650D02*
X15295420Y-13788650D01*
X15295420Y-13788650D02*
X15314468Y-13798174D01*
X15314468Y-13798174D02*
X15323991Y-13817222D01*
X15323991Y-13817222D02*
X15323991Y-13836269D01*
X15323991Y-13836269D02*
X15228753Y-13855317D01*
X15400182Y-13912460D02*
X15419230Y-13921984D01*
X15419230Y-13921984D02*
X15457325Y-13921984D01*
X15457325Y-13921984D02*
X15476372Y-13912460D01*
X15476372Y-13912460D02*
X15485896Y-13893412D01*
X15485896Y-13893412D02*
X15485896Y-13883888D01*
X15485896Y-13883888D02*
X15476372Y-13864841D01*
X15476372Y-13864841D02*
X15457325Y-13855317D01*
X15457325Y-13855317D02*
X15428753Y-13855317D01*
X15428753Y-13855317D02*
X15409706Y-13845793D01*
X15409706Y-13845793D02*
X15400182Y-13826746D01*
X15400182Y-13826746D02*
X15400182Y-13817222D01*
X15400182Y-13817222D02*
X15409706Y-13798174D01*
X15409706Y-13798174D02*
X15428753Y-13788650D01*
X15428753Y-13788650D02*
X15457325Y-13788650D01*
X15457325Y-13788650D02*
X15476372Y-13798174D01*
X15552563Y-13998174D02*
X15562087Y-13988650D01*
X15562087Y-13988650D02*
X15581134Y-13960079D01*
X15581134Y-13960079D02*
X15590658Y-13941031D01*
X15590658Y-13941031D02*
X15600182Y-13912460D01*
X15600182Y-13912460D02*
X15609706Y-13864841D01*
X15609706Y-13864841D02*
X15609706Y-13826746D01*
X15609706Y-13826746D02*
X15600182Y-13779127D01*
X15600182Y-13779127D02*
X15590658Y-13750555D01*
X15590658Y-13750555D02*
X15581134Y-13731508D01*
X15581134Y-13731508D02*
X15562087Y-13702936D01*
X15562087Y-13702936D02*
X15552563Y-13693412D01*
D12*
X10762856Y-14129856D02*
X10762856Y-14059144D01*
X10692144Y-14059144D01*
X10692144Y-14129856D01*
X10762856Y-14129856D01*
D11*
X11143039Y-14185984D02*
X11028753Y-14185984D01*
X11085896Y-14185984D02*
X11085896Y-13985984D01*
X11085896Y-13985984D02*
X11066848Y-14014555D01*
X11066848Y-14014555D02*
X11047801Y-14033603D01*
X11047801Y-14033603D02*
X11028753Y-14043127D01*
X11228753Y-14166936D02*
X11238277Y-14176460D01*
X11238277Y-14176460D02*
X11228753Y-14185984D01*
X11228753Y-14185984D02*
X11219229Y-14176460D01*
X11219229Y-14176460D02*
X11228753Y-14166936D01*
X11228753Y-14166936D02*
X11228753Y-14185984D01*
X11362086Y-13985984D02*
X11381134Y-13985984D01*
X11381134Y-13985984D02*
X11400182Y-13995508D01*
X11400182Y-13995508D02*
X11409705Y-14005031D01*
X11409705Y-14005031D02*
X11419229Y-14024079D01*
X11419229Y-14024079D02*
X11428753Y-14062174D01*
X11428753Y-14062174D02*
X11428753Y-14109793D01*
X11428753Y-14109793D02*
X11419229Y-14147888D01*
X11419229Y-14147888D02*
X11409705Y-14166936D01*
X11409705Y-14166936D02*
X11400182Y-14176460D01*
X11400182Y-14176460D02*
X11381134Y-14185984D01*
X11381134Y-14185984D02*
X11362086Y-14185984D01*
X11362086Y-14185984D02*
X11343039Y-14176460D01*
X11343039Y-14176460D02*
X11333515Y-14166936D01*
X11333515Y-14166936D02*
X11323991Y-14147888D01*
X11323991Y-14147888D02*
X11314467Y-14109793D01*
X11314467Y-14109793D02*
X11314467Y-14062174D01*
X11314467Y-14062174D02*
X11323991Y-14024079D01*
X11323991Y-14024079D02*
X11333515Y-14005031D01*
X11333515Y-14005031D02*
X11343039Y-13995508D01*
X11343039Y-13995508D02*
X11362086Y-13985984D01*
X11552562Y-13985984D02*
X11571610Y-13985984D01*
X11571610Y-13985984D02*
X11590658Y-13995508D01*
X11590658Y-13995508D02*
X11600182Y-14005031D01*
X11600182Y-14005031D02*
X11609705Y-14024079D01*
X11609705Y-14024079D02*
X11619229Y-14062174D01*
X11619229Y-14062174D02*
X11619229Y-14109793D01*
X11619229Y-14109793D02*
X11609705Y-14147888D01*
X11609705Y-14147888D02*
X11600182Y-14166936D01*
X11600182Y-14166936D02*
X11590658Y-14176460D01*
X11590658Y-14176460D02*
X11571610Y-14185984D01*
X11571610Y-14185984D02*
X11552562Y-14185984D01*
X11552562Y-14185984D02*
X11533515Y-14176460D01*
X11533515Y-14176460D02*
X11523991Y-14166936D01*
X11523991Y-14166936D02*
X11514467Y-14147888D01*
X11514467Y-14147888D02*
X11504943Y-14109793D01*
X11504943Y-14109793D02*
X11504943Y-14062174D01*
X11504943Y-14062174D02*
X11514467Y-14024079D01*
X11514467Y-14024079D02*
X11523991Y-14005031D01*
X11523991Y-14005031D02*
X11533515Y-13995508D01*
X11533515Y-13995508D02*
X11552562Y-13985984D01*
X11743039Y-13985984D02*
X11762086Y-13985984D01*
X11762086Y-13985984D02*
X11781134Y-13995508D01*
X11781134Y-13995508D02*
X11790658Y-14005031D01*
X11790658Y-14005031D02*
X11800182Y-14024079D01*
X11800182Y-14024079D02*
X11809705Y-14062174D01*
X11809705Y-14062174D02*
X11809705Y-14109793D01*
X11809705Y-14109793D02*
X11800182Y-14147888D01*
X11800182Y-14147888D02*
X11790658Y-14166936D01*
X11790658Y-14166936D02*
X11781134Y-14176460D01*
X11781134Y-14176460D02*
X11762086Y-14185984D01*
X11762086Y-14185984D02*
X11743039Y-14185984D01*
X11743039Y-14185984D02*
X11723991Y-14176460D01*
X11723991Y-14176460D02*
X11714467Y-14166936D01*
X11714467Y-14166936D02*
X11704943Y-14147888D01*
X11704943Y-14147888D02*
X11695420Y-14109793D01*
X11695420Y-14109793D02*
X11695420Y-14062174D01*
X11695420Y-14062174D02*
X11704943Y-14024079D01*
X11704943Y-14024079D02*
X11714467Y-14005031D01*
X11714467Y-14005031D02*
X11723991Y-13995508D01*
X11723991Y-13995508D02*
X11743039Y-13985984D01*
X11895420Y-14185984D02*
X11895420Y-14052650D01*
X11895420Y-14071698D02*
X11904943Y-14062174D01*
X11904943Y-14062174D02*
X11923991Y-14052650D01*
X11923991Y-14052650D02*
X11952563Y-14052650D01*
X11952563Y-14052650D02*
X11971610Y-14062174D01*
X11971610Y-14062174D02*
X11981134Y-14081222D01*
X11981134Y-14081222D02*
X11981134Y-14185984D01*
X11981134Y-14081222D02*
X11990658Y-14062174D01*
X11990658Y-14062174D02*
X12009705Y-14052650D01*
X12009705Y-14052650D02*
X12038277Y-14052650D01*
X12038277Y-14052650D02*
X12057324Y-14062174D01*
X12057324Y-14062174D02*
X12066848Y-14081222D01*
X12066848Y-14081222D02*
X12066848Y-14185984D01*
X12162086Y-14185984D02*
X12162086Y-14052650D01*
X12162086Y-14071698D02*
X12171610Y-14062174D01*
X12171610Y-14062174D02*
X12190658Y-14052650D01*
X12190658Y-14052650D02*
X12219229Y-14052650D01*
X12219229Y-14052650D02*
X12238277Y-14062174D01*
X12238277Y-14062174D02*
X12247801Y-14081222D01*
X12247801Y-14081222D02*
X12247801Y-14185984D01*
X12247801Y-14081222D02*
X12257324Y-14062174D01*
X12257324Y-14062174D02*
X12276372Y-14052650D01*
X12276372Y-14052650D02*
X12304943Y-14052650D01*
X12304943Y-14052650D02*
X12323991Y-14062174D01*
X12323991Y-14062174D02*
X12333515Y-14081222D01*
X12333515Y-14081222D02*
X12333515Y-14185984D01*
X12723991Y-13976460D02*
X12552563Y-14233603D01*
X12981134Y-13985984D02*
X13000182Y-13985984D01*
X13000182Y-13985984D02*
X13019229Y-13995508D01*
X13019229Y-13995508D02*
X13028753Y-14005031D01*
X13028753Y-14005031D02*
X13038277Y-14024079D01*
X13038277Y-14024079D02*
X13047801Y-14062174D01*
X13047801Y-14062174D02*
X13047801Y-14109793D01*
X13047801Y-14109793D02*
X13038277Y-14147888D01*
X13038277Y-14147888D02*
X13028753Y-14166936D01*
X13028753Y-14166936D02*
X13019229Y-14176460D01*
X13019229Y-14176460D02*
X13000182Y-14185984D01*
X13000182Y-14185984D02*
X12981134Y-14185984D01*
X12981134Y-14185984D02*
X12962086Y-14176460D01*
X12962086Y-14176460D02*
X12952563Y-14166936D01*
X12952563Y-14166936D02*
X12943039Y-14147888D01*
X12943039Y-14147888D02*
X12933515Y-14109793D01*
X12933515Y-14109793D02*
X12933515Y-14062174D01*
X12933515Y-14062174D02*
X12943039Y-14024079D01*
X12943039Y-14024079D02*
X12952563Y-14005031D01*
X12952563Y-14005031D02*
X12962086Y-13995508D01*
X12962086Y-13995508D02*
X12981134Y-13985984D01*
X13133515Y-14166936D02*
X13143039Y-14176460D01*
X13143039Y-14176460D02*
X13133515Y-14185984D01*
X13133515Y-14185984D02*
X13123991Y-14176460D01*
X13123991Y-14176460D02*
X13133515Y-14166936D01*
X13133515Y-14166936D02*
X13133515Y-14185984D01*
X13266848Y-13985984D02*
X13285896Y-13985984D01*
X13285896Y-13985984D02*
X13304944Y-13995508D01*
X13304944Y-13995508D02*
X13314467Y-14005031D01*
X13314467Y-14005031D02*
X13323991Y-14024079D01*
X13323991Y-14024079D02*
X13333515Y-14062174D01*
X13333515Y-14062174D02*
X13333515Y-14109793D01*
X13333515Y-14109793D02*
X13323991Y-14147888D01*
X13323991Y-14147888D02*
X13314467Y-14166936D01*
X13314467Y-14166936D02*
X13304944Y-14176460D01*
X13304944Y-14176460D02*
X13285896Y-14185984D01*
X13285896Y-14185984D02*
X13266848Y-14185984D01*
X13266848Y-14185984D02*
X13247801Y-14176460D01*
X13247801Y-14176460D02*
X13238277Y-14166936D01*
X13238277Y-14166936D02*
X13228753Y-14147888D01*
X13228753Y-14147888D02*
X13219229Y-14109793D01*
X13219229Y-14109793D02*
X13219229Y-14062174D01*
X13219229Y-14062174D02*
X13228753Y-14024079D01*
X13228753Y-14024079D02*
X13238277Y-14005031D01*
X13238277Y-14005031D02*
X13247801Y-13995508D01*
X13247801Y-13995508D02*
X13266848Y-13985984D01*
X13400182Y-13985984D02*
X13523991Y-13985984D01*
X13523991Y-13985984D02*
X13457325Y-14062174D01*
X13457325Y-14062174D02*
X13485896Y-14062174D01*
X13485896Y-14062174D02*
X13504944Y-14071698D01*
X13504944Y-14071698D02*
X13514467Y-14081222D01*
X13514467Y-14081222D02*
X13523991Y-14100269D01*
X13523991Y-14100269D02*
X13523991Y-14147888D01*
X13523991Y-14147888D02*
X13514467Y-14166936D01*
X13514467Y-14166936D02*
X13504944Y-14176460D01*
X13504944Y-14176460D02*
X13485896Y-14185984D01*
X13485896Y-14185984D02*
X13428753Y-14185984D01*
X13428753Y-14185984D02*
X13409706Y-14176460D01*
X13409706Y-14176460D02*
X13400182Y-14166936D01*
X13619229Y-14185984D02*
X13657325Y-14185984D01*
X13657325Y-14185984D02*
X13676372Y-14176460D01*
X13676372Y-14176460D02*
X13685896Y-14166936D01*
X13685896Y-14166936D02*
X13704944Y-14138365D01*
X13704944Y-14138365D02*
X13714467Y-14100269D01*
X13714467Y-14100269D02*
X13714467Y-14024079D01*
X13714467Y-14024079D02*
X13704944Y-14005031D01*
X13704944Y-14005031D02*
X13695420Y-13995508D01*
X13695420Y-13995508D02*
X13676372Y-13985984D01*
X13676372Y-13985984D02*
X13638277Y-13985984D01*
X13638277Y-13985984D02*
X13619229Y-13995508D01*
X13619229Y-13995508D02*
X13609706Y-14005031D01*
X13609706Y-14005031D02*
X13600182Y-14024079D01*
X13600182Y-14024079D02*
X13600182Y-14071698D01*
X13600182Y-14071698D02*
X13609706Y-14090746D01*
X13609706Y-14090746D02*
X13619229Y-14100269D01*
X13619229Y-14100269D02*
X13638277Y-14109793D01*
X13638277Y-14109793D02*
X13676372Y-14109793D01*
X13676372Y-14109793D02*
X13695420Y-14100269D01*
X13695420Y-14100269D02*
X13704944Y-14090746D01*
X13704944Y-14090746D02*
X13714467Y-14071698D01*
X13885896Y-14052650D02*
X13885896Y-14185984D01*
X13838277Y-13976460D02*
X13790658Y-14119317D01*
X13790658Y-14119317D02*
X13914467Y-14119317D01*
X13981134Y-13985984D02*
X13981134Y-14024079D01*
X14057325Y-13985984D02*
X14057325Y-14024079D01*
X14352563Y-14262174D02*
X14343039Y-14252650D01*
X14343039Y-14252650D02*
X14323991Y-14224079D01*
X14323991Y-14224079D02*
X14314468Y-14205031D01*
X14314468Y-14205031D02*
X14304944Y-14176460D01*
X14304944Y-14176460D02*
X14295420Y-14128841D01*
X14295420Y-14128841D02*
X14295420Y-14090746D01*
X14295420Y-14090746D02*
X14304944Y-14043127D01*
X14304944Y-14043127D02*
X14314468Y-14014555D01*
X14314468Y-14014555D02*
X14323991Y-13995508D01*
X14323991Y-13995508D02*
X14343039Y-13966936D01*
X14343039Y-13966936D02*
X14352563Y-13957412D01*
X14438277Y-14185984D02*
X14476372Y-14185984D01*
X14476372Y-14185984D02*
X14495420Y-14176460D01*
X14495420Y-14176460D02*
X14504944Y-14166936D01*
X14504944Y-14166936D02*
X14523991Y-14138365D01*
X14523991Y-14138365D02*
X14533515Y-14100269D01*
X14533515Y-14100269D02*
X14533515Y-14024079D01*
X14533515Y-14024079D02*
X14523991Y-14005031D01*
X14523991Y-14005031D02*
X14514468Y-13995508D01*
X14514468Y-13995508D02*
X14495420Y-13985984D01*
X14495420Y-13985984D02*
X14457325Y-13985984D01*
X14457325Y-13985984D02*
X14438277Y-13995508D01*
X14438277Y-13995508D02*
X14428753Y-14005031D01*
X14428753Y-14005031D02*
X14419229Y-14024079D01*
X14419229Y-14024079D02*
X14419229Y-14071698D01*
X14419229Y-14071698D02*
X14428753Y-14090746D01*
X14428753Y-14090746D02*
X14438277Y-14100269D01*
X14438277Y-14100269D02*
X14457325Y-14109793D01*
X14457325Y-14109793D02*
X14495420Y-14109793D01*
X14495420Y-14109793D02*
X14514468Y-14100269D01*
X14514468Y-14100269D02*
X14523991Y-14090746D01*
X14523991Y-14090746D02*
X14533515Y-14071698D01*
X14771610Y-14185984D02*
X14771610Y-13985984D01*
X14857325Y-14185984D02*
X14857325Y-14081222D01*
X14857325Y-14081222D02*
X14847801Y-14062174D01*
X14847801Y-14062174D02*
X14828753Y-14052650D01*
X14828753Y-14052650D02*
X14800182Y-14052650D01*
X14800182Y-14052650D02*
X14781134Y-14062174D01*
X14781134Y-14062174D02*
X14771610Y-14071698D01*
X14981134Y-14185984D02*
X14962087Y-14176460D01*
X14962087Y-14176460D02*
X14952563Y-14166936D01*
X14952563Y-14166936D02*
X14943039Y-14147888D01*
X14943039Y-14147888D02*
X14943039Y-14090746D01*
X14943039Y-14090746D02*
X14952563Y-14071698D01*
X14952563Y-14071698D02*
X14962087Y-14062174D01*
X14962087Y-14062174D02*
X14981134Y-14052650D01*
X14981134Y-14052650D02*
X15009706Y-14052650D01*
X15009706Y-14052650D02*
X15028753Y-14062174D01*
X15028753Y-14062174D02*
X15038277Y-14071698D01*
X15038277Y-14071698D02*
X15047801Y-14090746D01*
X15047801Y-14090746D02*
X15047801Y-14147888D01*
X15047801Y-14147888D02*
X15038277Y-14166936D01*
X15038277Y-14166936D02*
X15028753Y-14176460D01*
X15028753Y-14176460D02*
X15009706Y-14185984D01*
X15009706Y-14185984D02*
X14981134Y-14185984D01*
X15162087Y-14185984D02*
X15143039Y-14176460D01*
X15143039Y-14176460D02*
X15133515Y-14157412D01*
X15133515Y-14157412D02*
X15133515Y-13985984D01*
X15314468Y-14176460D02*
X15295420Y-14185984D01*
X15295420Y-14185984D02*
X15257325Y-14185984D01*
X15257325Y-14185984D02*
X15238277Y-14176460D01*
X15238277Y-14176460D02*
X15228753Y-14157412D01*
X15228753Y-14157412D02*
X15228753Y-14081222D01*
X15228753Y-14081222D02*
X15238277Y-14062174D01*
X15238277Y-14062174D02*
X15257325Y-14052650D01*
X15257325Y-14052650D02*
X15295420Y-14052650D01*
X15295420Y-14052650D02*
X15314468Y-14062174D01*
X15314468Y-14062174D02*
X15323991Y-14081222D01*
X15323991Y-14081222D02*
X15323991Y-14100269D01*
X15323991Y-14100269D02*
X15228753Y-14119317D01*
X15400182Y-14176460D02*
X15419230Y-14185984D01*
X15419230Y-14185984D02*
X15457325Y-14185984D01*
X15457325Y-14185984D02*
X15476372Y-14176460D01*
X15476372Y-14176460D02*
X15485896Y-14157412D01*
X15485896Y-14157412D02*
X15485896Y-14147888D01*
X15485896Y-14147888D02*
X15476372Y-14128841D01*
X15476372Y-14128841D02*
X15457325Y-14119317D01*
X15457325Y-14119317D02*
X15428753Y-14119317D01*
X15428753Y-14119317D02*
X15409706Y-14109793D01*
X15409706Y-14109793D02*
X15400182Y-14090746D01*
X15400182Y-14090746D02*
X15400182Y-14081222D01*
X15400182Y-14081222D02*
X15409706Y-14062174D01*
X15409706Y-14062174D02*
X15428753Y-14052650D01*
X15428753Y-14052650D02*
X15457325Y-14052650D01*
X15457325Y-14052650D02*
X15476372Y-14062174D01*
X15552563Y-14262174D02*
X15562087Y-14252650D01*
X15562087Y-14252650D02*
X15581134Y-14224079D01*
X15581134Y-14224079D02*
X15590658Y-14205031D01*
X15590658Y-14205031D02*
X15600182Y-14176460D01*
X15600182Y-14176460D02*
X15609706Y-14128841D01*
X15609706Y-14128841D02*
X15609706Y-14090746D01*
X15609706Y-14090746D02*
X15600182Y-14043127D01*
X15600182Y-14043127D02*
X15590658Y-14014555D01*
X15590658Y-14014555D02*
X15581134Y-13995508D01*
X15581134Y-13995508D02*
X15562087Y-13966936D01*
X15562087Y-13966936D02*
X15552563Y-13957412D01*
D13*
X10717500Y-14418500D02*
X10777500Y-14358500D01*
X10717500Y-14298500D01*
X10657500Y-14358500D01*
X10717500Y-14418500D01*
D11*
X11143039Y-14449984D02*
X11028753Y-14449984D01*
X11085896Y-14449984D02*
X11085896Y-14249984D01*
X11085896Y-14249984D02*
X11066848Y-14278555D01*
X11066848Y-14278555D02*
X11047801Y-14297603D01*
X11047801Y-14297603D02*
X11028753Y-14307127D01*
X11228753Y-14430936D02*
X11238277Y-14440460D01*
X11238277Y-14440460D02*
X11228753Y-14449984D01*
X11228753Y-14449984D02*
X11219229Y-14440460D01*
X11219229Y-14440460D02*
X11228753Y-14430936D01*
X11228753Y-14430936D02*
X11228753Y-14449984D01*
X11314467Y-14269031D02*
X11323991Y-14259508D01*
X11323991Y-14259508D02*
X11343039Y-14249984D01*
X11343039Y-14249984D02*
X11390658Y-14249984D01*
X11390658Y-14249984D02*
X11409705Y-14259508D01*
X11409705Y-14259508D02*
X11419229Y-14269031D01*
X11419229Y-14269031D02*
X11428753Y-14288079D01*
X11428753Y-14288079D02*
X11428753Y-14307127D01*
X11428753Y-14307127D02*
X11419229Y-14335698D01*
X11419229Y-14335698D02*
X11304943Y-14449984D01*
X11304943Y-14449984D02*
X11428753Y-14449984D01*
X11552562Y-14249984D02*
X11571610Y-14249984D01*
X11571610Y-14249984D02*
X11590658Y-14259508D01*
X11590658Y-14259508D02*
X11600182Y-14269031D01*
X11600182Y-14269031D02*
X11609705Y-14288079D01*
X11609705Y-14288079D02*
X11619229Y-14326174D01*
X11619229Y-14326174D02*
X11619229Y-14373793D01*
X11619229Y-14373793D02*
X11609705Y-14411888D01*
X11609705Y-14411888D02*
X11600182Y-14430936D01*
X11600182Y-14430936D02*
X11590658Y-14440460D01*
X11590658Y-14440460D02*
X11571610Y-14449984D01*
X11571610Y-14449984D02*
X11552562Y-14449984D01*
X11552562Y-14449984D02*
X11533515Y-14440460D01*
X11533515Y-14440460D02*
X11523991Y-14430936D01*
X11523991Y-14430936D02*
X11514467Y-14411888D01*
X11514467Y-14411888D02*
X11504943Y-14373793D01*
X11504943Y-14373793D02*
X11504943Y-14326174D01*
X11504943Y-14326174D02*
X11514467Y-14288079D01*
X11514467Y-14288079D02*
X11523991Y-14269031D01*
X11523991Y-14269031D02*
X11533515Y-14259508D01*
X11533515Y-14259508D02*
X11552562Y-14249984D01*
X11743039Y-14249984D02*
X11762086Y-14249984D01*
X11762086Y-14249984D02*
X11781134Y-14259508D01*
X11781134Y-14259508D02*
X11790658Y-14269031D01*
X11790658Y-14269031D02*
X11800182Y-14288079D01*
X11800182Y-14288079D02*
X11809705Y-14326174D01*
X11809705Y-14326174D02*
X11809705Y-14373793D01*
X11809705Y-14373793D02*
X11800182Y-14411888D01*
X11800182Y-14411888D02*
X11790658Y-14430936D01*
X11790658Y-14430936D02*
X11781134Y-14440460D01*
X11781134Y-14440460D02*
X11762086Y-14449984D01*
X11762086Y-14449984D02*
X11743039Y-14449984D01*
X11743039Y-14449984D02*
X11723991Y-14440460D01*
X11723991Y-14440460D02*
X11714467Y-14430936D01*
X11714467Y-14430936D02*
X11704943Y-14411888D01*
X11704943Y-14411888D02*
X11695420Y-14373793D01*
X11695420Y-14373793D02*
X11695420Y-14326174D01*
X11695420Y-14326174D02*
X11704943Y-14288079D01*
X11704943Y-14288079D02*
X11714467Y-14269031D01*
X11714467Y-14269031D02*
X11723991Y-14259508D01*
X11723991Y-14259508D02*
X11743039Y-14249984D01*
X11895420Y-14449984D02*
X11895420Y-14316650D01*
X11895420Y-14335698D02*
X11904943Y-14326174D01*
X11904943Y-14326174D02*
X11923991Y-14316650D01*
X11923991Y-14316650D02*
X11952563Y-14316650D01*
X11952563Y-14316650D02*
X11971610Y-14326174D01*
X11971610Y-14326174D02*
X11981134Y-14345222D01*
X11981134Y-14345222D02*
X11981134Y-14449984D01*
X11981134Y-14345222D02*
X11990658Y-14326174D01*
X11990658Y-14326174D02*
X12009705Y-14316650D01*
X12009705Y-14316650D02*
X12038277Y-14316650D01*
X12038277Y-14316650D02*
X12057324Y-14326174D01*
X12057324Y-14326174D02*
X12066848Y-14345222D01*
X12066848Y-14345222D02*
X12066848Y-14449984D01*
X12162086Y-14449984D02*
X12162086Y-14316650D01*
X12162086Y-14335698D02*
X12171610Y-14326174D01*
X12171610Y-14326174D02*
X12190658Y-14316650D01*
X12190658Y-14316650D02*
X12219229Y-14316650D01*
X12219229Y-14316650D02*
X12238277Y-14326174D01*
X12238277Y-14326174D02*
X12247801Y-14345222D01*
X12247801Y-14345222D02*
X12247801Y-14449984D01*
X12247801Y-14345222D02*
X12257324Y-14326174D01*
X12257324Y-14326174D02*
X12276372Y-14316650D01*
X12276372Y-14316650D02*
X12304943Y-14316650D01*
X12304943Y-14316650D02*
X12323991Y-14326174D01*
X12323991Y-14326174D02*
X12333515Y-14345222D01*
X12333515Y-14345222D02*
X12333515Y-14449984D01*
X12723991Y-14240460D02*
X12552563Y-14497603D01*
X12981134Y-14249984D02*
X13000182Y-14249984D01*
X13000182Y-14249984D02*
X13019229Y-14259508D01*
X13019229Y-14259508D02*
X13028753Y-14269031D01*
X13028753Y-14269031D02*
X13038277Y-14288079D01*
X13038277Y-14288079D02*
X13047801Y-14326174D01*
X13047801Y-14326174D02*
X13047801Y-14373793D01*
X13047801Y-14373793D02*
X13038277Y-14411888D01*
X13038277Y-14411888D02*
X13028753Y-14430936D01*
X13028753Y-14430936D02*
X13019229Y-14440460D01*
X13019229Y-14440460D02*
X13000182Y-14449984D01*
X13000182Y-14449984D02*
X12981134Y-14449984D01*
X12981134Y-14449984D02*
X12962086Y-14440460D01*
X12962086Y-14440460D02*
X12952563Y-14430936D01*
X12952563Y-14430936D02*
X12943039Y-14411888D01*
X12943039Y-14411888D02*
X12933515Y-14373793D01*
X12933515Y-14373793D02*
X12933515Y-14326174D01*
X12933515Y-14326174D02*
X12943039Y-14288079D01*
X12943039Y-14288079D02*
X12952563Y-14269031D01*
X12952563Y-14269031D02*
X12962086Y-14259508D01*
X12962086Y-14259508D02*
X12981134Y-14249984D01*
X13133515Y-14430936D02*
X13143039Y-14440460D01*
X13143039Y-14440460D02*
X13133515Y-14449984D01*
X13133515Y-14449984D02*
X13123991Y-14440460D01*
X13123991Y-14440460D02*
X13133515Y-14430936D01*
X13133515Y-14430936D02*
X13133515Y-14449984D01*
X13266848Y-14249984D02*
X13285896Y-14249984D01*
X13285896Y-14249984D02*
X13304944Y-14259508D01*
X13304944Y-14259508D02*
X13314467Y-14269031D01*
X13314467Y-14269031D02*
X13323991Y-14288079D01*
X13323991Y-14288079D02*
X13333515Y-14326174D01*
X13333515Y-14326174D02*
X13333515Y-14373793D01*
X13333515Y-14373793D02*
X13323991Y-14411888D01*
X13323991Y-14411888D02*
X13314467Y-14430936D01*
X13314467Y-14430936D02*
X13304944Y-14440460D01*
X13304944Y-14440460D02*
X13285896Y-14449984D01*
X13285896Y-14449984D02*
X13266848Y-14449984D01*
X13266848Y-14449984D02*
X13247801Y-14440460D01*
X13247801Y-14440460D02*
X13238277Y-14430936D01*
X13238277Y-14430936D02*
X13228753Y-14411888D01*
X13228753Y-14411888D02*
X13219229Y-14373793D01*
X13219229Y-14373793D02*
X13219229Y-14326174D01*
X13219229Y-14326174D02*
X13228753Y-14288079D01*
X13228753Y-14288079D02*
X13238277Y-14269031D01*
X13238277Y-14269031D02*
X13247801Y-14259508D01*
X13247801Y-14259508D02*
X13266848Y-14249984D01*
X13504944Y-14316650D02*
X13504944Y-14449984D01*
X13457325Y-14240460D02*
X13409706Y-14383317D01*
X13409706Y-14383317D02*
X13533515Y-14383317D01*
X13590658Y-14249984D02*
X13723991Y-14249984D01*
X13723991Y-14249984D02*
X13638277Y-14449984D01*
X13790658Y-14269031D02*
X13800182Y-14259508D01*
X13800182Y-14259508D02*
X13819229Y-14249984D01*
X13819229Y-14249984D02*
X13866848Y-14249984D01*
X13866848Y-14249984D02*
X13885896Y-14259508D01*
X13885896Y-14259508D02*
X13895420Y-14269031D01*
X13895420Y-14269031D02*
X13904944Y-14288079D01*
X13904944Y-14288079D02*
X13904944Y-14307127D01*
X13904944Y-14307127D02*
X13895420Y-14335698D01*
X13895420Y-14335698D02*
X13781134Y-14449984D01*
X13781134Y-14449984D02*
X13904944Y-14449984D01*
X13981134Y-14249984D02*
X13981134Y-14288079D01*
X14057325Y-14249984D02*
X14057325Y-14288079D01*
X14352563Y-14526174D02*
X14343039Y-14516650D01*
X14343039Y-14516650D02*
X14323991Y-14488079D01*
X14323991Y-14488079D02*
X14314468Y-14469031D01*
X14314468Y-14469031D02*
X14304944Y-14440460D01*
X14304944Y-14440460D02*
X14295420Y-14392841D01*
X14295420Y-14392841D02*
X14295420Y-14354746D01*
X14295420Y-14354746D02*
X14304944Y-14307127D01*
X14304944Y-14307127D02*
X14314468Y-14278555D01*
X14314468Y-14278555D02*
X14323991Y-14259508D01*
X14323991Y-14259508D02*
X14343039Y-14230936D01*
X14343039Y-14230936D02*
X14352563Y-14221412D01*
X14409706Y-14249984D02*
X14533515Y-14249984D01*
X14533515Y-14249984D02*
X14466848Y-14326174D01*
X14466848Y-14326174D02*
X14495420Y-14326174D01*
X14495420Y-14326174D02*
X14514468Y-14335698D01*
X14514468Y-14335698D02*
X14523991Y-14345222D01*
X14523991Y-14345222D02*
X14533515Y-14364269D01*
X14533515Y-14364269D02*
X14533515Y-14411888D01*
X14533515Y-14411888D02*
X14523991Y-14430936D01*
X14523991Y-14430936D02*
X14514468Y-14440460D01*
X14514468Y-14440460D02*
X14495420Y-14449984D01*
X14495420Y-14449984D02*
X14438277Y-14449984D01*
X14438277Y-14449984D02*
X14419229Y-14440460D01*
X14419229Y-14440460D02*
X14409706Y-14430936D01*
X14771610Y-14449984D02*
X14771610Y-14249984D01*
X14857325Y-14449984D02*
X14857325Y-14345222D01*
X14857325Y-14345222D02*
X14847801Y-14326174D01*
X14847801Y-14326174D02*
X14828753Y-14316650D01*
X14828753Y-14316650D02*
X14800182Y-14316650D01*
X14800182Y-14316650D02*
X14781134Y-14326174D01*
X14781134Y-14326174D02*
X14771610Y-14335698D01*
X14981134Y-14449984D02*
X14962087Y-14440460D01*
X14962087Y-14440460D02*
X14952563Y-14430936D01*
X14952563Y-14430936D02*
X14943039Y-14411888D01*
X14943039Y-14411888D02*
X14943039Y-14354746D01*
X14943039Y-14354746D02*
X14952563Y-14335698D01*
X14952563Y-14335698D02*
X14962087Y-14326174D01*
X14962087Y-14326174D02*
X14981134Y-14316650D01*
X14981134Y-14316650D02*
X15009706Y-14316650D01*
X15009706Y-14316650D02*
X15028753Y-14326174D01*
X15028753Y-14326174D02*
X15038277Y-14335698D01*
X15038277Y-14335698D02*
X15047801Y-14354746D01*
X15047801Y-14354746D02*
X15047801Y-14411888D01*
X15047801Y-14411888D02*
X15038277Y-14430936D01*
X15038277Y-14430936D02*
X15028753Y-14440460D01*
X15028753Y-14440460D02*
X15009706Y-14449984D01*
X15009706Y-14449984D02*
X14981134Y-14449984D01*
X15162087Y-14449984D02*
X15143039Y-14440460D01*
X15143039Y-14440460D02*
X15133515Y-14421412D01*
X15133515Y-14421412D02*
X15133515Y-14249984D01*
X15314468Y-14440460D02*
X15295420Y-14449984D01*
X15295420Y-14449984D02*
X15257325Y-14449984D01*
X15257325Y-14449984D02*
X15238277Y-14440460D01*
X15238277Y-14440460D02*
X15228753Y-14421412D01*
X15228753Y-14421412D02*
X15228753Y-14345222D01*
X15228753Y-14345222D02*
X15238277Y-14326174D01*
X15238277Y-14326174D02*
X15257325Y-14316650D01*
X15257325Y-14316650D02*
X15295420Y-14316650D01*
X15295420Y-14316650D02*
X15314468Y-14326174D01*
X15314468Y-14326174D02*
X15323991Y-14345222D01*
X15323991Y-14345222D02*
X15323991Y-14364269D01*
X15323991Y-14364269D02*
X15228753Y-14383317D01*
X15400182Y-14440460D02*
X15419230Y-14449984D01*
X15419230Y-14449984D02*
X15457325Y-14449984D01*
X15457325Y-14449984D02*
X15476372Y-14440460D01*
X15476372Y-14440460D02*
X15485896Y-14421412D01*
X15485896Y-14421412D02*
X15485896Y-14411888D01*
X15485896Y-14411888D02*
X15476372Y-14392841D01*
X15476372Y-14392841D02*
X15457325Y-14383317D01*
X15457325Y-14383317D02*
X15428753Y-14383317D01*
X15428753Y-14383317D02*
X15409706Y-14373793D01*
X15409706Y-14373793D02*
X15400182Y-14354746D01*
X15400182Y-14354746D02*
X15400182Y-14345222D01*
X15400182Y-14345222D02*
X15409706Y-14326174D01*
X15409706Y-14326174D02*
X15428753Y-14316650D01*
X15428753Y-14316650D02*
X15457325Y-14316650D01*
X15457325Y-14316650D02*
X15476372Y-14326174D01*
X15552563Y-14526174D02*
X15562087Y-14516650D01*
X15562087Y-14516650D02*
X15581134Y-14488079D01*
X15581134Y-14488079D02*
X15590658Y-14469031D01*
X15590658Y-14469031D02*
X15600182Y-14440460D01*
X15600182Y-14440460D02*
X15609706Y-14392841D01*
X15609706Y-14392841D02*
X15609706Y-14354746D01*
X15609706Y-14354746D02*
X15600182Y-14307127D01*
X15600182Y-14307127D02*
X15590658Y-14278555D01*
X15590658Y-14278555D02*
X15581134Y-14259508D01*
X15581134Y-14259508D02*
X15562087Y-14230936D01*
X15562087Y-14230936D02*
X15552563Y-14221412D01*
X10577500Y-14522500D02*
X10777500Y-14722500D01*
X10777500Y-14522500D02*
X10577500Y-14722500D01*
X10777500Y-14622500D02*
G75*
G03*
X10577500Y-14622500I-100000J0D01*
G01*
X10577500Y-14622500D02*
G75*
G03*
X10777500Y-14622500I100000J0D01*
G01*
X11028753Y-14533031D02*
X11038277Y-14523508D01*
X11038277Y-14523508D02*
X11057324Y-14513984D01*
X11057324Y-14513984D02*
X11104944Y-14513984D01*
X11104944Y-14513984D02*
X11123991Y-14523508D01*
X11123991Y-14523508D02*
X11133515Y-14533031D01*
X11133515Y-14533031D02*
X11143039Y-14552079D01*
X11143039Y-14552079D02*
X11143039Y-14571127D01*
X11143039Y-14571127D02*
X11133515Y-14599698D01*
X11133515Y-14599698D02*
X11019229Y-14713984D01*
X11019229Y-14713984D02*
X11143039Y-14713984D01*
X11228753Y-14694936D02*
X11238277Y-14704460D01*
X11238277Y-14704460D02*
X11228753Y-14713984D01*
X11228753Y-14713984D02*
X11219229Y-14704460D01*
X11219229Y-14704460D02*
X11228753Y-14694936D01*
X11228753Y-14694936D02*
X11228753Y-14713984D01*
X11362086Y-14513984D02*
X11381134Y-14513984D01*
X11381134Y-14513984D02*
X11400182Y-14523508D01*
X11400182Y-14523508D02*
X11409705Y-14533031D01*
X11409705Y-14533031D02*
X11419229Y-14552079D01*
X11419229Y-14552079D02*
X11428753Y-14590174D01*
X11428753Y-14590174D02*
X11428753Y-14637793D01*
X11428753Y-14637793D02*
X11419229Y-14675888D01*
X11419229Y-14675888D02*
X11409705Y-14694936D01*
X11409705Y-14694936D02*
X11400182Y-14704460D01*
X11400182Y-14704460D02*
X11381134Y-14713984D01*
X11381134Y-14713984D02*
X11362086Y-14713984D01*
X11362086Y-14713984D02*
X11343039Y-14704460D01*
X11343039Y-14704460D02*
X11333515Y-14694936D01*
X11333515Y-14694936D02*
X11323991Y-14675888D01*
X11323991Y-14675888D02*
X11314467Y-14637793D01*
X11314467Y-14637793D02*
X11314467Y-14590174D01*
X11314467Y-14590174D02*
X11323991Y-14552079D01*
X11323991Y-14552079D02*
X11333515Y-14533031D01*
X11333515Y-14533031D02*
X11343039Y-14523508D01*
X11343039Y-14523508D02*
X11362086Y-14513984D01*
X11552562Y-14513984D02*
X11571610Y-14513984D01*
X11571610Y-14513984D02*
X11590658Y-14523508D01*
X11590658Y-14523508D02*
X11600182Y-14533031D01*
X11600182Y-14533031D02*
X11609705Y-14552079D01*
X11609705Y-14552079D02*
X11619229Y-14590174D01*
X11619229Y-14590174D02*
X11619229Y-14637793D01*
X11619229Y-14637793D02*
X11609705Y-14675888D01*
X11609705Y-14675888D02*
X11600182Y-14694936D01*
X11600182Y-14694936D02*
X11590658Y-14704460D01*
X11590658Y-14704460D02*
X11571610Y-14713984D01*
X11571610Y-14713984D02*
X11552562Y-14713984D01*
X11552562Y-14713984D02*
X11533515Y-14704460D01*
X11533515Y-14704460D02*
X11523991Y-14694936D01*
X11523991Y-14694936D02*
X11514467Y-14675888D01*
X11514467Y-14675888D02*
X11504943Y-14637793D01*
X11504943Y-14637793D02*
X11504943Y-14590174D01*
X11504943Y-14590174D02*
X11514467Y-14552079D01*
X11514467Y-14552079D02*
X11523991Y-14533031D01*
X11523991Y-14533031D02*
X11533515Y-14523508D01*
X11533515Y-14523508D02*
X11552562Y-14513984D01*
X11743039Y-14513984D02*
X11762086Y-14513984D01*
X11762086Y-14513984D02*
X11781134Y-14523508D01*
X11781134Y-14523508D02*
X11790658Y-14533031D01*
X11790658Y-14533031D02*
X11800182Y-14552079D01*
X11800182Y-14552079D02*
X11809705Y-14590174D01*
X11809705Y-14590174D02*
X11809705Y-14637793D01*
X11809705Y-14637793D02*
X11800182Y-14675888D01*
X11800182Y-14675888D02*
X11790658Y-14694936D01*
X11790658Y-14694936D02*
X11781134Y-14704460D01*
X11781134Y-14704460D02*
X11762086Y-14713984D01*
X11762086Y-14713984D02*
X11743039Y-14713984D01*
X11743039Y-14713984D02*
X11723991Y-14704460D01*
X11723991Y-14704460D02*
X11714467Y-14694936D01*
X11714467Y-14694936D02*
X11704943Y-14675888D01*
X11704943Y-14675888D02*
X11695420Y-14637793D01*
X11695420Y-14637793D02*
X11695420Y-14590174D01*
X11695420Y-14590174D02*
X11704943Y-14552079D01*
X11704943Y-14552079D02*
X11714467Y-14533031D01*
X11714467Y-14533031D02*
X11723991Y-14523508D01*
X11723991Y-14523508D02*
X11743039Y-14513984D01*
X11895420Y-14713984D02*
X11895420Y-14580650D01*
X11895420Y-14599698D02*
X11904943Y-14590174D01*
X11904943Y-14590174D02*
X11923991Y-14580650D01*
X11923991Y-14580650D02*
X11952563Y-14580650D01*
X11952563Y-14580650D02*
X11971610Y-14590174D01*
X11971610Y-14590174D02*
X11981134Y-14609222D01*
X11981134Y-14609222D02*
X11981134Y-14713984D01*
X11981134Y-14609222D02*
X11990658Y-14590174D01*
X11990658Y-14590174D02*
X12009705Y-14580650D01*
X12009705Y-14580650D02*
X12038277Y-14580650D01*
X12038277Y-14580650D02*
X12057324Y-14590174D01*
X12057324Y-14590174D02*
X12066848Y-14609222D01*
X12066848Y-14609222D02*
X12066848Y-14713984D01*
X12162086Y-14713984D02*
X12162086Y-14580650D01*
X12162086Y-14599698D02*
X12171610Y-14590174D01*
X12171610Y-14590174D02*
X12190658Y-14580650D01*
X12190658Y-14580650D02*
X12219229Y-14580650D01*
X12219229Y-14580650D02*
X12238277Y-14590174D01*
X12238277Y-14590174D02*
X12247801Y-14609222D01*
X12247801Y-14609222D02*
X12247801Y-14713984D01*
X12247801Y-14609222D02*
X12257324Y-14590174D01*
X12257324Y-14590174D02*
X12276372Y-14580650D01*
X12276372Y-14580650D02*
X12304943Y-14580650D01*
X12304943Y-14580650D02*
X12323991Y-14590174D01*
X12323991Y-14590174D02*
X12333515Y-14609222D01*
X12333515Y-14609222D02*
X12333515Y-14713984D01*
X12723991Y-14504460D02*
X12552563Y-14761603D01*
X12981134Y-14513984D02*
X13000182Y-14513984D01*
X13000182Y-14513984D02*
X13019229Y-14523508D01*
X13019229Y-14523508D02*
X13028753Y-14533031D01*
X13028753Y-14533031D02*
X13038277Y-14552079D01*
X13038277Y-14552079D02*
X13047801Y-14590174D01*
X13047801Y-14590174D02*
X13047801Y-14637793D01*
X13047801Y-14637793D02*
X13038277Y-14675888D01*
X13038277Y-14675888D02*
X13028753Y-14694936D01*
X13028753Y-14694936D02*
X13019229Y-14704460D01*
X13019229Y-14704460D02*
X13000182Y-14713984D01*
X13000182Y-14713984D02*
X12981134Y-14713984D01*
X12981134Y-14713984D02*
X12962086Y-14704460D01*
X12962086Y-14704460D02*
X12952563Y-14694936D01*
X12952563Y-14694936D02*
X12943039Y-14675888D01*
X12943039Y-14675888D02*
X12933515Y-14637793D01*
X12933515Y-14637793D02*
X12933515Y-14590174D01*
X12933515Y-14590174D02*
X12943039Y-14552079D01*
X12943039Y-14552079D02*
X12952563Y-14533031D01*
X12952563Y-14533031D02*
X12962086Y-14523508D01*
X12962086Y-14523508D02*
X12981134Y-14513984D01*
X13133515Y-14694936D02*
X13143039Y-14704460D01*
X13143039Y-14704460D02*
X13133515Y-14713984D01*
X13133515Y-14713984D02*
X13123991Y-14704460D01*
X13123991Y-14704460D02*
X13133515Y-14694936D01*
X13133515Y-14694936D02*
X13133515Y-14713984D01*
X13266848Y-14513984D02*
X13285896Y-14513984D01*
X13285896Y-14513984D02*
X13304944Y-14523508D01*
X13304944Y-14523508D02*
X13314467Y-14533031D01*
X13314467Y-14533031D02*
X13323991Y-14552079D01*
X13323991Y-14552079D02*
X13333515Y-14590174D01*
X13333515Y-14590174D02*
X13333515Y-14637793D01*
X13333515Y-14637793D02*
X13323991Y-14675888D01*
X13323991Y-14675888D02*
X13314467Y-14694936D01*
X13314467Y-14694936D02*
X13304944Y-14704460D01*
X13304944Y-14704460D02*
X13285896Y-14713984D01*
X13285896Y-14713984D02*
X13266848Y-14713984D01*
X13266848Y-14713984D02*
X13247801Y-14704460D01*
X13247801Y-14704460D02*
X13238277Y-14694936D01*
X13238277Y-14694936D02*
X13228753Y-14675888D01*
X13228753Y-14675888D02*
X13219229Y-14637793D01*
X13219229Y-14637793D02*
X13219229Y-14590174D01*
X13219229Y-14590174D02*
X13228753Y-14552079D01*
X13228753Y-14552079D02*
X13238277Y-14533031D01*
X13238277Y-14533031D02*
X13247801Y-14523508D01*
X13247801Y-14523508D02*
X13266848Y-14513984D01*
X13400182Y-14513984D02*
X13533515Y-14513984D01*
X13533515Y-14513984D02*
X13447801Y-14713984D01*
X13638277Y-14599698D02*
X13619229Y-14590174D01*
X13619229Y-14590174D02*
X13609706Y-14580650D01*
X13609706Y-14580650D02*
X13600182Y-14561603D01*
X13600182Y-14561603D02*
X13600182Y-14552079D01*
X13600182Y-14552079D02*
X13609706Y-14533031D01*
X13609706Y-14533031D02*
X13619229Y-14523508D01*
X13619229Y-14523508D02*
X13638277Y-14513984D01*
X13638277Y-14513984D02*
X13676372Y-14513984D01*
X13676372Y-14513984D02*
X13695420Y-14523508D01*
X13695420Y-14523508D02*
X13704944Y-14533031D01*
X13704944Y-14533031D02*
X13714467Y-14552079D01*
X13714467Y-14552079D02*
X13714467Y-14561603D01*
X13714467Y-14561603D02*
X13704944Y-14580650D01*
X13704944Y-14580650D02*
X13695420Y-14590174D01*
X13695420Y-14590174D02*
X13676372Y-14599698D01*
X13676372Y-14599698D02*
X13638277Y-14599698D01*
X13638277Y-14599698D02*
X13619229Y-14609222D01*
X13619229Y-14609222D02*
X13609706Y-14618746D01*
X13609706Y-14618746D02*
X13600182Y-14637793D01*
X13600182Y-14637793D02*
X13600182Y-14675888D01*
X13600182Y-14675888D02*
X13609706Y-14694936D01*
X13609706Y-14694936D02*
X13619229Y-14704460D01*
X13619229Y-14704460D02*
X13638277Y-14713984D01*
X13638277Y-14713984D02*
X13676372Y-14713984D01*
X13676372Y-14713984D02*
X13695420Y-14704460D01*
X13695420Y-14704460D02*
X13704944Y-14694936D01*
X13704944Y-14694936D02*
X13714467Y-14675888D01*
X13714467Y-14675888D02*
X13714467Y-14637793D01*
X13714467Y-14637793D02*
X13704944Y-14618746D01*
X13704944Y-14618746D02*
X13695420Y-14609222D01*
X13695420Y-14609222D02*
X13676372Y-14599698D01*
X13781134Y-14513984D02*
X13914467Y-14513984D01*
X13914467Y-14513984D02*
X13828753Y-14713984D01*
X13981134Y-14513984D02*
X13981134Y-14552079D01*
X14057325Y-14513984D02*
X14057325Y-14552079D01*
X14352563Y-14790174D02*
X14343039Y-14780650D01*
X14343039Y-14780650D02*
X14323991Y-14752079D01*
X14323991Y-14752079D02*
X14314468Y-14733031D01*
X14314468Y-14733031D02*
X14304944Y-14704460D01*
X14304944Y-14704460D02*
X14295420Y-14656841D01*
X14295420Y-14656841D02*
X14295420Y-14618746D01*
X14295420Y-14618746D02*
X14304944Y-14571127D01*
X14304944Y-14571127D02*
X14314468Y-14542555D01*
X14314468Y-14542555D02*
X14323991Y-14523508D01*
X14323991Y-14523508D02*
X14343039Y-14494936D01*
X14343039Y-14494936D02*
X14352563Y-14485412D01*
X14514468Y-14580650D02*
X14514468Y-14713984D01*
X14466848Y-14504460D02*
X14419229Y-14647317D01*
X14419229Y-14647317D02*
X14543039Y-14647317D01*
X14771610Y-14713984D02*
X14771610Y-14513984D01*
X14857325Y-14713984D02*
X14857325Y-14609222D01*
X14857325Y-14609222D02*
X14847801Y-14590174D01*
X14847801Y-14590174D02*
X14828753Y-14580650D01*
X14828753Y-14580650D02*
X14800182Y-14580650D01*
X14800182Y-14580650D02*
X14781134Y-14590174D01*
X14781134Y-14590174D02*
X14771610Y-14599698D01*
X14981134Y-14713984D02*
X14962087Y-14704460D01*
X14962087Y-14704460D02*
X14952563Y-14694936D01*
X14952563Y-14694936D02*
X14943039Y-14675888D01*
X14943039Y-14675888D02*
X14943039Y-14618746D01*
X14943039Y-14618746D02*
X14952563Y-14599698D01*
X14952563Y-14599698D02*
X14962087Y-14590174D01*
X14962087Y-14590174D02*
X14981134Y-14580650D01*
X14981134Y-14580650D02*
X15009706Y-14580650D01*
X15009706Y-14580650D02*
X15028753Y-14590174D01*
X15028753Y-14590174D02*
X15038277Y-14599698D01*
X15038277Y-14599698D02*
X15047801Y-14618746D01*
X15047801Y-14618746D02*
X15047801Y-14675888D01*
X15047801Y-14675888D02*
X15038277Y-14694936D01*
X15038277Y-14694936D02*
X15028753Y-14704460D01*
X15028753Y-14704460D02*
X15009706Y-14713984D01*
X15009706Y-14713984D02*
X14981134Y-14713984D01*
X15162087Y-14713984D02*
X15143039Y-14704460D01*
X15143039Y-14704460D02*
X15133515Y-14685412D01*
X15133515Y-14685412D02*
X15133515Y-14513984D01*
X15314468Y-14704460D02*
X15295420Y-14713984D01*
X15295420Y-14713984D02*
X15257325Y-14713984D01*
X15257325Y-14713984D02*
X15238277Y-14704460D01*
X15238277Y-14704460D02*
X15228753Y-14685412D01*
X15228753Y-14685412D02*
X15228753Y-14609222D01*
X15228753Y-14609222D02*
X15238277Y-14590174D01*
X15238277Y-14590174D02*
X15257325Y-14580650D01*
X15257325Y-14580650D02*
X15295420Y-14580650D01*
X15295420Y-14580650D02*
X15314468Y-14590174D01*
X15314468Y-14590174D02*
X15323991Y-14609222D01*
X15323991Y-14609222D02*
X15323991Y-14628269D01*
X15323991Y-14628269D02*
X15228753Y-14647317D01*
X15400182Y-14704460D02*
X15419230Y-14713984D01*
X15419230Y-14713984D02*
X15457325Y-14713984D01*
X15457325Y-14713984D02*
X15476372Y-14704460D01*
X15476372Y-14704460D02*
X15485896Y-14685412D01*
X15485896Y-14685412D02*
X15485896Y-14675888D01*
X15485896Y-14675888D02*
X15476372Y-14656841D01*
X15476372Y-14656841D02*
X15457325Y-14647317D01*
X15457325Y-14647317D02*
X15428753Y-14647317D01*
X15428753Y-14647317D02*
X15409706Y-14637793D01*
X15409706Y-14637793D02*
X15400182Y-14618746D01*
X15400182Y-14618746D02*
X15400182Y-14609222D01*
X15400182Y-14609222D02*
X15409706Y-14590174D01*
X15409706Y-14590174D02*
X15428753Y-14580650D01*
X15428753Y-14580650D02*
X15457325Y-14580650D01*
X15457325Y-14580650D02*
X15476372Y-14590174D01*
X15552563Y-14790174D02*
X15562087Y-14780650D01*
X15562087Y-14780650D02*
X15581134Y-14752079D01*
X15581134Y-14752079D02*
X15590658Y-14733031D01*
X15590658Y-14733031D02*
X15600182Y-14704460D01*
X15600182Y-14704460D02*
X15609706Y-14656841D01*
X15609706Y-14656841D02*
X15609706Y-14618746D01*
X15609706Y-14618746D02*
X15600182Y-14571127D01*
X15600182Y-14571127D02*
X15590658Y-14542555D01*
X15590658Y-14542555D02*
X15581134Y-14523508D01*
X15581134Y-14523508D02*
X15562087Y-14494936D01*
X15562087Y-14494936D02*
X15552563Y-14485412D01*
X10577500Y-14842500D02*
X10777500Y-15042500D01*
X10777500Y-14842500D02*
X10577500Y-15042500D01*
X10677500Y-14842500D02*
X10677500Y-15042500D01*
X10577500Y-14942500D02*
X10777500Y-14942500D01*
X11028753Y-14853031D02*
X11038277Y-14843508D01*
X11038277Y-14843508D02*
X11057324Y-14833984D01*
X11057324Y-14833984D02*
X11104944Y-14833984D01*
X11104944Y-14833984D02*
X11123991Y-14843508D01*
X11123991Y-14843508D02*
X11133515Y-14853031D01*
X11133515Y-14853031D02*
X11143039Y-14872079D01*
X11143039Y-14872079D02*
X11143039Y-14891127D01*
X11143039Y-14891127D02*
X11133515Y-14919698D01*
X11133515Y-14919698D02*
X11019229Y-15033984D01*
X11019229Y-15033984D02*
X11143039Y-15033984D01*
X11228753Y-15014936D02*
X11238277Y-15024460D01*
X11238277Y-15024460D02*
X11228753Y-15033984D01*
X11228753Y-15033984D02*
X11219229Y-15024460D01*
X11219229Y-15024460D02*
X11228753Y-15014936D01*
X11228753Y-15014936D02*
X11228753Y-15033984D01*
X11304943Y-14833984D02*
X11438277Y-14833984D01*
X11438277Y-14833984D02*
X11352562Y-15033984D01*
X11552562Y-14833984D02*
X11571610Y-14833984D01*
X11571610Y-14833984D02*
X11590658Y-14843508D01*
X11590658Y-14843508D02*
X11600182Y-14853031D01*
X11600182Y-14853031D02*
X11609705Y-14872079D01*
X11609705Y-14872079D02*
X11619229Y-14910174D01*
X11619229Y-14910174D02*
X11619229Y-14957793D01*
X11619229Y-14957793D02*
X11609705Y-14995888D01*
X11609705Y-14995888D02*
X11600182Y-15014936D01*
X11600182Y-15014936D02*
X11590658Y-15024460D01*
X11590658Y-15024460D02*
X11571610Y-15033984D01*
X11571610Y-15033984D02*
X11552562Y-15033984D01*
X11552562Y-15033984D02*
X11533515Y-15024460D01*
X11533515Y-15024460D02*
X11523991Y-15014936D01*
X11523991Y-15014936D02*
X11514467Y-14995888D01*
X11514467Y-14995888D02*
X11504943Y-14957793D01*
X11504943Y-14957793D02*
X11504943Y-14910174D01*
X11504943Y-14910174D02*
X11514467Y-14872079D01*
X11514467Y-14872079D02*
X11523991Y-14853031D01*
X11523991Y-14853031D02*
X11533515Y-14843508D01*
X11533515Y-14843508D02*
X11552562Y-14833984D01*
X11743039Y-14833984D02*
X11762086Y-14833984D01*
X11762086Y-14833984D02*
X11781134Y-14843508D01*
X11781134Y-14843508D02*
X11790658Y-14853031D01*
X11790658Y-14853031D02*
X11800182Y-14872079D01*
X11800182Y-14872079D02*
X11809705Y-14910174D01*
X11809705Y-14910174D02*
X11809705Y-14957793D01*
X11809705Y-14957793D02*
X11800182Y-14995888D01*
X11800182Y-14995888D02*
X11790658Y-15014936D01*
X11790658Y-15014936D02*
X11781134Y-15024460D01*
X11781134Y-15024460D02*
X11762086Y-15033984D01*
X11762086Y-15033984D02*
X11743039Y-15033984D01*
X11743039Y-15033984D02*
X11723991Y-15024460D01*
X11723991Y-15024460D02*
X11714467Y-15014936D01*
X11714467Y-15014936D02*
X11704943Y-14995888D01*
X11704943Y-14995888D02*
X11695420Y-14957793D01*
X11695420Y-14957793D02*
X11695420Y-14910174D01*
X11695420Y-14910174D02*
X11704943Y-14872079D01*
X11704943Y-14872079D02*
X11714467Y-14853031D01*
X11714467Y-14853031D02*
X11723991Y-14843508D01*
X11723991Y-14843508D02*
X11743039Y-14833984D01*
X11895420Y-15033984D02*
X11895420Y-14900650D01*
X11895420Y-14919698D02*
X11904943Y-14910174D01*
X11904943Y-14910174D02*
X11923991Y-14900650D01*
X11923991Y-14900650D02*
X11952563Y-14900650D01*
X11952563Y-14900650D02*
X11971610Y-14910174D01*
X11971610Y-14910174D02*
X11981134Y-14929222D01*
X11981134Y-14929222D02*
X11981134Y-15033984D01*
X11981134Y-14929222D02*
X11990658Y-14910174D01*
X11990658Y-14910174D02*
X12009705Y-14900650D01*
X12009705Y-14900650D02*
X12038277Y-14900650D01*
X12038277Y-14900650D02*
X12057324Y-14910174D01*
X12057324Y-14910174D02*
X12066848Y-14929222D01*
X12066848Y-14929222D02*
X12066848Y-15033984D01*
X12162086Y-15033984D02*
X12162086Y-14900650D01*
X12162086Y-14919698D02*
X12171610Y-14910174D01*
X12171610Y-14910174D02*
X12190658Y-14900650D01*
X12190658Y-14900650D02*
X12219229Y-14900650D01*
X12219229Y-14900650D02*
X12238277Y-14910174D01*
X12238277Y-14910174D02*
X12247801Y-14929222D01*
X12247801Y-14929222D02*
X12247801Y-15033984D01*
X12247801Y-14929222D02*
X12257324Y-14910174D01*
X12257324Y-14910174D02*
X12276372Y-14900650D01*
X12276372Y-14900650D02*
X12304943Y-14900650D01*
X12304943Y-14900650D02*
X12323991Y-14910174D01*
X12323991Y-14910174D02*
X12333515Y-14929222D01*
X12333515Y-14929222D02*
X12333515Y-15033984D01*
X12723991Y-14824460D02*
X12552563Y-15081603D01*
X12981134Y-14833984D02*
X13000182Y-14833984D01*
X13000182Y-14833984D02*
X13019229Y-14843508D01*
X13019229Y-14843508D02*
X13028753Y-14853031D01*
X13028753Y-14853031D02*
X13038277Y-14872079D01*
X13038277Y-14872079D02*
X13047801Y-14910174D01*
X13047801Y-14910174D02*
X13047801Y-14957793D01*
X13047801Y-14957793D02*
X13038277Y-14995888D01*
X13038277Y-14995888D02*
X13028753Y-15014936D01*
X13028753Y-15014936D02*
X13019229Y-15024460D01*
X13019229Y-15024460D02*
X13000182Y-15033984D01*
X13000182Y-15033984D02*
X12981134Y-15033984D01*
X12981134Y-15033984D02*
X12962086Y-15024460D01*
X12962086Y-15024460D02*
X12952563Y-15014936D01*
X12952563Y-15014936D02*
X12943039Y-14995888D01*
X12943039Y-14995888D02*
X12933515Y-14957793D01*
X12933515Y-14957793D02*
X12933515Y-14910174D01*
X12933515Y-14910174D02*
X12943039Y-14872079D01*
X12943039Y-14872079D02*
X12952563Y-14853031D01*
X12952563Y-14853031D02*
X12962086Y-14843508D01*
X12962086Y-14843508D02*
X12981134Y-14833984D01*
X13133515Y-15014936D02*
X13143039Y-15024460D01*
X13143039Y-15024460D02*
X13133515Y-15033984D01*
X13133515Y-15033984D02*
X13123991Y-15024460D01*
X13123991Y-15024460D02*
X13133515Y-15014936D01*
X13133515Y-15014936D02*
X13133515Y-15033984D01*
X13333515Y-15033984D02*
X13219229Y-15033984D01*
X13276372Y-15033984D02*
X13276372Y-14833984D01*
X13276372Y-14833984D02*
X13257325Y-14862555D01*
X13257325Y-14862555D02*
X13238277Y-14881603D01*
X13238277Y-14881603D02*
X13219229Y-14891127D01*
X13457325Y-14833984D02*
X13476372Y-14833984D01*
X13476372Y-14833984D02*
X13495420Y-14843508D01*
X13495420Y-14843508D02*
X13504944Y-14853031D01*
X13504944Y-14853031D02*
X13514467Y-14872079D01*
X13514467Y-14872079D02*
X13523991Y-14910174D01*
X13523991Y-14910174D02*
X13523991Y-14957793D01*
X13523991Y-14957793D02*
X13514467Y-14995888D01*
X13514467Y-14995888D02*
X13504944Y-15014936D01*
X13504944Y-15014936D02*
X13495420Y-15024460D01*
X13495420Y-15024460D02*
X13476372Y-15033984D01*
X13476372Y-15033984D02*
X13457325Y-15033984D01*
X13457325Y-15033984D02*
X13438277Y-15024460D01*
X13438277Y-15024460D02*
X13428753Y-15014936D01*
X13428753Y-15014936D02*
X13419229Y-14995888D01*
X13419229Y-14995888D02*
X13409706Y-14957793D01*
X13409706Y-14957793D02*
X13409706Y-14910174D01*
X13409706Y-14910174D02*
X13419229Y-14872079D01*
X13419229Y-14872079D02*
X13428753Y-14853031D01*
X13428753Y-14853031D02*
X13438277Y-14843508D01*
X13438277Y-14843508D02*
X13457325Y-14833984D01*
X13695420Y-14833984D02*
X13657325Y-14833984D01*
X13657325Y-14833984D02*
X13638277Y-14843508D01*
X13638277Y-14843508D02*
X13628753Y-14853031D01*
X13628753Y-14853031D02*
X13609706Y-14881603D01*
X13609706Y-14881603D02*
X13600182Y-14919698D01*
X13600182Y-14919698D02*
X13600182Y-14995888D01*
X13600182Y-14995888D02*
X13609706Y-15014936D01*
X13609706Y-15014936D02*
X13619229Y-15024460D01*
X13619229Y-15024460D02*
X13638277Y-15033984D01*
X13638277Y-15033984D02*
X13676372Y-15033984D01*
X13676372Y-15033984D02*
X13695420Y-15024460D01*
X13695420Y-15024460D02*
X13704944Y-15014936D01*
X13704944Y-15014936D02*
X13714467Y-14995888D01*
X13714467Y-14995888D02*
X13714467Y-14948269D01*
X13714467Y-14948269D02*
X13704944Y-14929222D01*
X13704944Y-14929222D02*
X13695420Y-14919698D01*
X13695420Y-14919698D02*
X13676372Y-14910174D01*
X13676372Y-14910174D02*
X13638277Y-14910174D01*
X13638277Y-14910174D02*
X13619229Y-14919698D01*
X13619229Y-14919698D02*
X13609706Y-14929222D01*
X13609706Y-14929222D02*
X13600182Y-14948269D01*
X13781134Y-14833984D02*
X13904944Y-14833984D01*
X13904944Y-14833984D02*
X13838277Y-14910174D01*
X13838277Y-14910174D02*
X13866848Y-14910174D01*
X13866848Y-14910174D02*
X13885896Y-14919698D01*
X13885896Y-14919698D02*
X13895420Y-14929222D01*
X13895420Y-14929222D02*
X13904944Y-14948269D01*
X13904944Y-14948269D02*
X13904944Y-14995888D01*
X13904944Y-14995888D02*
X13895420Y-15014936D01*
X13895420Y-15014936D02*
X13885896Y-15024460D01*
X13885896Y-15024460D02*
X13866848Y-15033984D01*
X13866848Y-15033984D02*
X13809706Y-15033984D01*
X13809706Y-15033984D02*
X13790658Y-15024460D01*
X13790658Y-15024460D02*
X13781134Y-15014936D01*
X13981134Y-14833984D02*
X13981134Y-14872079D01*
X14057325Y-14833984D02*
X14057325Y-14872079D01*
X14352563Y-15110174D02*
X14343039Y-15100650D01*
X14343039Y-15100650D02*
X14323991Y-15072079D01*
X14323991Y-15072079D02*
X14314468Y-15053031D01*
X14314468Y-15053031D02*
X14304944Y-15024460D01*
X14304944Y-15024460D02*
X14295420Y-14976841D01*
X14295420Y-14976841D02*
X14295420Y-14938746D01*
X14295420Y-14938746D02*
X14304944Y-14891127D01*
X14304944Y-14891127D02*
X14314468Y-14862555D01*
X14314468Y-14862555D02*
X14323991Y-14843508D01*
X14323991Y-14843508D02*
X14343039Y-14814936D01*
X14343039Y-14814936D02*
X14352563Y-14805412D01*
X14419229Y-14853031D02*
X14428753Y-14843508D01*
X14428753Y-14843508D02*
X14447801Y-14833984D01*
X14447801Y-14833984D02*
X14495420Y-14833984D01*
X14495420Y-14833984D02*
X14514468Y-14843508D01*
X14514468Y-14843508D02*
X14523991Y-14853031D01*
X14523991Y-14853031D02*
X14533515Y-14872079D01*
X14533515Y-14872079D02*
X14533515Y-14891127D01*
X14533515Y-14891127D02*
X14523991Y-14919698D01*
X14523991Y-14919698D02*
X14409706Y-15033984D01*
X14409706Y-15033984D02*
X14533515Y-15033984D01*
X14771610Y-15033984D02*
X14771610Y-14833984D01*
X14857325Y-15033984D02*
X14857325Y-14929222D01*
X14857325Y-14929222D02*
X14847801Y-14910174D01*
X14847801Y-14910174D02*
X14828753Y-14900650D01*
X14828753Y-14900650D02*
X14800182Y-14900650D01*
X14800182Y-14900650D02*
X14781134Y-14910174D01*
X14781134Y-14910174D02*
X14771610Y-14919698D01*
X14981134Y-15033984D02*
X14962087Y-15024460D01*
X14962087Y-15024460D02*
X14952563Y-15014936D01*
X14952563Y-15014936D02*
X14943039Y-14995888D01*
X14943039Y-14995888D02*
X14943039Y-14938746D01*
X14943039Y-14938746D02*
X14952563Y-14919698D01*
X14952563Y-14919698D02*
X14962087Y-14910174D01*
X14962087Y-14910174D02*
X14981134Y-14900650D01*
X14981134Y-14900650D02*
X15009706Y-14900650D01*
X15009706Y-14900650D02*
X15028753Y-14910174D01*
X15028753Y-14910174D02*
X15038277Y-14919698D01*
X15038277Y-14919698D02*
X15047801Y-14938746D01*
X15047801Y-14938746D02*
X15047801Y-14995888D01*
X15047801Y-14995888D02*
X15038277Y-15014936D01*
X15038277Y-15014936D02*
X15028753Y-15024460D01*
X15028753Y-15024460D02*
X15009706Y-15033984D01*
X15009706Y-15033984D02*
X14981134Y-15033984D01*
X15162087Y-15033984D02*
X15143039Y-15024460D01*
X15143039Y-15024460D02*
X15133515Y-15005412D01*
X15133515Y-15005412D02*
X15133515Y-14833984D01*
X15314468Y-15024460D02*
X15295420Y-15033984D01*
X15295420Y-15033984D02*
X15257325Y-15033984D01*
X15257325Y-15033984D02*
X15238277Y-15024460D01*
X15238277Y-15024460D02*
X15228753Y-15005412D01*
X15228753Y-15005412D02*
X15228753Y-14929222D01*
X15228753Y-14929222D02*
X15238277Y-14910174D01*
X15238277Y-14910174D02*
X15257325Y-14900650D01*
X15257325Y-14900650D02*
X15295420Y-14900650D01*
X15295420Y-14900650D02*
X15314468Y-14910174D01*
X15314468Y-14910174D02*
X15323991Y-14929222D01*
X15323991Y-14929222D02*
X15323991Y-14948269D01*
X15323991Y-14948269D02*
X15228753Y-14967317D01*
X15400182Y-15024460D02*
X15419230Y-15033984D01*
X15419230Y-15033984D02*
X15457325Y-15033984D01*
X15457325Y-15033984D02*
X15476372Y-15024460D01*
X15476372Y-15024460D02*
X15485896Y-15005412D01*
X15485896Y-15005412D02*
X15485896Y-14995888D01*
X15485896Y-14995888D02*
X15476372Y-14976841D01*
X15476372Y-14976841D02*
X15457325Y-14967317D01*
X15457325Y-14967317D02*
X15428753Y-14967317D01*
X15428753Y-14967317D02*
X15409706Y-14957793D01*
X15409706Y-14957793D02*
X15400182Y-14938746D01*
X15400182Y-14938746D02*
X15400182Y-14929222D01*
X15400182Y-14929222D02*
X15409706Y-14910174D01*
X15409706Y-14910174D02*
X15428753Y-14900650D01*
X15428753Y-14900650D02*
X15457325Y-14900650D01*
X15457325Y-14900650D02*
X15476372Y-14910174D01*
X15552563Y-15110174D02*
X15562087Y-15100650D01*
X15562087Y-15100650D02*
X15581134Y-15072079D01*
X15581134Y-15072079D02*
X15590658Y-15053031D01*
X15590658Y-15053031D02*
X15600182Y-15024460D01*
X15600182Y-15024460D02*
X15609706Y-14976841D01*
X15609706Y-14976841D02*
X15609706Y-14938746D01*
X15609706Y-14938746D02*
X15600182Y-14891127D01*
X15600182Y-14891127D02*
X15590658Y-14862555D01*
X15590658Y-14862555D02*
X15581134Y-14843508D01*
X15581134Y-14843508D02*
X15562087Y-14814936D01*
X15562087Y-14814936D02*
X15552563Y-14805412D01*
X10577500Y-15162500D02*
X10777500Y-15362500D01*
X10777500Y-15162500D02*
X10577500Y-15362500D01*
X10748211Y-15333211D02*
X10748211Y-15191789D01*
X10606789Y-15191789D01*
X10606789Y-15333211D01*
X10748211Y-15333211D01*
X11019229Y-15153984D02*
X11143039Y-15153984D01*
X11143039Y-15153984D02*
X11076372Y-15230174D01*
X11076372Y-15230174D02*
X11104944Y-15230174D01*
X11104944Y-15230174D02*
X11123991Y-15239698D01*
X11123991Y-15239698D02*
X11133515Y-15249222D01*
X11133515Y-15249222D02*
X11143039Y-15268269D01*
X11143039Y-15268269D02*
X11143039Y-15315888D01*
X11143039Y-15315888D02*
X11133515Y-15334936D01*
X11133515Y-15334936D02*
X11123991Y-15344460D01*
X11123991Y-15344460D02*
X11104944Y-15353984D01*
X11104944Y-15353984D02*
X11047801Y-15353984D01*
X11047801Y-15353984D02*
X11028753Y-15344460D01*
X11028753Y-15344460D02*
X11019229Y-15334936D01*
X11228753Y-15334936D02*
X11238277Y-15344460D01*
X11238277Y-15344460D02*
X11228753Y-15353984D01*
X11228753Y-15353984D02*
X11219229Y-15344460D01*
X11219229Y-15344460D02*
X11228753Y-15334936D01*
X11228753Y-15334936D02*
X11228753Y-15353984D01*
X11362086Y-15153984D02*
X11381134Y-15153984D01*
X11381134Y-15153984D02*
X11400182Y-15163508D01*
X11400182Y-15163508D02*
X11409705Y-15173031D01*
X11409705Y-15173031D02*
X11419229Y-15192079D01*
X11419229Y-15192079D02*
X11428753Y-15230174D01*
X11428753Y-15230174D02*
X11428753Y-15277793D01*
X11428753Y-15277793D02*
X11419229Y-15315888D01*
X11419229Y-15315888D02*
X11409705Y-15334936D01*
X11409705Y-15334936D02*
X11400182Y-15344460D01*
X11400182Y-15344460D02*
X11381134Y-15353984D01*
X11381134Y-15353984D02*
X11362086Y-15353984D01*
X11362086Y-15353984D02*
X11343039Y-15344460D01*
X11343039Y-15344460D02*
X11333515Y-15334936D01*
X11333515Y-15334936D02*
X11323991Y-15315888D01*
X11323991Y-15315888D02*
X11314467Y-15277793D01*
X11314467Y-15277793D02*
X11314467Y-15230174D01*
X11314467Y-15230174D02*
X11323991Y-15192079D01*
X11323991Y-15192079D02*
X11333515Y-15173031D01*
X11333515Y-15173031D02*
X11343039Y-15163508D01*
X11343039Y-15163508D02*
X11362086Y-15153984D01*
X11552562Y-15153984D02*
X11571610Y-15153984D01*
X11571610Y-15153984D02*
X11590658Y-15163508D01*
X11590658Y-15163508D02*
X11600182Y-15173031D01*
X11600182Y-15173031D02*
X11609705Y-15192079D01*
X11609705Y-15192079D02*
X11619229Y-15230174D01*
X11619229Y-15230174D02*
X11619229Y-15277793D01*
X11619229Y-15277793D02*
X11609705Y-15315888D01*
X11609705Y-15315888D02*
X11600182Y-15334936D01*
X11600182Y-15334936D02*
X11590658Y-15344460D01*
X11590658Y-15344460D02*
X11571610Y-15353984D01*
X11571610Y-15353984D02*
X11552562Y-15353984D01*
X11552562Y-15353984D02*
X11533515Y-15344460D01*
X11533515Y-15344460D02*
X11523991Y-15334936D01*
X11523991Y-15334936D02*
X11514467Y-15315888D01*
X11514467Y-15315888D02*
X11504943Y-15277793D01*
X11504943Y-15277793D02*
X11504943Y-15230174D01*
X11504943Y-15230174D02*
X11514467Y-15192079D01*
X11514467Y-15192079D02*
X11523991Y-15173031D01*
X11523991Y-15173031D02*
X11533515Y-15163508D01*
X11533515Y-15163508D02*
X11552562Y-15153984D01*
X11743039Y-15153984D02*
X11762086Y-15153984D01*
X11762086Y-15153984D02*
X11781134Y-15163508D01*
X11781134Y-15163508D02*
X11790658Y-15173031D01*
X11790658Y-15173031D02*
X11800182Y-15192079D01*
X11800182Y-15192079D02*
X11809705Y-15230174D01*
X11809705Y-15230174D02*
X11809705Y-15277793D01*
X11809705Y-15277793D02*
X11800182Y-15315888D01*
X11800182Y-15315888D02*
X11790658Y-15334936D01*
X11790658Y-15334936D02*
X11781134Y-15344460D01*
X11781134Y-15344460D02*
X11762086Y-15353984D01*
X11762086Y-15353984D02*
X11743039Y-15353984D01*
X11743039Y-15353984D02*
X11723991Y-15344460D01*
X11723991Y-15344460D02*
X11714467Y-15334936D01*
X11714467Y-15334936D02*
X11704943Y-15315888D01*
X11704943Y-15315888D02*
X11695420Y-15277793D01*
X11695420Y-15277793D02*
X11695420Y-15230174D01*
X11695420Y-15230174D02*
X11704943Y-15192079D01*
X11704943Y-15192079D02*
X11714467Y-15173031D01*
X11714467Y-15173031D02*
X11723991Y-15163508D01*
X11723991Y-15163508D02*
X11743039Y-15153984D01*
X11895420Y-15353984D02*
X11895420Y-15220650D01*
X11895420Y-15239698D02*
X11904943Y-15230174D01*
X11904943Y-15230174D02*
X11923991Y-15220650D01*
X11923991Y-15220650D02*
X11952563Y-15220650D01*
X11952563Y-15220650D02*
X11971610Y-15230174D01*
X11971610Y-15230174D02*
X11981134Y-15249222D01*
X11981134Y-15249222D02*
X11981134Y-15353984D01*
X11981134Y-15249222D02*
X11990658Y-15230174D01*
X11990658Y-15230174D02*
X12009705Y-15220650D01*
X12009705Y-15220650D02*
X12038277Y-15220650D01*
X12038277Y-15220650D02*
X12057324Y-15230174D01*
X12057324Y-15230174D02*
X12066848Y-15249222D01*
X12066848Y-15249222D02*
X12066848Y-15353984D01*
X12162086Y-15353984D02*
X12162086Y-15220650D01*
X12162086Y-15239698D02*
X12171610Y-15230174D01*
X12171610Y-15230174D02*
X12190658Y-15220650D01*
X12190658Y-15220650D02*
X12219229Y-15220650D01*
X12219229Y-15220650D02*
X12238277Y-15230174D01*
X12238277Y-15230174D02*
X12247801Y-15249222D01*
X12247801Y-15249222D02*
X12247801Y-15353984D01*
X12247801Y-15249222D02*
X12257324Y-15230174D01*
X12257324Y-15230174D02*
X12276372Y-15220650D01*
X12276372Y-15220650D02*
X12304943Y-15220650D01*
X12304943Y-15220650D02*
X12323991Y-15230174D01*
X12323991Y-15230174D02*
X12333515Y-15249222D01*
X12333515Y-15249222D02*
X12333515Y-15353984D01*
X12723991Y-15144460D02*
X12552563Y-15401603D01*
X12981134Y-15153984D02*
X13000182Y-15153984D01*
X13000182Y-15153984D02*
X13019229Y-15163508D01*
X13019229Y-15163508D02*
X13028753Y-15173031D01*
X13028753Y-15173031D02*
X13038277Y-15192079D01*
X13038277Y-15192079D02*
X13047801Y-15230174D01*
X13047801Y-15230174D02*
X13047801Y-15277793D01*
X13047801Y-15277793D02*
X13038277Y-15315888D01*
X13038277Y-15315888D02*
X13028753Y-15334936D01*
X13028753Y-15334936D02*
X13019229Y-15344460D01*
X13019229Y-15344460D02*
X13000182Y-15353984D01*
X13000182Y-15353984D02*
X12981134Y-15353984D01*
X12981134Y-15353984D02*
X12962086Y-15344460D01*
X12962086Y-15344460D02*
X12952563Y-15334936D01*
X12952563Y-15334936D02*
X12943039Y-15315888D01*
X12943039Y-15315888D02*
X12933515Y-15277793D01*
X12933515Y-15277793D02*
X12933515Y-15230174D01*
X12933515Y-15230174D02*
X12943039Y-15192079D01*
X12943039Y-15192079D02*
X12952563Y-15173031D01*
X12952563Y-15173031D02*
X12962086Y-15163508D01*
X12962086Y-15163508D02*
X12981134Y-15153984D01*
X13133515Y-15334936D02*
X13143039Y-15344460D01*
X13143039Y-15344460D02*
X13133515Y-15353984D01*
X13133515Y-15353984D02*
X13123991Y-15344460D01*
X13123991Y-15344460D02*
X13133515Y-15334936D01*
X13133515Y-15334936D02*
X13133515Y-15353984D01*
X13333515Y-15353984D02*
X13219229Y-15353984D01*
X13276372Y-15353984D02*
X13276372Y-15153984D01*
X13276372Y-15153984D02*
X13257325Y-15182555D01*
X13257325Y-15182555D02*
X13238277Y-15201603D01*
X13238277Y-15201603D02*
X13219229Y-15211127D01*
X13523991Y-15353984D02*
X13409706Y-15353984D01*
X13466848Y-15353984D02*
X13466848Y-15153984D01*
X13466848Y-15153984D02*
X13447801Y-15182555D01*
X13447801Y-15182555D02*
X13428753Y-15201603D01*
X13428753Y-15201603D02*
X13409706Y-15211127D01*
X13638277Y-15239698D02*
X13619229Y-15230174D01*
X13619229Y-15230174D02*
X13609706Y-15220650D01*
X13609706Y-15220650D02*
X13600182Y-15201603D01*
X13600182Y-15201603D02*
X13600182Y-15192079D01*
X13600182Y-15192079D02*
X13609706Y-15173031D01*
X13609706Y-15173031D02*
X13619229Y-15163508D01*
X13619229Y-15163508D02*
X13638277Y-15153984D01*
X13638277Y-15153984D02*
X13676372Y-15153984D01*
X13676372Y-15153984D02*
X13695420Y-15163508D01*
X13695420Y-15163508D02*
X13704944Y-15173031D01*
X13704944Y-15173031D02*
X13714467Y-15192079D01*
X13714467Y-15192079D02*
X13714467Y-15201603D01*
X13714467Y-15201603D02*
X13704944Y-15220650D01*
X13704944Y-15220650D02*
X13695420Y-15230174D01*
X13695420Y-15230174D02*
X13676372Y-15239698D01*
X13676372Y-15239698D02*
X13638277Y-15239698D01*
X13638277Y-15239698D02*
X13619229Y-15249222D01*
X13619229Y-15249222D02*
X13609706Y-15258746D01*
X13609706Y-15258746D02*
X13600182Y-15277793D01*
X13600182Y-15277793D02*
X13600182Y-15315888D01*
X13600182Y-15315888D02*
X13609706Y-15334936D01*
X13609706Y-15334936D02*
X13619229Y-15344460D01*
X13619229Y-15344460D02*
X13638277Y-15353984D01*
X13638277Y-15353984D02*
X13676372Y-15353984D01*
X13676372Y-15353984D02*
X13695420Y-15344460D01*
X13695420Y-15344460D02*
X13704944Y-15334936D01*
X13704944Y-15334936D02*
X13714467Y-15315888D01*
X13714467Y-15315888D02*
X13714467Y-15277793D01*
X13714467Y-15277793D02*
X13704944Y-15258746D01*
X13704944Y-15258746D02*
X13695420Y-15249222D01*
X13695420Y-15249222D02*
X13676372Y-15239698D01*
X13904944Y-15353984D02*
X13790658Y-15353984D01*
X13847801Y-15353984D02*
X13847801Y-15153984D01*
X13847801Y-15153984D02*
X13828753Y-15182555D01*
X13828753Y-15182555D02*
X13809706Y-15201603D01*
X13809706Y-15201603D02*
X13790658Y-15211127D01*
X13981134Y-15153984D02*
X13981134Y-15192079D01*
X14057325Y-15153984D02*
X14057325Y-15192079D01*
X14352563Y-15430174D02*
X14343039Y-15420650D01*
X14343039Y-15420650D02*
X14323991Y-15392079D01*
X14323991Y-15392079D02*
X14314468Y-15373031D01*
X14314468Y-15373031D02*
X14304944Y-15344460D01*
X14304944Y-15344460D02*
X14295420Y-15296841D01*
X14295420Y-15296841D02*
X14295420Y-15258746D01*
X14295420Y-15258746D02*
X14304944Y-15211127D01*
X14304944Y-15211127D02*
X14314468Y-15182555D01*
X14314468Y-15182555D02*
X14323991Y-15163508D01*
X14323991Y-15163508D02*
X14343039Y-15134936D01*
X14343039Y-15134936D02*
X14352563Y-15125412D01*
X14514468Y-15220650D02*
X14514468Y-15353984D01*
X14466848Y-15144460D02*
X14419229Y-15287317D01*
X14419229Y-15287317D02*
X14543039Y-15287317D01*
X14771610Y-15353984D02*
X14771610Y-15153984D01*
X14857325Y-15353984D02*
X14857325Y-15249222D01*
X14857325Y-15249222D02*
X14847801Y-15230174D01*
X14847801Y-15230174D02*
X14828753Y-15220650D01*
X14828753Y-15220650D02*
X14800182Y-15220650D01*
X14800182Y-15220650D02*
X14781134Y-15230174D01*
X14781134Y-15230174D02*
X14771610Y-15239698D01*
X14981134Y-15353984D02*
X14962087Y-15344460D01*
X14962087Y-15344460D02*
X14952563Y-15334936D01*
X14952563Y-15334936D02*
X14943039Y-15315888D01*
X14943039Y-15315888D02*
X14943039Y-15258746D01*
X14943039Y-15258746D02*
X14952563Y-15239698D01*
X14952563Y-15239698D02*
X14962087Y-15230174D01*
X14962087Y-15230174D02*
X14981134Y-15220650D01*
X14981134Y-15220650D02*
X15009706Y-15220650D01*
X15009706Y-15220650D02*
X15028753Y-15230174D01*
X15028753Y-15230174D02*
X15038277Y-15239698D01*
X15038277Y-15239698D02*
X15047801Y-15258746D01*
X15047801Y-15258746D02*
X15047801Y-15315888D01*
X15047801Y-15315888D02*
X15038277Y-15334936D01*
X15038277Y-15334936D02*
X15028753Y-15344460D01*
X15028753Y-15344460D02*
X15009706Y-15353984D01*
X15009706Y-15353984D02*
X14981134Y-15353984D01*
X15162087Y-15353984D02*
X15143039Y-15344460D01*
X15143039Y-15344460D02*
X15133515Y-15325412D01*
X15133515Y-15325412D02*
X15133515Y-15153984D01*
X15314468Y-15344460D02*
X15295420Y-15353984D01*
X15295420Y-15353984D02*
X15257325Y-15353984D01*
X15257325Y-15353984D02*
X15238277Y-15344460D01*
X15238277Y-15344460D02*
X15228753Y-15325412D01*
X15228753Y-15325412D02*
X15228753Y-15249222D01*
X15228753Y-15249222D02*
X15238277Y-15230174D01*
X15238277Y-15230174D02*
X15257325Y-15220650D01*
X15257325Y-15220650D02*
X15295420Y-15220650D01*
X15295420Y-15220650D02*
X15314468Y-15230174D01*
X15314468Y-15230174D02*
X15323991Y-15249222D01*
X15323991Y-15249222D02*
X15323991Y-15268269D01*
X15323991Y-15268269D02*
X15228753Y-15287317D01*
X15400182Y-15344460D02*
X15419230Y-15353984D01*
X15419230Y-15353984D02*
X15457325Y-15353984D01*
X15457325Y-15353984D02*
X15476372Y-15344460D01*
X15476372Y-15344460D02*
X15485896Y-15325412D01*
X15485896Y-15325412D02*
X15485896Y-15315888D01*
X15485896Y-15315888D02*
X15476372Y-15296841D01*
X15476372Y-15296841D02*
X15457325Y-15287317D01*
X15457325Y-15287317D02*
X15428753Y-15287317D01*
X15428753Y-15287317D02*
X15409706Y-15277793D01*
X15409706Y-15277793D02*
X15400182Y-15258746D01*
X15400182Y-15258746D02*
X15400182Y-15249222D01*
X15400182Y-15249222D02*
X15409706Y-15230174D01*
X15409706Y-15230174D02*
X15428753Y-15220650D01*
X15428753Y-15220650D02*
X15457325Y-15220650D01*
X15457325Y-15220650D02*
X15476372Y-15230174D01*
X15552563Y-15430174D02*
X15562087Y-15420650D01*
X15562087Y-15420650D02*
X15581134Y-15392079D01*
X15581134Y-15392079D02*
X15590658Y-15373031D01*
X15590658Y-15373031D02*
X15600182Y-15344460D01*
X15600182Y-15344460D02*
X15609706Y-15296841D01*
X15609706Y-15296841D02*
X15609706Y-15258746D01*
X15609706Y-15258746D02*
X15600182Y-15211127D01*
X15600182Y-15211127D02*
X15590658Y-15182555D01*
X15590658Y-15182555D02*
X15581134Y-15163508D01*
X15581134Y-15163508D02*
X15562087Y-15134936D01*
X15562087Y-15134936D02*
X15552563Y-15125412D01*
M02*
