%TF.GenerationSoftware,KiCad,Pcbnew,7.0.10*%
%TF.CreationDate,2024-11-29T16:24:07-07:00*%
%TF.ProjectId,PiTrac Connector Board,50695472-6163-4204-936f-6e6e6563746f,rev?*%
%TF.SameCoordinates,Original*%
%TF.FileFunction,Drillmap*%
%TF.FilePolarity,Positive*%
%FSLAX45Y45*%
G04 Gerber Fmt 4.5, Leading zero omitted, Abs format (unit mm)*
G04 Created by KiCad (PCBNEW 7.0.10) date 2024-11-29 16:24:07*
%MOMM*%
%LPD*%
G01*
G04 APERTURE LIST*
%ADD10C,0.050000*%
%ADD11C,0.200000*%
G04 APERTURE END LIST*
D10*
X10780000Y-7660000D02*
X17780000Y-7660000D01*
X17780000Y-12660000D01*
X10780000Y-12660000D01*
X10780000Y-7660000D01*
D11*
X11038277Y-12973984D02*
X11038277Y-12773984D01*
X11038277Y-12773984D02*
X11085896Y-12773984D01*
X11085896Y-12773984D02*
X11114467Y-12783508D01*
X11114467Y-12783508D02*
X11133515Y-12802555D01*
X11133515Y-12802555D02*
X11143039Y-12821603D01*
X11143039Y-12821603D02*
X11152563Y-12859698D01*
X11152563Y-12859698D02*
X11152563Y-12888269D01*
X11152563Y-12888269D02*
X11143039Y-12926365D01*
X11143039Y-12926365D02*
X11133515Y-12945412D01*
X11133515Y-12945412D02*
X11114467Y-12964460D01*
X11114467Y-12964460D02*
X11085896Y-12973984D01*
X11085896Y-12973984D02*
X11038277Y-12973984D01*
X11238277Y-12973984D02*
X11238277Y-12840650D01*
X11238277Y-12878746D02*
X11247801Y-12859698D01*
X11247801Y-12859698D02*
X11257324Y-12850174D01*
X11257324Y-12850174D02*
X11276372Y-12840650D01*
X11276372Y-12840650D02*
X11295420Y-12840650D01*
X11362086Y-12973984D02*
X11362086Y-12840650D01*
X11362086Y-12773984D02*
X11352562Y-12783508D01*
X11352562Y-12783508D02*
X11362086Y-12793031D01*
X11362086Y-12793031D02*
X11371610Y-12783508D01*
X11371610Y-12783508D02*
X11362086Y-12773984D01*
X11362086Y-12773984D02*
X11362086Y-12793031D01*
X11485896Y-12973984D02*
X11466848Y-12964460D01*
X11466848Y-12964460D02*
X11457324Y-12945412D01*
X11457324Y-12945412D02*
X11457324Y-12773984D01*
X11590658Y-12973984D02*
X11571610Y-12964460D01*
X11571610Y-12964460D02*
X11562086Y-12945412D01*
X11562086Y-12945412D02*
X11562086Y-12773984D01*
X11819229Y-12973984D02*
X11819229Y-12773984D01*
X11819229Y-12773984D02*
X11885896Y-12916841D01*
X11885896Y-12916841D02*
X11952562Y-12773984D01*
X11952562Y-12773984D02*
X11952562Y-12973984D01*
X12133515Y-12973984D02*
X12133515Y-12869222D01*
X12133515Y-12869222D02*
X12123991Y-12850174D01*
X12123991Y-12850174D02*
X12104943Y-12840650D01*
X12104943Y-12840650D02*
X12066848Y-12840650D01*
X12066848Y-12840650D02*
X12047801Y-12850174D01*
X12133515Y-12964460D02*
X12114467Y-12973984D01*
X12114467Y-12973984D02*
X12066848Y-12973984D01*
X12066848Y-12973984D02*
X12047801Y-12964460D01*
X12047801Y-12964460D02*
X12038277Y-12945412D01*
X12038277Y-12945412D02*
X12038277Y-12926365D01*
X12038277Y-12926365D02*
X12047801Y-12907317D01*
X12047801Y-12907317D02*
X12066848Y-12897793D01*
X12066848Y-12897793D02*
X12114467Y-12897793D01*
X12114467Y-12897793D02*
X12133515Y-12888269D01*
X12228753Y-12840650D02*
X12228753Y-13040650D01*
X12228753Y-12850174D02*
X12247801Y-12840650D01*
X12247801Y-12840650D02*
X12285896Y-12840650D01*
X12285896Y-12840650D02*
X12304943Y-12850174D01*
X12304943Y-12850174D02*
X12314467Y-12859698D01*
X12314467Y-12859698D02*
X12323991Y-12878746D01*
X12323991Y-12878746D02*
X12323991Y-12935888D01*
X12323991Y-12935888D02*
X12314467Y-12954936D01*
X12314467Y-12954936D02*
X12304943Y-12964460D01*
X12304943Y-12964460D02*
X12285896Y-12973984D01*
X12285896Y-12973984D02*
X12247801Y-12973984D01*
X12247801Y-12973984D02*
X12228753Y-12964460D01*
X12409705Y-12954936D02*
X12419229Y-12964460D01*
X12419229Y-12964460D02*
X12409705Y-12973984D01*
X12409705Y-12973984D02*
X12400182Y-12964460D01*
X12400182Y-12964460D02*
X12409705Y-12954936D01*
X12409705Y-12954936D02*
X12409705Y-12973984D01*
X12409705Y-12850174D02*
X12419229Y-12859698D01*
X12419229Y-12859698D02*
X12409705Y-12869222D01*
X12409705Y-12869222D02*
X12400182Y-12859698D01*
X12400182Y-12859698D02*
X12409705Y-12850174D01*
X12409705Y-12850174D02*
X12409705Y-12869222D01*
M02*
