%TF.GenerationSoftware,KiCad,Pcbnew,7.0.10*%
%TF.CreationDate,2024-11-29T16:25:44-07:00*%
%TF.ProjectId,PiTrac Connector Board,50695472-6163-4204-936f-6e6e6563746f,rev?*%
%TF.SameCoordinates,Original*%
%TF.FileFunction,Legend,Top*%
%TF.FilePolarity,Positive*%
%FSLAX46Y46*%
G04 Gerber Fmt 4.6, Leading zero omitted, Abs format (unit mm)*
G04 Created by KiCad (PCBNEW 7.0.10) date 2024-11-29 16:25:44*
%MOMM*%
%LPD*%
G01*
G04 APERTURE LIST*
%ADD10C,0.125000*%
%ADD11C,0.150000*%
%ADD12C,0.300000*%
%ADD13C,0.340000*%
%ADD14C,0.100000*%
%ADD15C,0.200000*%
%ADD16C,0.120000*%
G04 APERTURE END LIST*
D10*
X139320331Y-122368216D02*
X139320331Y-121368216D01*
X139320331Y-121368216D02*
X139558426Y-121368216D01*
X139558426Y-121368216D02*
X139701283Y-121415835D01*
X139701283Y-121415835D02*
X139796521Y-121511073D01*
X139796521Y-121511073D02*
X139844140Y-121606311D01*
X139844140Y-121606311D02*
X139891759Y-121796787D01*
X139891759Y-121796787D02*
X139891759Y-121939644D01*
X139891759Y-121939644D02*
X139844140Y-122130120D01*
X139844140Y-122130120D02*
X139796521Y-122225358D01*
X139796521Y-122225358D02*
X139701283Y-122320597D01*
X139701283Y-122320597D02*
X139558426Y-122368216D01*
X139558426Y-122368216D02*
X139320331Y-122368216D01*
X140748902Y-121701549D02*
X140748902Y-122368216D01*
X140320331Y-121701549D02*
X140320331Y-122225358D01*
X140320331Y-122225358D02*
X140367950Y-122320597D01*
X140367950Y-122320597D02*
X140463188Y-122368216D01*
X140463188Y-122368216D02*
X140606045Y-122368216D01*
X140606045Y-122368216D02*
X140701283Y-122320597D01*
X140701283Y-122320597D02*
X140748902Y-122272977D01*
X141653664Y-122368216D02*
X141653664Y-121844406D01*
X141653664Y-121844406D02*
X141606045Y-121749168D01*
X141606045Y-121749168D02*
X141510807Y-121701549D01*
X141510807Y-121701549D02*
X141320331Y-121701549D01*
X141320331Y-121701549D02*
X141225093Y-121749168D01*
X141653664Y-122320597D02*
X141558426Y-122368216D01*
X141558426Y-122368216D02*
X141320331Y-122368216D01*
X141320331Y-122368216D02*
X141225093Y-122320597D01*
X141225093Y-122320597D02*
X141177474Y-122225358D01*
X141177474Y-122225358D02*
X141177474Y-122130120D01*
X141177474Y-122130120D02*
X141225093Y-122034882D01*
X141225093Y-122034882D02*
X141320331Y-121987263D01*
X141320331Y-121987263D02*
X141558426Y-121987263D01*
X141558426Y-121987263D02*
X141653664Y-121939644D01*
X142272712Y-122368216D02*
X142177474Y-122320597D01*
X142177474Y-122320597D02*
X142129855Y-122225358D01*
X142129855Y-122225358D02*
X142129855Y-121368216D01*
X143415570Y-122368216D02*
X143415570Y-121368216D01*
X143415570Y-121368216D02*
X143748903Y-122082501D01*
X143748903Y-122082501D02*
X144082236Y-121368216D01*
X144082236Y-121368216D02*
X144082236Y-122368216D01*
X144748903Y-121368216D02*
X144939379Y-121368216D01*
X144939379Y-121368216D02*
X145034617Y-121415835D01*
X145034617Y-121415835D02*
X145129855Y-121511073D01*
X145129855Y-121511073D02*
X145177474Y-121701549D01*
X145177474Y-121701549D02*
X145177474Y-122034882D01*
X145177474Y-122034882D02*
X145129855Y-122225358D01*
X145129855Y-122225358D02*
X145034617Y-122320597D01*
X145034617Y-122320597D02*
X144939379Y-122368216D01*
X144939379Y-122368216D02*
X144748903Y-122368216D01*
X144748903Y-122368216D02*
X144653665Y-122320597D01*
X144653665Y-122320597D02*
X144558427Y-122225358D01*
X144558427Y-122225358D02*
X144510808Y-122034882D01*
X144510808Y-122034882D02*
X144510808Y-121701549D01*
X144510808Y-121701549D02*
X144558427Y-121511073D01*
X144558427Y-121511073D02*
X144653665Y-121415835D01*
X144653665Y-121415835D02*
X144748903Y-121368216D01*
X145558427Y-122320597D02*
X145701284Y-122368216D01*
X145701284Y-122368216D02*
X145939379Y-122368216D01*
X145939379Y-122368216D02*
X146034617Y-122320597D01*
X146034617Y-122320597D02*
X146082236Y-122272977D01*
X146082236Y-122272977D02*
X146129855Y-122177739D01*
X146129855Y-122177739D02*
X146129855Y-122082501D01*
X146129855Y-122082501D02*
X146082236Y-121987263D01*
X146082236Y-121987263D02*
X146034617Y-121939644D01*
X146034617Y-121939644D02*
X145939379Y-121892025D01*
X145939379Y-121892025D02*
X145748903Y-121844406D01*
X145748903Y-121844406D02*
X145653665Y-121796787D01*
X145653665Y-121796787D02*
X145606046Y-121749168D01*
X145606046Y-121749168D02*
X145558427Y-121653930D01*
X145558427Y-121653930D02*
X145558427Y-121558692D01*
X145558427Y-121558692D02*
X145606046Y-121463454D01*
X145606046Y-121463454D02*
X145653665Y-121415835D01*
X145653665Y-121415835D02*
X145748903Y-121368216D01*
X145748903Y-121368216D02*
X145986998Y-121368216D01*
X145986998Y-121368216D02*
X146129855Y-121415835D01*
X147320332Y-122368216D02*
X147320332Y-121368216D01*
X147320332Y-121368216D02*
X147558427Y-121368216D01*
X147558427Y-121368216D02*
X147701284Y-121415835D01*
X147701284Y-121415835D02*
X147796522Y-121511073D01*
X147796522Y-121511073D02*
X147844141Y-121606311D01*
X147844141Y-121606311D02*
X147891760Y-121796787D01*
X147891760Y-121796787D02*
X147891760Y-121939644D01*
X147891760Y-121939644D02*
X147844141Y-122130120D01*
X147844141Y-122130120D02*
X147796522Y-122225358D01*
X147796522Y-122225358D02*
X147701284Y-122320597D01*
X147701284Y-122320597D02*
X147558427Y-122368216D01*
X147558427Y-122368216D02*
X147320332Y-122368216D01*
X148320332Y-122368216D02*
X148320332Y-121701549D01*
X148320332Y-121892025D02*
X148367951Y-121796787D01*
X148367951Y-121796787D02*
X148415570Y-121749168D01*
X148415570Y-121749168D02*
X148510808Y-121701549D01*
X148510808Y-121701549D02*
X148606046Y-121701549D01*
X148939380Y-122368216D02*
X148939380Y-121701549D01*
X148939380Y-121368216D02*
X148891761Y-121415835D01*
X148891761Y-121415835D02*
X148939380Y-121463454D01*
X148939380Y-121463454D02*
X148986999Y-121415835D01*
X148986999Y-121415835D02*
X148939380Y-121368216D01*
X148939380Y-121368216D02*
X148939380Y-121463454D01*
X149320332Y-121701549D02*
X149558427Y-122368216D01*
X149558427Y-122368216D02*
X149796522Y-121701549D01*
X150558427Y-122320597D02*
X150463189Y-122368216D01*
X150463189Y-122368216D02*
X150272713Y-122368216D01*
X150272713Y-122368216D02*
X150177475Y-122320597D01*
X150177475Y-122320597D02*
X150129856Y-122225358D01*
X150129856Y-122225358D02*
X150129856Y-121844406D01*
X150129856Y-121844406D02*
X150177475Y-121749168D01*
X150177475Y-121749168D02*
X150272713Y-121701549D01*
X150272713Y-121701549D02*
X150463189Y-121701549D01*
X150463189Y-121701549D02*
X150558427Y-121749168D01*
X150558427Y-121749168D02*
X150606046Y-121844406D01*
X150606046Y-121844406D02*
X150606046Y-121939644D01*
X150606046Y-121939644D02*
X150129856Y-122034882D01*
X151034618Y-122368216D02*
X151034618Y-121701549D01*
X151034618Y-121892025D02*
X151082237Y-121796787D01*
X151082237Y-121796787D02*
X151129856Y-121749168D01*
X151129856Y-121749168D02*
X151225094Y-121701549D01*
X151225094Y-121701549D02*
X151320332Y-121701549D01*
X152415571Y-122368216D02*
X152415571Y-121368216D01*
X152415571Y-121368216D02*
X152748904Y-122082501D01*
X152748904Y-122082501D02*
X153082237Y-121368216D01*
X153082237Y-121368216D02*
X153082237Y-122368216D01*
X153701285Y-122368216D02*
X153606047Y-122320597D01*
X153606047Y-122320597D02*
X153558428Y-122272977D01*
X153558428Y-122272977D02*
X153510809Y-122177739D01*
X153510809Y-122177739D02*
X153510809Y-121892025D01*
X153510809Y-121892025D02*
X153558428Y-121796787D01*
X153558428Y-121796787D02*
X153606047Y-121749168D01*
X153606047Y-121749168D02*
X153701285Y-121701549D01*
X153701285Y-121701549D02*
X153844142Y-121701549D01*
X153844142Y-121701549D02*
X153939380Y-121749168D01*
X153939380Y-121749168D02*
X153986999Y-121796787D01*
X153986999Y-121796787D02*
X154034618Y-121892025D01*
X154034618Y-121892025D02*
X154034618Y-122177739D01*
X154034618Y-122177739D02*
X153986999Y-122272977D01*
X153986999Y-122272977D02*
X153939380Y-122320597D01*
X153939380Y-122320597D02*
X153844142Y-122368216D01*
X153844142Y-122368216D02*
X153701285Y-122368216D01*
X154891761Y-122368216D02*
X154891761Y-121368216D01*
X154891761Y-122320597D02*
X154796523Y-122368216D01*
X154796523Y-122368216D02*
X154606047Y-122368216D01*
X154606047Y-122368216D02*
X154510809Y-122320597D01*
X154510809Y-122320597D02*
X154463190Y-122272977D01*
X154463190Y-122272977D02*
X154415571Y-122177739D01*
X154415571Y-122177739D02*
X154415571Y-121892025D01*
X154415571Y-121892025D02*
X154463190Y-121796787D01*
X154463190Y-121796787D02*
X154510809Y-121749168D01*
X154510809Y-121749168D02*
X154606047Y-121701549D01*
X154606047Y-121701549D02*
X154796523Y-121701549D01*
X154796523Y-121701549D02*
X154891761Y-121749168D01*
X155796523Y-121701549D02*
X155796523Y-122368216D01*
X155367952Y-121701549D02*
X155367952Y-122225358D01*
X155367952Y-122225358D02*
X155415571Y-122320597D01*
X155415571Y-122320597D02*
X155510809Y-122368216D01*
X155510809Y-122368216D02*
X155653666Y-122368216D01*
X155653666Y-122368216D02*
X155748904Y-122320597D01*
X155748904Y-122320597D02*
X155796523Y-122272977D01*
X156415571Y-122368216D02*
X156320333Y-122320597D01*
X156320333Y-122320597D02*
X156272714Y-122225358D01*
X156272714Y-122225358D02*
X156272714Y-121368216D01*
X157177476Y-122320597D02*
X157082238Y-122368216D01*
X157082238Y-122368216D02*
X156891762Y-122368216D01*
X156891762Y-122368216D02*
X156796524Y-122320597D01*
X156796524Y-122320597D02*
X156748905Y-122225358D01*
X156748905Y-122225358D02*
X156748905Y-121844406D01*
X156748905Y-121844406D02*
X156796524Y-121749168D01*
X156796524Y-121749168D02*
X156891762Y-121701549D01*
X156891762Y-121701549D02*
X157082238Y-121701549D01*
X157082238Y-121701549D02*
X157177476Y-121749168D01*
X157177476Y-121749168D02*
X157225095Y-121844406D01*
X157225095Y-121844406D02*
X157225095Y-121939644D01*
X157225095Y-121939644D02*
X156748905Y-122034882D01*
D11*
X175263283Y-89755732D02*
X175187093Y-89717637D01*
X175187093Y-89717637D02*
X175072807Y-89717637D01*
X175072807Y-89717637D02*
X174958521Y-89755732D01*
X174958521Y-89755732D02*
X174882331Y-89831922D01*
X174882331Y-89831922D02*
X174844236Y-89908113D01*
X174844236Y-89908113D02*
X174806140Y-90060494D01*
X174806140Y-90060494D02*
X174806140Y-90174780D01*
X174806140Y-90174780D02*
X174844236Y-90327161D01*
X174844236Y-90327161D02*
X174882331Y-90403351D01*
X174882331Y-90403351D02*
X174958521Y-90479542D01*
X174958521Y-90479542D02*
X175072807Y-90517637D01*
X175072807Y-90517637D02*
X175148998Y-90517637D01*
X175148998Y-90517637D02*
X175263283Y-90479542D01*
X175263283Y-90479542D02*
X175301379Y-90441446D01*
X175301379Y-90441446D02*
X175301379Y-90174780D01*
X175301379Y-90174780D02*
X175148998Y-90174780D01*
X175644236Y-89984303D02*
X175644236Y-90517637D01*
X175644236Y-90060494D02*
X175682331Y-90022399D01*
X175682331Y-90022399D02*
X175758521Y-89984303D01*
X175758521Y-89984303D02*
X175872807Y-89984303D01*
X175872807Y-89984303D02*
X175948998Y-90022399D01*
X175948998Y-90022399D02*
X175987093Y-90098589D01*
X175987093Y-90098589D02*
X175987093Y-90517637D01*
X176710903Y-90517637D02*
X176710903Y-89717637D01*
X176710903Y-90479542D02*
X176634712Y-90517637D01*
X176634712Y-90517637D02*
X176482331Y-90517637D01*
X176482331Y-90517637D02*
X176406141Y-90479542D01*
X176406141Y-90479542D02*
X176368046Y-90441446D01*
X176368046Y-90441446D02*
X176329950Y-90365256D01*
X176329950Y-90365256D02*
X176329950Y-90136684D01*
X176329950Y-90136684D02*
X176368046Y-90060494D01*
X176368046Y-90060494D02*
X176406141Y-90022399D01*
X176406141Y-90022399D02*
X176482331Y-89984303D01*
X176482331Y-89984303D02*
X176634712Y-89984303D01*
X176634712Y-89984303D02*
X176710903Y-90022399D01*
X137485714Y-79147200D02*
X137628571Y-79194819D01*
X137628571Y-79194819D02*
X137866666Y-79194819D01*
X137866666Y-79194819D02*
X137961904Y-79147200D01*
X137961904Y-79147200D02*
X138009523Y-79099580D01*
X138009523Y-79099580D02*
X138057142Y-79004342D01*
X138057142Y-79004342D02*
X138057142Y-78909104D01*
X138057142Y-78909104D02*
X138009523Y-78813866D01*
X138009523Y-78813866D02*
X137961904Y-78766247D01*
X137961904Y-78766247D02*
X137866666Y-78718628D01*
X137866666Y-78718628D02*
X137676190Y-78671009D01*
X137676190Y-78671009D02*
X137580952Y-78623390D01*
X137580952Y-78623390D02*
X137533333Y-78575771D01*
X137533333Y-78575771D02*
X137485714Y-78480533D01*
X137485714Y-78480533D02*
X137485714Y-78385295D01*
X137485714Y-78385295D02*
X137533333Y-78290057D01*
X137533333Y-78290057D02*
X137580952Y-78242438D01*
X137580952Y-78242438D02*
X137676190Y-78194819D01*
X137676190Y-78194819D02*
X137914285Y-78194819D01*
X137914285Y-78194819D02*
X138057142Y-78242438D01*
X138342857Y-78528152D02*
X138723809Y-78528152D01*
X138485714Y-78194819D02*
X138485714Y-79051961D01*
X138485714Y-79051961D02*
X138533333Y-79147200D01*
X138533333Y-79147200D02*
X138628571Y-79194819D01*
X138628571Y-79194819D02*
X138723809Y-79194819D01*
X139057143Y-79194819D02*
X139057143Y-78528152D01*
X139057143Y-78718628D02*
X139104762Y-78623390D01*
X139104762Y-78623390D02*
X139152381Y-78575771D01*
X139152381Y-78575771D02*
X139247619Y-78528152D01*
X139247619Y-78528152D02*
X139342857Y-78528152D01*
X139819048Y-79194819D02*
X139723810Y-79147200D01*
X139723810Y-79147200D02*
X139676191Y-79099580D01*
X139676191Y-79099580D02*
X139628572Y-79004342D01*
X139628572Y-79004342D02*
X139628572Y-78718628D01*
X139628572Y-78718628D02*
X139676191Y-78623390D01*
X139676191Y-78623390D02*
X139723810Y-78575771D01*
X139723810Y-78575771D02*
X139819048Y-78528152D01*
X139819048Y-78528152D02*
X139961905Y-78528152D01*
X139961905Y-78528152D02*
X140057143Y-78575771D01*
X140057143Y-78575771D02*
X140104762Y-78623390D01*
X140104762Y-78623390D02*
X140152381Y-78718628D01*
X140152381Y-78718628D02*
X140152381Y-79004342D01*
X140152381Y-79004342D02*
X140104762Y-79099580D01*
X140104762Y-79099580D02*
X140057143Y-79147200D01*
X140057143Y-79147200D02*
X139961905Y-79194819D01*
X139961905Y-79194819D02*
X139819048Y-79194819D01*
X140580953Y-79194819D02*
X140580953Y-78194819D01*
X140580953Y-78575771D02*
X140676191Y-78528152D01*
X140676191Y-78528152D02*
X140866667Y-78528152D01*
X140866667Y-78528152D02*
X140961905Y-78575771D01*
X140961905Y-78575771D02*
X141009524Y-78623390D01*
X141009524Y-78623390D02*
X141057143Y-78718628D01*
X141057143Y-78718628D02*
X141057143Y-79004342D01*
X141057143Y-79004342D02*
X141009524Y-79099580D01*
X141009524Y-79099580D02*
X140961905Y-79147200D01*
X140961905Y-79147200D02*
X140866667Y-79194819D01*
X140866667Y-79194819D02*
X140676191Y-79194819D01*
X140676191Y-79194819D02*
X140580953Y-79147200D01*
X141866667Y-79147200D02*
X141771429Y-79194819D01*
X141771429Y-79194819D02*
X141580953Y-79194819D01*
X141580953Y-79194819D02*
X141485715Y-79147200D01*
X141485715Y-79147200D02*
X141438096Y-79051961D01*
X141438096Y-79051961D02*
X141438096Y-78671009D01*
X141438096Y-78671009D02*
X141485715Y-78575771D01*
X141485715Y-78575771D02*
X141580953Y-78528152D01*
X141580953Y-78528152D02*
X141771429Y-78528152D01*
X141771429Y-78528152D02*
X141866667Y-78575771D01*
X141866667Y-78575771D02*
X141914286Y-78671009D01*
X141914286Y-78671009D02*
X141914286Y-78766247D01*
X141914286Y-78766247D02*
X141438096Y-78861485D01*
X110324103Y-86961369D02*
X110438389Y-86999464D01*
X110438389Y-86999464D02*
X110628865Y-86999464D01*
X110628865Y-86999464D02*
X110705056Y-86961369D01*
X110705056Y-86961369D02*
X110743151Y-86923273D01*
X110743151Y-86923273D02*
X110781246Y-86847083D01*
X110781246Y-86847083D02*
X110781246Y-86770892D01*
X110781246Y-86770892D02*
X110743151Y-86694702D01*
X110743151Y-86694702D02*
X110705056Y-86656607D01*
X110705056Y-86656607D02*
X110628865Y-86618511D01*
X110628865Y-86618511D02*
X110476484Y-86580416D01*
X110476484Y-86580416D02*
X110400294Y-86542321D01*
X110400294Y-86542321D02*
X110362199Y-86504226D01*
X110362199Y-86504226D02*
X110324103Y-86428035D01*
X110324103Y-86428035D02*
X110324103Y-86351845D01*
X110324103Y-86351845D02*
X110362199Y-86275654D01*
X110362199Y-86275654D02*
X110400294Y-86237559D01*
X110400294Y-86237559D02*
X110476484Y-86199464D01*
X110476484Y-86199464D02*
X110666961Y-86199464D01*
X110666961Y-86199464D02*
X110781246Y-86237559D01*
X111124104Y-86999464D02*
X111124104Y-86199464D01*
X111466961Y-86999464D02*
X111466961Y-86580416D01*
X111466961Y-86580416D02*
X111428866Y-86504226D01*
X111428866Y-86504226D02*
X111352675Y-86466130D01*
X111352675Y-86466130D02*
X111238389Y-86466130D01*
X111238389Y-86466130D02*
X111162199Y-86504226D01*
X111162199Y-86504226D02*
X111124104Y-86542321D01*
X111733628Y-86466130D02*
X112038390Y-86466130D01*
X111847914Y-86199464D02*
X111847914Y-86885178D01*
X111847914Y-86885178D02*
X111886009Y-86961369D01*
X111886009Y-86961369D02*
X111962199Y-86999464D01*
X111962199Y-86999464D02*
X112038390Y-86999464D01*
X112305057Y-86999464D02*
X112305057Y-86466130D01*
X112305057Y-86618511D02*
X112343152Y-86542321D01*
X112343152Y-86542321D02*
X112381247Y-86504226D01*
X112381247Y-86504226D02*
X112457438Y-86466130D01*
X112457438Y-86466130D02*
X112533628Y-86466130D01*
X142095013Y-88035161D02*
X142247394Y-88035161D01*
X142247394Y-88035161D02*
X142323584Y-88073256D01*
X142323584Y-88073256D02*
X142399775Y-88149446D01*
X142399775Y-88149446D02*
X142437870Y-88301827D01*
X142437870Y-88301827D02*
X142437870Y-88568494D01*
X142437870Y-88568494D02*
X142399775Y-88720875D01*
X142399775Y-88720875D02*
X142323584Y-88797066D01*
X142323584Y-88797066D02*
X142247394Y-88835161D01*
X142247394Y-88835161D02*
X142095013Y-88835161D01*
X142095013Y-88835161D02*
X142018822Y-88797066D01*
X142018822Y-88797066D02*
X141942632Y-88720875D01*
X141942632Y-88720875D02*
X141904536Y-88568494D01*
X141904536Y-88568494D02*
X141904536Y-88301827D01*
X141904536Y-88301827D02*
X141942632Y-88149446D01*
X141942632Y-88149446D02*
X142018822Y-88073256D01*
X142018822Y-88073256D02*
X142095013Y-88035161D01*
X143123584Y-88301827D02*
X143123584Y-88835161D01*
X142780727Y-88301827D02*
X142780727Y-88720875D01*
X142780727Y-88720875D02*
X142818822Y-88797066D01*
X142818822Y-88797066D02*
X142895012Y-88835161D01*
X142895012Y-88835161D02*
X143009298Y-88835161D01*
X143009298Y-88835161D02*
X143085489Y-88797066D01*
X143085489Y-88797066D02*
X143123584Y-88758970D01*
X143390251Y-88301827D02*
X143695013Y-88301827D01*
X143504537Y-88035161D02*
X143504537Y-88720875D01*
X143504537Y-88720875D02*
X143542632Y-88797066D01*
X143542632Y-88797066D02*
X143618822Y-88835161D01*
X143618822Y-88835161D02*
X143695013Y-88835161D01*
D12*
X150462129Y-96099353D02*
X150462129Y-94399353D01*
X150462129Y-94399353D02*
X151109748Y-94399353D01*
X151109748Y-94399353D02*
X151271653Y-94480305D01*
X151271653Y-94480305D02*
X151352606Y-94561258D01*
X151352606Y-94561258D02*
X151433558Y-94723162D01*
X151433558Y-94723162D02*
X151433558Y-94966020D01*
X151433558Y-94966020D02*
X151352606Y-95127924D01*
X151352606Y-95127924D02*
X151271653Y-95208877D01*
X151271653Y-95208877D02*
X151109748Y-95289829D01*
X151109748Y-95289829D02*
X150462129Y-95289829D01*
X152162129Y-96099353D02*
X152162129Y-94966020D01*
X152162129Y-94399353D02*
X152081177Y-94480305D01*
X152081177Y-94480305D02*
X152162129Y-94561258D01*
X152162129Y-94561258D02*
X152243082Y-94480305D01*
X152243082Y-94480305D02*
X152162129Y-94399353D01*
X152162129Y-94399353D02*
X152162129Y-94561258D01*
X152728796Y-94399353D02*
X153700225Y-94399353D01*
X153214511Y-96099353D02*
X153214511Y-94399353D01*
X154266891Y-96099353D02*
X154266891Y-94966020D01*
X154266891Y-95289829D02*
X154347844Y-95127924D01*
X154347844Y-95127924D02*
X154428796Y-95046972D01*
X154428796Y-95046972D02*
X154590701Y-94966020D01*
X154590701Y-94966020D02*
X154752606Y-94966020D01*
X156047844Y-96099353D02*
X156047844Y-95208877D01*
X156047844Y-95208877D02*
X155966891Y-95046972D01*
X155966891Y-95046972D02*
X155804987Y-94966020D01*
X155804987Y-94966020D02*
X155481177Y-94966020D01*
X155481177Y-94966020D02*
X155319272Y-95046972D01*
X156047844Y-96018401D02*
X155885939Y-96099353D01*
X155885939Y-96099353D02*
X155481177Y-96099353D01*
X155481177Y-96099353D02*
X155319272Y-96018401D01*
X155319272Y-96018401D02*
X155238320Y-95856496D01*
X155238320Y-95856496D02*
X155238320Y-95694591D01*
X155238320Y-95694591D02*
X155319272Y-95532686D01*
X155319272Y-95532686D02*
X155481177Y-95451734D01*
X155481177Y-95451734D02*
X155885939Y-95451734D01*
X155885939Y-95451734D02*
X156047844Y-95370781D01*
X157585939Y-96018401D02*
X157424034Y-96099353D01*
X157424034Y-96099353D02*
X157100225Y-96099353D01*
X157100225Y-96099353D02*
X156938320Y-96018401D01*
X156938320Y-96018401D02*
X156857367Y-95937448D01*
X156857367Y-95937448D02*
X156776415Y-95775543D01*
X156776415Y-95775543D02*
X156776415Y-95289829D01*
X156776415Y-95289829D02*
X156857367Y-95127924D01*
X156857367Y-95127924D02*
X156938320Y-95046972D01*
X156938320Y-95046972D02*
X157100225Y-94966020D01*
X157100225Y-94966020D02*
X157424034Y-94966020D01*
X157424034Y-94966020D02*
X157585939Y-95046972D01*
X160581177Y-95937448D02*
X160500225Y-96018401D01*
X160500225Y-96018401D02*
X160257367Y-96099353D01*
X160257367Y-96099353D02*
X160095463Y-96099353D01*
X160095463Y-96099353D02*
X159852606Y-96018401D01*
X159852606Y-96018401D02*
X159690701Y-95856496D01*
X159690701Y-95856496D02*
X159609748Y-95694591D01*
X159609748Y-95694591D02*
X159528796Y-95370781D01*
X159528796Y-95370781D02*
X159528796Y-95127924D01*
X159528796Y-95127924D02*
X159609748Y-94804115D01*
X159609748Y-94804115D02*
X159690701Y-94642210D01*
X159690701Y-94642210D02*
X159852606Y-94480305D01*
X159852606Y-94480305D02*
X160095463Y-94399353D01*
X160095463Y-94399353D02*
X160257367Y-94399353D01*
X160257367Y-94399353D02*
X160500225Y-94480305D01*
X160500225Y-94480305D02*
X160581177Y-94561258D01*
X161552606Y-96099353D02*
X161390701Y-96018401D01*
X161390701Y-96018401D02*
X161309748Y-95937448D01*
X161309748Y-95937448D02*
X161228796Y-95775543D01*
X161228796Y-95775543D02*
X161228796Y-95289829D01*
X161228796Y-95289829D02*
X161309748Y-95127924D01*
X161309748Y-95127924D02*
X161390701Y-95046972D01*
X161390701Y-95046972D02*
X161552606Y-94966020D01*
X161552606Y-94966020D02*
X161795463Y-94966020D01*
X161795463Y-94966020D02*
X161957367Y-95046972D01*
X161957367Y-95046972D02*
X162038320Y-95127924D01*
X162038320Y-95127924D02*
X162119272Y-95289829D01*
X162119272Y-95289829D02*
X162119272Y-95775543D01*
X162119272Y-95775543D02*
X162038320Y-95937448D01*
X162038320Y-95937448D02*
X161957367Y-96018401D01*
X161957367Y-96018401D02*
X161795463Y-96099353D01*
X161795463Y-96099353D02*
X161552606Y-96099353D01*
X162847843Y-94966020D02*
X162847843Y-96099353D01*
X162847843Y-95127924D02*
X162928796Y-95046972D01*
X162928796Y-95046972D02*
X163090701Y-94966020D01*
X163090701Y-94966020D02*
X163333558Y-94966020D01*
X163333558Y-94966020D02*
X163495462Y-95046972D01*
X163495462Y-95046972D02*
X163576415Y-95208877D01*
X163576415Y-95208877D02*
X163576415Y-96099353D01*
X164385938Y-94966020D02*
X164385938Y-96099353D01*
X164385938Y-95127924D02*
X164466891Y-95046972D01*
X164466891Y-95046972D02*
X164628796Y-94966020D01*
X164628796Y-94966020D02*
X164871653Y-94966020D01*
X164871653Y-94966020D02*
X165033557Y-95046972D01*
X165033557Y-95046972D02*
X165114510Y-95208877D01*
X165114510Y-95208877D02*
X165114510Y-96099353D01*
X166571652Y-96018401D02*
X166409748Y-96099353D01*
X166409748Y-96099353D02*
X166085938Y-96099353D01*
X166085938Y-96099353D02*
X165924033Y-96018401D01*
X165924033Y-96018401D02*
X165843081Y-95856496D01*
X165843081Y-95856496D02*
X165843081Y-95208877D01*
X165843081Y-95208877D02*
X165924033Y-95046972D01*
X165924033Y-95046972D02*
X166085938Y-94966020D01*
X166085938Y-94966020D02*
X166409748Y-94966020D01*
X166409748Y-94966020D02*
X166571652Y-95046972D01*
X166571652Y-95046972D02*
X166652605Y-95208877D01*
X166652605Y-95208877D02*
X166652605Y-95370781D01*
X166652605Y-95370781D02*
X165843081Y-95532686D01*
X168109748Y-96018401D02*
X167947843Y-96099353D01*
X167947843Y-96099353D02*
X167624034Y-96099353D01*
X167624034Y-96099353D02*
X167462129Y-96018401D01*
X167462129Y-96018401D02*
X167381176Y-95937448D01*
X167381176Y-95937448D02*
X167300224Y-95775543D01*
X167300224Y-95775543D02*
X167300224Y-95289829D01*
X167300224Y-95289829D02*
X167381176Y-95127924D01*
X167381176Y-95127924D02*
X167462129Y-95046972D01*
X167462129Y-95046972D02*
X167624034Y-94966020D01*
X167624034Y-94966020D02*
X167947843Y-94966020D01*
X167947843Y-94966020D02*
X168109748Y-95046972D01*
X168595462Y-94966020D02*
X169243081Y-94966020D01*
X168838319Y-94399353D02*
X168838319Y-95856496D01*
X168838319Y-95856496D02*
X168919272Y-96018401D01*
X168919272Y-96018401D02*
X169081177Y-96099353D01*
X169081177Y-96099353D02*
X169243081Y-96099353D01*
X169809748Y-96099353D02*
X169809748Y-94966020D01*
X169809748Y-94399353D02*
X169728796Y-94480305D01*
X169728796Y-94480305D02*
X169809748Y-94561258D01*
X169809748Y-94561258D02*
X169890701Y-94480305D01*
X169890701Y-94480305D02*
X169809748Y-94399353D01*
X169809748Y-94399353D02*
X169809748Y-94561258D01*
X170862130Y-96099353D02*
X170700225Y-96018401D01*
X170700225Y-96018401D02*
X170619272Y-95937448D01*
X170619272Y-95937448D02*
X170538320Y-95775543D01*
X170538320Y-95775543D02*
X170538320Y-95289829D01*
X170538320Y-95289829D02*
X170619272Y-95127924D01*
X170619272Y-95127924D02*
X170700225Y-95046972D01*
X170700225Y-95046972D02*
X170862130Y-94966020D01*
X170862130Y-94966020D02*
X171104987Y-94966020D01*
X171104987Y-94966020D02*
X171266891Y-95046972D01*
X171266891Y-95046972D02*
X171347844Y-95127924D01*
X171347844Y-95127924D02*
X171428796Y-95289829D01*
X171428796Y-95289829D02*
X171428796Y-95775543D01*
X171428796Y-95775543D02*
X171347844Y-95937448D01*
X171347844Y-95937448D02*
X171266891Y-96018401D01*
X171266891Y-96018401D02*
X171104987Y-96099353D01*
X171104987Y-96099353D02*
X170862130Y-96099353D01*
X172157367Y-94966020D02*
X172157367Y-96099353D01*
X172157367Y-95127924D02*
X172238320Y-95046972D01*
X172238320Y-95046972D02*
X172400225Y-94966020D01*
X172400225Y-94966020D02*
X172643082Y-94966020D01*
X172643082Y-94966020D02*
X172804986Y-95046972D01*
X172804986Y-95046972D02*
X172885939Y-95208877D01*
X172885939Y-95208877D02*
X172885939Y-96099353D01*
X151028796Y-97945877D02*
X151271653Y-98026829D01*
X151271653Y-98026829D02*
X151352606Y-98107781D01*
X151352606Y-98107781D02*
X151433558Y-98269686D01*
X151433558Y-98269686D02*
X151433558Y-98512543D01*
X151433558Y-98512543D02*
X151352606Y-98674448D01*
X151352606Y-98674448D02*
X151271653Y-98755401D01*
X151271653Y-98755401D02*
X151109748Y-98836353D01*
X151109748Y-98836353D02*
X150462129Y-98836353D01*
X150462129Y-98836353D02*
X150462129Y-97136353D01*
X150462129Y-97136353D02*
X151028796Y-97136353D01*
X151028796Y-97136353D02*
X151190701Y-97217305D01*
X151190701Y-97217305D02*
X151271653Y-97298258D01*
X151271653Y-97298258D02*
X151352606Y-97460162D01*
X151352606Y-97460162D02*
X151352606Y-97622067D01*
X151352606Y-97622067D02*
X151271653Y-97783972D01*
X151271653Y-97783972D02*
X151190701Y-97864924D01*
X151190701Y-97864924D02*
X151028796Y-97945877D01*
X151028796Y-97945877D02*
X150462129Y-97945877D01*
X152404987Y-98836353D02*
X152243082Y-98755401D01*
X152243082Y-98755401D02*
X152162129Y-98674448D01*
X152162129Y-98674448D02*
X152081177Y-98512543D01*
X152081177Y-98512543D02*
X152081177Y-98026829D01*
X152081177Y-98026829D02*
X152162129Y-97864924D01*
X152162129Y-97864924D02*
X152243082Y-97783972D01*
X152243082Y-97783972D02*
X152404987Y-97703020D01*
X152404987Y-97703020D02*
X152647844Y-97703020D01*
X152647844Y-97703020D02*
X152809748Y-97783972D01*
X152809748Y-97783972D02*
X152890701Y-97864924D01*
X152890701Y-97864924D02*
X152971653Y-98026829D01*
X152971653Y-98026829D02*
X152971653Y-98512543D01*
X152971653Y-98512543D02*
X152890701Y-98674448D01*
X152890701Y-98674448D02*
X152809748Y-98755401D01*
X152809748Y-98755401D02*
X152647844Y-98836353D01*
X152647844Y-98836353D02*
X152404987Y-98836353D01*
X154428796Y-98836353D02*
X154428796Y-97945877D01*
X154428796Y-97945877D02*
X154347843Y-97783972D01*
X154347843Y-97783972D02*
X154185939Y-97703020D01*
X154185939Y-97703020D02*
X153862129Y-97703020D01*
X153862129Y-97703020D02*
X153700224Y-97783972D01*
X154428796Y-98755401D02*
X154266891Y-98836353D01*
X154266891Y-98836353D02*
X153862129Y-98836353D01*
X153862129Y-98836353D02*
X153700224Y-98755401D01*
X153700224Y-98755401D02*
X153619272Y-98593496D01*
X153619272Y-98593496D02*
X153619272Y-98431591D01*
X153619272Y-98431591D02*
X153700224Y-98269686D01*
X153700224Y-98269686D02*
X153862129Y-98188734D01*
X153862129Y-98188734D02*
X154266891Y-98188734D01*
X154266891Y-98188734D02*
X154428796Y-98107781D01*
X155238319Y-98836353D02*
X155238319Y-97703020D01*
X155238319Y-98026829D02*
X155319272Y-97864924D01*
X155319272Y-97864924D02*
X155400224Y-97783972D01*
X155400224Y-97783972D02*
X155562129Y-97703020D01*
X155562129Y-97703020D02*
X155724034Y-97703020D01*
X157019272Y-98836353D02*
X157019272Y-97136353D01*
X157019272Y-98755401D02*
X156857367Y-98836353D01*
X156857367Y-98836353D02*
X156533558Y-98836353D01*
X156533558Y-98836353D02*
X156371653Y-98755401D01*
X156371653Y-98755401D02*
X156290700Y-98674448D01*
X156290700Y-98674448D02*
X156209748Y-98512543D01*
X156209748Y-98512543D02*
X156209748Y-98026829D01*
X156209748Y-98026829D02*
X156290700Y-97864924D01*
X156290700Y-97864924D02*
X156371653Y-97783972D01*
X156371653Y-97783972D02*
X156533558Y-97703020D01*
X156533558Y-97703020D02*
X156857367Y-97703020D01*
X156857367Y-97703020D02*
X157019272Y-97783972D01*
X159124033Y-98188734D02*
X160419272Y-98188734D01*
X162281176Y-97136353D02*
X162847843Y-98836353D01*
X162847843Y-98836353D02*
X163414510Y-97136353D01*
X164628795Y-98755401D02*
X164466891Y-98836353D01*
X164466891Y-98836353D02*
X164143081Y-98836353D01*
X164143081Y-98836353D02*
X163981176Y-98755401D01*
X163981176Y-98755401D02*
X163900224Y-98593496D01*
X163900224Y-98593496D02*
X163900224Y-97945877D01*
X163900224Y-97945877D02*
X163981176Y-97783972D01*
X163981176Y-97783972D02*
X164143081Y-97703020D01*
X164143081Y-97703020D02*
X164466891Y-97703020D01*
X164466891Y-97703020D02*
X164628795Y-97783972D01*
X164628795Y-97783972D02*
X164709748Y-97945877D01*
X164709748Y-97945877D02*
X164709748Y-98107781D01*
X164709748Y-98107781D02*
X163900224Y-98269686D01*
X165438319Y-98836353D02*
X165438319Y-97703020D01*
X165438319Y-98026829D02*
X165519272Y-97864924D01*
X165519272Y-97864924D02*
X165600224Y-97783972D01*
X165600224Y-97783972D02*
X165762129Y-97703020D01*
X165762129Y-97703020D02*
X165924034Y-97703020D01*
X166490700Y-98674448D02*
X166571653Y-98755401D01*
X166571653Y-98755401D02*
X166490700Y-98836353D01*
X166490700Y-98836353D02*
X166409748Y-98755401D01*
X166409748Y-98755401D02*
X166490700Y-98674448D01*
X166490700Y-98674448D02*
X166490700Y-98836353D01*
X168919272Y-97136353D02*
X169081177Y-97136353D01*
X169081177Y-97136353D02*
X169243081Y-97217305D01*
X169243081Y-97217305D02*
X169324034Y-97298258D01*
X169324034Y-97298258D02*
X169404986Y-97460162D01*
X169404986Y-97460162D02*
X169485939Y-97783972D01*
X169485939Y-97783972D02*
X169485939Y-98188734D01*
X169485939Y-98188734D02*
X169404986Y-98512543D01*
X169404986Y-98512543D02*
X169324034Y-98674448D01*
X169324034Y-98674448D02*
X169243081Y-98755401D01*
X169243081Y-98755401D02*
X169081177Y-98836353D01*
X169081177Y-98836353D02*
X168919272Y-98836353D01*
X168919272Y-98836353D02*
X168757367Y-98755401D01*
X168757367Y-98755401D02*
X168676415Y-98674448D01*
X168676415Y-98674448D02*
X168595462Y-98512543D01*
X168595462Y-98512543D02*
X168514510Y-98188734D01*
X168514510Y-98188734D02*
X168514510Y-97783972D01*
X168514510Y-97783972D02*
X168595462Y-97460162D01*
X168595462Y-97460162D02*
X168676415Y-97298258D01*
X168676415Y-97298258D02*
X168757367Y-97217305D01*
X168757367Y-97217305D02*
X168919272Y-97136353D01*
X170214510Y-98674448D02*
X170295463Y-98755401D01*
X170295463Y-98755401D02*
X170214510Y-98836353D01*
X170214510Y-98836353D02*
X170133558Y-98755401D01*
X170133558Y-98755401D02*
X170214510Y-98674448D01*
X170214510Y-98674448D02*
X170214510Y-98836353D01*
X170943082Y-97298258D02*
X171024034Y-97217305D01*
X171024034Y-97217305D02*
X171185939Y-97136353D01*
X171185939Y-97136353D02*
X171590701Y-97136353D01*
X171590701Y-97136353D02*
X171752606Y-97217305D01*
X171752606Y-97217305D02*
X171833558Y-97298258D01*
X171833558Y-97298258D02*
X171914511Y-97460162D01*
X171914511Y-97460162D02*
X171914511Y-97622067D01*
X171914511Y-97622067D02*
X171833558Y-97864924D01*
X171833558Y-97864924D02*
X170862130Y-98836353D01*
X170862130Y-98836353D02*
X171914511Y-98836353D01*
D11*
X162059583Y-88162324D02*
X162211964Y-88162324D01*
X162211964Y-88162324D02*
X162288154Y-88200419D01*
X162288154Y-88200419D02*
X162364345Y-88276609D01*
X162364345Y-88276609D02*
X162402440Y-88428990D01*
X162402440Y-88428990D02*
X162402440Y-88695657D01*
X162402440Y-88695657D02*
X162364345Y-88848038D01*
X162364345Y-88848038D02*
X162288154Y-88924229D01*
X162288154Y-88924229D02*
X162211964Y-88962324D01*
X162211964Y-88962324D02*
X162059583Y-88962324D01*
X162059583Y-88962324D02*
X161983392Y-88924229D01*
X161983392Y-88924229D02*
X161907202Y-88848038D01*
X161907202Y-88848038D02*
X161869106Y-88695657D01*
X161869106Y-88695657D02*
X161869106Y-88428990D01*
X161869106Y-88428990D02*
X161907202Y-88276609D01*
X161907202Y-88276609D02*
X161983392Y-88200419D01*
X161983392Y-88200419D02*
X162059583Y-88162324D01*
X163088154Y-88428990D02*
X163088154Y-88962324D01*
X162745297Y-88428990D02*
X162745297Y-88848038D01*
X162745297Y-88848038D02*
X162783392Y-88924229D01*
X162783392Y-88924229D02*
X162859582Y-88962324D01*
X162859582Y-88962324D02*
X162973868Y-88962324D01*
X162973868Y-88962324D02*
X163050059Y-88924229D01*
X163050059Y-88924229D02*
X163088154Y-88886133D01*
X163354821Y-88428990D02*
X163659583Y-88428990D01*
X163469107Y-88162324D02*
X163469107Y-88848038D01*
X163469107Y-88848038D02*
X163507202Y-88924229D01*
X163507202Y-88924229D02*
X163583392Y-88962324D01*
X163583392Y-88962324D02*
X163659583Y-88962324D01*
D10*
D11*
X110823635Y-88907979D02*
X110747445Y-88869884D01*
X110747445Y-88869884D02*
X110633159Y-88869884D01*
X110633159Y-88869884D02*
X110518873Y-88907979D01*
X110518873Y-88907979D02*
X110442683Y-88984169D01*
X110442683Y-88984169D02*
X110404588Y-89060360D01*
X110404588Y-89060360D02*
X110366492Y-89212741D01*
X110366492Y-89212741D02*
X110366492Y-89327027D01*
X110366492Y-89327027D02*
X110404588Y-89479408D01*
X110404588Y-89479408D02*
X110442683Y-89555598D01*
X110442683Y-89555598D02*
X110518873Y-89631789D01*
X110518873Y-89631789D02*
X110633159Y-89669884D01*
X110633159Y-89669884D02*
X110709350Y-89669884D01*
X110709350Y-89669884D02*
X110823635Y-89631789D01*
X110823635Y-89631789D02*
X110861731Y-89593693D01*
X110861731Y-89593693D02*
X110861731Y-89327027D01*
X110861731Y-89327027D02*
X110709350Y-89327027D01*
X111204588Y-89669884D02*
X111204588Y-88869884D01*
X111204588Y-88869884D02*
X111661731Y-89669884D01*
X111661731Y-89669884D02*
X111661731Y-88869884D01*
X112042683Y-89669884D02*
X112042683Y-88869884D01*
X112042683Y-88869884D02*
X112233159Y-88869884D01*
X112233159Y-88869884D02*
X112347445Y-88907979D01*
X112347445Y-88907979D02*
X112423635Y-88984169D01*
X112423635Y-88984169D02*
X112461730Y-89060360D01*
X112461730Y-89060360D02*
X112499826Y-89212741D01*
X112499826Y-89212741D02*
X112499826Y-89327027D01*
X112499826Y-89327027D02*
X112461730Y-89479408D01*
X112461730Y-89479408D02*
X112423635Y-89555598D01*
X112423635Y-89555598D02*
X112347445Y-89631789D01*
X112347445Y-89631789D02*
X112233159Y-89669884D01*
X112233159Y-89669884D02*
X112042683Y-89669884D01*
X116511996Y-80854513D02*
X116778663Y-81654513D01*
X116778663Y-81654513D02*
X117045329Y-80854513D01*
X117654853Y-81616418D02*
X117578662Y-81654513D01*
X117578662Y-81654513D02*
X117426281Y-81654513D01*
X117426281Y-81654513D02*
X117350091Y-81616418D01*
X117350091Y-81616418D02*
X117311996Y-81578322D01*
X117311996Y-81578322D02*
X117273900Y-81502132D01*
X117273900Y-81502132D02*
X117273900Y-81273560D01*
X117273900Y-81273560D02*
X117311996Y-81197370D01*
X117311996Y-81197370D02*
X117350091Y-81159275D01*
X117350091Y-81159275D02*
X117426281Y-81121179D01*
X117426281Y-81121179D02*
X117578662Y-81121179D01*
X117578662Y-81121179D02*
X117654853Y-81159275D01*
X118340567Y-81616418D02*
X118264376Y-81654513D01*
X118264376Y-81654513D02*
X118111995Y-81654513D01*
X118111995Y-81654513D02*
X118035805Y-81616418D01*
X118035805Y-81616418D02*
X117997710Y-81578322D01*
X117997710Y-81578322D02*
X117959614Y-81502132D01*
X117959614Y-81502132D02*
X117959614Y-81273560D01*
X117959614Y-81273560D02*
X117997710Y-81197370D01*
X117997710Y-81197370D02*
X118035805Y-81159275D01*
X118035805Y-81159275D02*
X118111995Y-81121179D01*
X118111995Y-81121179D02*
X118264376Y-81121179D01*
X118264376Y-81121179D02*
X118340567Y-81159275D01*
X158229963Y-79372209D02*
X158372820Y-79419828D01*
X158372820Y-79419828D02*
X158610915Y-79419828D01*
X158610915Y-79419828D02*
X158706153Y-79372209D01*
X158706153Y-79372209D02*
X158753772Y-79324589D01*
X158753772Y-79324589D02*
X158801391Y-79229351D01*
X158801391Y-79229351D02*
X158801391Y-79134113D01*
X158801391Y-79134113D02*
X158753772Y-79038875D01*
X158753772Y-79038875D02*
X158706153Y-78991256D01*
X158706153Y-78991256D02*
X158610915Y-78943637D01*
X158610915Y-78943637D02*
X158420439Y-78896018D01*
X158420439Y-78896018D02*
X158325201Y-78848399D01*
X158325201Y-78848399D02*
X158277582Y-78800780D01*
X158277582Y-78800780D02*
X158229963Y-78705542D01*
X158229963Y-78705542D02*
X158229963Y-78610304D01*
X158229963Y-78610304D02*
X158277582Y-78515066D01*
X158277582Y-78515066D02*
X158325201Y-78467447D01*
X158325201Y-78467447D02*
X158420439Y-78419828D01*
X158420439Y-78419828D02*
X158658534Y-78419828D01*
X158658534Y-78419828D02*
X158801391Y-78467447D01*
X159229963Y-79419828D02*
X159229963Y-78419828D01*
X159658534Y-79419828D02*
X159658534Y-78896018D01*
X159658534Y-78896018D02*
X159610915Y-78800780D01*
X159610915Y-78800780D02*
X159515677Y-78753161D01*
X159515677Y-78753161D02*
X159372820Y-78753161D01*
X159372820Y-78753161D02*
X159277582Y-78800780D01*
X159277582Y-78800780D02*
X159229963Y-78848399D01*
X160563296Y-78753161D02*
X160563296Y-79419828D01*
X160134725Y-78753161D02*
X160134725Y-79276970D01*
X160134725Y-79276970D02*
X160182344Y-79372209D01*
X160182344Y-79372209D02*
X160277582Y-79419828D01*
X160277582Y-79419828D02*
X160420439Y-79419828D01*
X160420439Y-79419828D02*
X160515677Y-79372209D01*
X160515677Y-79372209D02*
X160563296Y-79324589D01*
X160896630Y-78753161D02*
X161277582Y-78753161D01*
X161039487Y-78419828D02*
X161039487Y-79276970D01*
X161039487Y-79276970D02*
X161087106Y-79372209D01*
X161087106Y-79372209D02*
X161182344Y-79419828D01*
X161182344Y-79419828D02*
X161277582Y-79419828D01*
X161468059Y-78753161D02*
X161849011Y-78753161D01*
X161610916Y-78419828D02*
X161610916Y-79276970D01*
X161610916Y-79276970D02*
X161658535Y-79372209D01*
X161658535Y-79372209D02*
X161753773Y-79419828D01*
X161753773Y-79419828D02*
X161849011Y-79419828D01*
X162563297Y-79372209D02*
X162468059Y-79419828D01*
X162468059Y-79419828D02*
X162277583Y-79419828D01*
X162277583Y-79419828D02*
X162182345Y-79372209D01*
X162182345Y-79372209D02*
X162134726Y-79276970D01*
X162134726Y-79276970D02*
X162134726Y-78896018D01*
X162134726Y-78896018D02*
X162182345Y-78800780D01*
X162182345Y-78800780D02*
X162277583Y-78753161D01*
X162277583Y-78753161D02*
X162468059Y-78753161D01*
X162468059Y-78753161D02*
X162563297Y-78800780D01*
X162563297Y-78800780D02*
X162610916Y-78896018D01*
X162610916Y-78896018D02*
X162610916Y-78991256D01*
X162610916Y-78991256D02*
X162134726Y-79086494D01*
X163039488Y-79419828D02*
X163039488Y-78753161D01*
X163039488Y-78943637D02*
X163087107Y-78848399D01*
X163087107Y-78848399D02*
X163134726Y-78800780D01*
X163134726Y-78800780D02*
X163229964Y-78753161D01*
X163229964Y-78753161D02*
X163325202Y-78753161D01*
D13*
X160648445Y-123458224D02*
X160648445Y-121758224D01*
X161457969Y-123458224D02*
X161457969Y-121758224D01*
X161457969Y-121758224D02*
X162429398Y-123458224D01*
X162429398Y-123458224D02*
X162429398Y-121758224D01*
X165019874Y-124105843D02*
X164938921Y-124024891D01*
X164938921Y-124024891D02*
X164777017Y-123782033D01*
X164777017Y-123782033D02*
X164696064Y-123620129D01*
X164696064Y-123620129D02*
X164615112Y-123377272D01*
X164615112Y-123377272D02*
X164534159Y-122972510D01*
X164534159Y-122972510D02*
X164534159Y-122648700D01*
X164534159Y-122648700D02*
X164615112Y-122243938D01*
X164615112Y-122243938D02*
X164696064Y-122001081D01*
X164696064Y-122001081D02*
X164777017Y-121839176D01*
X164777017Y-121839176D02*
X164938921Y-121596319D01*
X164938921Y-121596319D02*
X165019874Y-121515367D01*
X166557969Y-123458224D02*
X165586540Y-123458224D01*
X166072254Y-123458224D02*
X166072254Y-121758224D01*
X166072254Y-121758224D02*
X165910350Y-122001081D01*
X165910350Y-122001081D02*
X165748445Y-122162986D01*
X165748445Y-122162986D02*
X165586540Y-122243938D01*
X167205588Y-121920129D02*
X167286540Y-121839176D01*
X167286540Y-121839176D02*
X167448445Y-121758224D01*
X167448445Y-121758224D02*
X167853207Y-121758224D01*
X167853207Y-121758224D02*
X168015112Y-121839176D01*
X168015112Y-121839176D02*
X168096064Y-121920129D01*
X168096064Y-121920129D02*
X168177017Y-122082033D01*
X168177017Y-122082033D02*
X168177017Y-122243938D01*
X168177017Y-122243938D02*
X168096064Y-122486795D01*
X168096064Y-122486795D02*
X167124636Y-123458224D01*
X167124636Y-123458224D02*
X168177017Y-123458224D01*
X168662731Y-121758224D02*
X169229398Y-123458224D01*
X169229398Y-123458224D02*
X169796065Y-121758224D01*
X170200827Y-124105843D02*
X170281779Y-124024891D01*
X170281779Y-124024891D02*
X170443684Y-123782033D01*
X170443684Y-123782033D02*
X170524636Y-123620129D01*
X170524636Y-123620129D02*
X170605589Y-123377272D01*
X170605589Y-123377272D02*
X170686541Y-122972510D01*
X170686541Y-122972510D02*
X170686541Y-122648700D01*
X170686541Y-122648700D02*
X170605589Y-122243938D01*
X170605589Y-122243938D02*
X170524636Y-122001081D01*
X170524636Y-122001081D02*
X170443684Y-121839176D01*
X170443684Y-121839176D02*
X170281779Y-121596319D01*
X170281779Y-121596319D02*
X170200827Y-121515367D01*
D14*
X146558095Y-103049637D02*
X146558095Y-103859160D01*
X146558095Y-103859160D02*
X146605714Y-103954398D01*
X146605714Y-103954398D02*
X146653333Y-104002018D01*
X146653333Y-104002018D02*
X146748571Y-104049637D01*
X146748571Y-104049637D02*
X146939047Y-104049637D01*
X146939047Y-104049637D02*
X147034285Y-104002018D01*
X147034285Y-104002018D02*
X147081904Y-103954398D01*
X147081904Y-103954398D02*
X147129523Y-103859160D01*
X147129523Y-103859160D02*
X147129523Y-103049637D01*
X148081904Y-103049637D02*
X147605714Y-103049637D01*
X147605714Y-103049637D02*
X147558095Y-103525827D01*
X147558095Y-103525827D02*
X147605714Y-103478208D01*
X147605714Y-103478208D02*
X147700952Y-103430589D01*
X147700952Y-103430589D02*
X147939047Y-103430589D01*
X147939047Y-103430589D02*
X148034285Y-103478208D01*
X148034285Y-103478208D02*
X148081904Y-103525827D01*
X148081904Y-103525827D02*
X148129523Y-103621065D01*
X148129523Y-103621065D02*
X148129523Y-103859160D01*
X148129523Y-103859160D02*
X148081904Y-103954398D01*
X148081904Y-103954398D02*
X148034285Y-104002018D01*
X148034285Y-104002018D02*
X147939047Y-104049637D01*
X147939047Y-104049637D02*
X147700952Y-104049637D01*
X147700952Y-104049637D02*
X147605714Y-104002018D01*
X147605714Y-104002018D02*
X147558095Y-103954398D01*
D13*
X159901939Y-101666491D02*
X160225748Y-101666491D01*
X160225748Y-101666491D02*
X160387653Y-101747443D01*
X160387653Y-101747443D02*
X160549558Y-101909348D01*
X160549558Y-101909348D02*
X160630510Y-102233158D01*
X160630510Y-102233158D02*
X160630510Y-102799824D01*
X160630510Y-102799824D02*
X160549558Y-103123634D01*
X160549558Y-103123634D02*
X160387653Y-103285539D01*
X160387653Y-103285539D02*
X160225748Y-103366491D01*
X160225748Y-103366491D02*
X159901939Y-103366491D01*
X159901939Y-103366491D02*
X159740034Y-103285539D01*
X159740034Y-103285539D02*
X159578129Y-103123634D01*
X159578129Y-103123634D02*
X159497177Y-102799824D01*
X159497177Y-102799824D02*
X159497177Y-102233158D01*
X159497177Y-102233158D02*
X159578129Y-101909348D01*
X159578129Y-101909348D02*
X159740034Y-101747443D01*
X159740034Y-101747443D02*
X159901939Y-101666491D01*
X161359081Y-101666491D02*
X161359081Y-103042681D01*
X161359081Y-103042681D02*
X161440034Y-103204586D01*
X161440034Y-103204586D02*
X161520986Y-103285539D01*
X161520986Y-103285539D02*
X161682891Y-103366491D01*
X161682891Y-103366491D02*
X162006700Y-103366491D01*
X162006700Y-103366491D02*
X162168605Y-103285539D01*
X162168605Y-103285539D02*
X162249558Y-103204586D01*
X162249558Y-103204586D02*
X162330510Y-103042681D01*
X162330510Y-103042681D02*
X162330510Y-101666491D01*
X162897176Y-101666491D02*
X163868605Y-101666491D01*
X163382891Y-103366491D02*
X163382891Y-101666491D01*
X166216224Y-104014110D02*
X166135271Y-103933158D01*
X166135271Y-103933158D02*
X165973367Y-103690300D01*
X165973367Y-103690300D02*
X165892414Y-103528396D01*
X165892414Y-103528396D02*
X165811462Y-103285539D01*
X165811462Y-103285539D02*
X165730509Y-102880777D01*
X165730509Y-102880777D02*
X165730509Y-102556967D01*
X165730509Y-102556967D02*
X165811462Y-102152205D01*
X165811462Y-102152205D02*
X165892414Y-101909348D01*
X165892414Y-101909348D02*
X165973367Y-101747443D01*
X165973367Y-101747443D02*
X166135271Y-101504586D01*
X166135271Y-101504586D02*
X166216224Y-101423634D01*
X167754319Y-103366491D02*
X166782890Y-103366491D01*
X167268604Y-103366491D02*
X167268604Y-101666491D01*
X167268604Y-101666491D02*
X167106700Y-101909348D01*
X167106700Y-101909348D02*
X166944795Y-102071253D01*
X166944795Y-102071253D02*
X166782890Y-102152205D01*
X168401938Y-101828396D02*
X168482890Y-101747443D01*
X168482890Y-101747443D02*
X168644795Y-101666491D01*
X168644795Y-101666491D02*
X169049557Y-101666491D01*
X169049557Y-101666491D02*
X169211462Y-101747443D01*
X169211462Y-101747443D02*
X169292414Y-101828396D01*
X169292414Y-101828396D02*
X169373367Y-101990300D01*
X169373367Y-101990300D02*
X169373367Y-102152205D01*
X169373367Y-102152205D02*
X169292414Y-102395062D01*
X169292414Y-102395062D02*
X168320986Y-103366491D01*
X168320986Y-103366491D02*
X169373367Y-103366491D01*
X169859081Y-101666491D02*
X170425748Y-103366491D01*
X170425748Y-103366491D02*
X170992415Y-101666491D01*
X171397177Y-104014110D02*
X171478129Y-103933158D01*
X171478129Y-103933158D02*
X171640034Y-103690300D01*
X171640034Y-103690300D02*
X171720986Y-103528396D01*
X171720986Y-103528396D02*
X171801939Y-103285539D01*
X171801939Y-103285539D02*
X171882891Y-102880777D01*
X171882891Y-102880777D02*
X171882891Y-102556967D01*
X171882891Y-102556967D02*
X171801939Y-102152205D01*
X171801939Y-102152205D02*
X171720986Y-101909348D01*
X171720986Y-101909348D02*
X171640034Y-101747443D01*
X171640034Y-101747443D02*
X171478129Y-101504586D01*
X171478129Y-101504586D02*
X171397177Y-101423634D01*
D11*
X110285784Y-84473528D02*
X110400070Y-84511623D01*
X110400070Y-84511623D02*
X110590546Y-84511623D01*
X110590546Y-84511623D02*
X110666737Y-84473528D01*
X110666737Y-84473528D02*
X110704832Y-84435432D01*
X110704832Y-84435432D02*
X110742927Y-84359242D01*
X110742927Y-84359242D02*
X110742927Y-84283051D01*
X110742927Y-84283051D02*
X110704832Y-84206861D01*
X110704832Y-84206861D02*
X110666737Y-84168766D01*
X110666737Y-84168766D02*
X110590546Y-84130670D01*
X110590546Y-84130670D02*
X110438165Y-84092575D01*
X110438165Y-84092575D02*
X110361975Y-84054480D01*
X110361975Y-84054480D02*
X110323880Y-84016385D01*
X110323880Y-84016385D02*
X110285784Y-83940194D01*
X110285784Y-83940194D02*
X110285784Y-83864004D01*
X110285784Y-83864004D02*
X110323880Y-83787813D01*
X110323880Y-83787813D02*
X110361975Y-83749718D01*
X110361975Y-83749718D02*
X110438165Y-83711623D01*
X110438165Y-83711623D02*
X110628642Y-83711623D01*
X110628642Y-83711623D02*
X110742927Y-83749718D01*
X110971499Y-83978289D02*
X111276261Y-83978289D01*
X111085785Y-83711623D02*
X111085785Y-84397337D01*
X111085785Y-84397337D02*
X111123880Y-84473528D01*
X111123880Y-84473528D02*
X111200070Y-84511623D01*
X111200070Y-84511623D02*
X111276261Y-84511623D01*
X111542928Y-84511623D02*
X111542928Y-83978289D01*
X111542928Y-84130670D02*
X111581023Y-84054480D01*
X111581023Y-84054480D02*
X111619118Y-84016385D01*
X111619118Y-84016385D02*
X111695309Y-83978289D01*
X111695309Y-83978289D02*
X111771499Y-83978289D01*
X112038166Y-84511623D02*
X112038166Y-83711623D01*
X112038166Y-84016385D02*
X112114356Y-83978289D01*
X112114356Y-83978289D02*
X112266737Y-83978289D01*
X112266737Y-83978289D02*
X112342928Y-84016385D01*
X112342928Y-84016385D02*
X112381023Y-84054480D01*
X112381023Y-84054480D02*
X112419118Y-84130670D01*
X112419118Y-84130670D02*
X112419118Y-84359242D01*
X112419118Y-84359242D02*
X112381023Y-84435432D01*
X112381023Y-84435432D02*
X112342928Y-84473528D01*
X112342928Y-84473528D02*
X112266737Y-84511623D01*
X112266737Y-84511623D02*
X112114356Y-84511623D01*
X112114356Y-84511623D02*
X112038166Y-84473528D01*
X174698026Y-84673509D02*
X174964693Y-85473509D01*
X174964693Y-85473509D02*
X175231359Y-84673509D01*
X175840883Y-85435414D02*
X175764692Y-85473509D01*
X175764692Y-85473509D02*
X175612311Y-85473509D01*
X175612311Y-85473509D02*
X175536121Y-85435414D01*
X175536121Y-85435414D02*
X175498026Y-85397318D01*
X175498026Y-85397318D02*
X175459930Y-85321128D01*
X175459930Y-85321128D02*
X175459930Y-85092556D01*
X175459930Y-85092556D02*
X175498026Y-85016366D01*
X175498026Y-85016366D02*
X175536121Y-84978271D01*
X175536121Y-84978271D02*
X175612311Y-84940175D01*
X175612311Y-84940175D02*
X175764692Y-84940175D01*
X175764692Y-84940175D02*
X175840883Y-84978271D01*
X176526597Y-85435414D02*
X176450406Y-85473509D01*
X176450406Y-85473509D02*
X176298025Y-85473509D01*
X176298025Y-85473509D02*
X176221835Y-85435414D01*
X176221835Y-85435414D02*
X176183740Y-85397318D01*
X176183740Y-85397318D02*
X176145644Y-85321128D01*
X176145644Y-85321128D02*
X176145644Y-85092556D01*
X176145644Y-85092556D02*
X176183740Y-85016366D01*
X176183740Y-85016366D02*
X176221835Y-84978271D01*
X176221835Y-84978271D02*
X176298025Y-84940175D01*
X176298025Y-84940175D02*
X176450406Y-84940175D01*
X176450406Y-84940175D02*
X176526597Y-84978271D01*
X165027434Y-87315572D02*
X164979815Y-87267953D01*
X164979815Y-87267953D02*
X164932196Y-87172715D01*
X164932196Y-87172715D02*
X164932196Y-86934620D01*
X164932196Y-86934620D02*
X164979815Y-86839382D01*
X164979815Y-86839382D02*
X165027434Y-86791763D01*
X165027434Y-86791763D02*
X165122672Y-86744144D01*
X165122672Y-86744144D02*
X165217910Y-86744144D01*
X165217910Y-86744144D02*
X165360767Y-86791763D01*
X165360767Y-86791763D02*
X165932196Y-87363191D01*
X165932196Y-87363191D02*
X165932196Y-86744144D01*
X164932196Y-86410810D02*
X164932196Y-85744144D01*
X164932196Y-85744144D02*
X165932196Y-86172715D01*
X164932196Y-85172715D02*
X164932196Y-85077477D01*
X164932196Y-85077477D02*
X164979815Y-84982239D01*
X164979815Y-84982239D02*
X165027434Y-84934620D01*
X165027434Y-84934620D02*
X165122672Y-84887001D01*
X165122672Y-84887001D02*
X165313148Y-84839382D01*
X165313148Y-84839382D02*
X165551243Y-84839382D01*
X165551243Y-84839382D02*
X165741719Y-84887001D01*
X165741719Y-84887001D02*
X165836957Y-84934620D01*
X165836957Y-84934620D02*
X165884577Y-84982239D01*
X165884577Y-84982239D02*
X165932196Y-85077477D01*
X165932196Y-85077477D02*
X165932196Y-85172715D01*
X165932196Y-85172715D02*
X165884577Y-85267953D01*
X165884577Y-85267953D02*
X165836957Y-85315572D01*
X165836957Y-85315572D02*
X165741719Y-85363191D01*
X165741719Y-85363191D02*
X165551243Y-85410810D01*
X165551243Y-85410810D02*
X165313148Y-85410810D01*
X165313148Y-85410810D02*
X165122672Y-85363191D01*
X165122672Y-85363191D02*
X165027434Y-85315572D01*
X165027434Y-85315572D02*
X164979815Y-85267953D01*
X164979815Y-85267953D02*
X164932196Y-85172715D01*
X165932196Y-83839382D02*
X165456005Y-84172715D01*
X165932196Y-84410810D02*
X164932196Y-84410810D01*
X164932196Y-84410810D02*
X164932196Y-84029858D01*
X164932196Y-84029858D02*
X164979815Y-83934620D01*
X164979815Y-83934620D02*
X165027434Y-83887001D01*
X165027434Y-83887001D02*
X165122672Y-83839382D01*
X165122672Y-83839382D02*
X165265529Y-83839382D01*
X165265529Y-83839382D02*
X165360767Y-83887001D01*
X165360767Y-83887001D02*
X165408386Y-83934620D01*
X165408386Y-83934620D02*
X165456005Y-84029858D01*
X165456005Y-84029858D02*
X165456005Y-84410810D01*
X174808555Y-87259154D02*
X175341889Y-88059154D01*
X175341889Y-87259154D02*
X174808555Y-88059154D01*
X175532365Y-87259154D02*
X175989508Y-87259154D01*
X175760936Y-88059154D02*
X175760936Y-87259154D01*
X176256175Y-88059154D02*
X176256175Y-87525820D01*
X176256175Y-87678201D02*
X176294270Y-87602011D01*
X176294270Y-87602011D02*
X176332365Y-87563916D01*
X176332365Y-87563916D02*
X176408556Y-87525820D01*
X176408556Y-87525820D02*
X176484746Y-87525820D01*
X177094270Y-87525820D02*
X177094270Y-88173439D01*
X177094270Y-88173439D02*
X177056175Y-88249630D01*
X177056175Y-88249630D02*
X177018079Y-88287725D01*
X177018079Y-88287725D02*
X176941889Y-88325820D01*
X176941889Y-88325820D02*
X176827603Y-88325820D01*
X176827603Y-88325820D02*
X176751413Y-88287725D01*
X177094270Y-88021059D02*
X177018079Y-88059154D01*
X177018079Y-88059154D02*
X176865698Y-88059154D01*
X176865698Y-88059154D02*
X176789508Y-88021059D01*
X176789508Y-88021059D02*
X176751413Y-87982963D01*
X176751413Y-87982963D02*
X176713317Y-87906773D01*
X176713317Y-87906773D02*
X176713317Y-87678201D01*
X176713317Y-87678201D02*
X176751413Y-87602011D01*
X176751413Y-87602011D02*
X176789508Y-87563916D01*
X176789508Y-87563916D02*
X176865698Y-87525820D01*
X176865698Y-87525820D02*
X177018079Y-87525820D01*
X177018079Y-87525820D02*
X177094270Y-87563916D01*
D14*
X114829936Y-107542725D02*
X114829936Y-108257010D01*
X114829936Y-108257010D02*
X114782317Y-108399867D01*
X114782317Y-108399867D02*
X114687079Y-108495106D01*
X114687079Y-108495106D02*
X114544222Y-108542725D01*
X114544222Y-108542725D02*
X114448984Y-108542725D01*
X115210889Y-107542725D02*
X115829936Y-107542725D01*
X115829936Y-107542725D02*
X115496603Y-107923677D01*
X115496603Y-107923677D02*
X115639460Y-107923677D01*
X115639460Y-107923677D02*
X115734698Y-107971296D01*
X115734698Y-107971296D02*
X115782317Y-108018915D01*
X115782317Y-108018915D02*
X115829936Y-108114153D01*
X115829936Y-108114153D02*
X115829936Y-108352248D01*
X115829936Y-108352248D02*
X115782317Y-108447486D01*
X115782317Y-108447486D02*
X115734698Y-108495106D01*
X115734698Y-108495106D02*
X115639460Y-108542725D01*
X115639460Y-108542725D02*
X115353746Y-108542725D01*
X115353746Y-108542725D02*
X115258508Y-108495106D01*
X115258508Y-108495106D02*
X115210889Y-108447486D01*
D11*
X155448095Y-78404819D02*
X155448095Y-79214342D01*
X155448095Y-79214342D02*
X155495714Y-79309580D01*
X155495714Y-79309580D02*
X155543333Y-79357200D01*
X155543333Y-79357200D02*
X155638571Y-79404819D01*
X155638571Y-79404819D02*
X155829047Y-79404819D01*
X155829047Y-79404819D02*
X155924285Y-79357200D01*
X155924285Y-79357200D02*
X155971904Y-79309580D01*
X155971904Y-79309580D02*
X156019523Y-79214342D01*
X156019523Y-79214342D02*
X156019523Y-78404819D01*
X156448095Y-78500057D02*
X156495714Y-78452438D01*
X156495714Y-78452438D02*
X156590952Y-78404819D01*
X156590952Y-78404819D02*
X156829047Y-78404819D01*
X156829047Y-78404819D02*
X156924285Y-78452438D01*
X156924285Y-78452438D02*
X156971904Y-78500057D01*
X156971904Y-78500057D02*
X157019523Y-78595295D01*
X157019523Y-78595295D02*
X157019523Y-78690533D01*
X157019523Y-78690533D02*
X156971904Y-78833390D01*
X156971904Y-78833390D02*
X156400476Y-79404819D01*
X156400476Y-79404819D02*
X157019523Y-79404819D01*
X156630952Y-89144819D02*
X156630952Y-88144819D01*
X156630952Y-88621009D02*
X157202380Y-88621009D01*
X157202380Y-89144819D02*
X157202380Y-88144819D01*
X158202380Y-89144819D02*
X157630952Y-89144819D01*
X157916666Y-89144819D02*
X157916666Y-88144819D01*
X157916666Y-88144819D02*
X157821428Y-88287676D01*
X157821428Y-88287676D02*
X157726190Y-88382914D01*
X157726190Y-88382914D02*
X157630952Y-88430533D01*
X159154761Y-89144819D02*
X158583333Y-89144819D01*
X158869047Y-89144819D02*
X158869047Y-88144819D01*
X158869047Y-88144819D02*
X158773809Y-88287676D01*
X158773809Y-88287676D02*
X158678571Y-88382914D01*
X158678571Y-88382914D02*
X158583333Y-88430533D01*
X160059523Y-89144819D02*
X159583333Y-89144819D01*
X159583333Y-89144819D02*
X159583333Y-88144819D01*
X160916666Y-89144819D02*
X160345238Y-89144819D01*
X160630952Y-89144819D02*
X160630952Y-88144819D01*
X160630952Y-88144819D02*
X160535714Y-88287676D01*
X160535714Y-88287676D02*
X160440476Y-88382914D01*
X160440476Y-88382914D02*
X160345238Y-88430533D01*
X158599495Y-83274819D02*
X158599495Y-84084342D01*
X158599495Y-84084342D02*
X158647114Y-84179580D01*
X158647114Y-84179580D02*
X158694733Y-84227200D01*
X158694733Y-84227200D02*
X158789971Y-84274819D01*
X158789971Y-84274819D02*
X158980447Y-84274819D01*
X158980447Y-84274819D02*
X159075685Y-84227200D01*
X159075685Y-84227200D02*
X159123304Y-84179580D01*
X159123304Y-84179580D02*
X159170923Y-84084342D01*
X159170923Y-84084342D02*
X159170923Y-83274819D01*
X159599495Y-83370057D02*
X159647114Y-83322438D01*
X159647114Y-83322438D02*
X159742352Y-83274819D01*
X159742352Y-83274819D02*
X159980447Y-83274819D01*
X159980447Y-83274819D02*
X160075685Y-83322438D01*
X160075685Y-83322438D02*
X160123304Y-83370057D01*
X160123304Y-83370057D02*
X160170923Y-83465295D01*
X160170923Y-83465295D02*
X160170923Y-83560533D01*
X160170923Y-83560533D02*
X160123304Y-83703390D01*
X160123304Y-83703390D02*
X159551876Y-84274819D01*
X159551876Y-84274819D02*
X160170923Y-84274819D01*
X168845244Y-93190574D02*
X168988101Y-93238193D01*
X168988101Y-93238193D02*
X169226196Y-93238193D01*
X169226196Y-93238193D02*
X169321434Y-93190574D01*
X169321434Y-93190574D02*
X169369053Y-93142954D01*
X169369053Y-93142954D02*
X169416672Y-93047716D01*
X169416672Y-93047716D02*
X169416672Y-92952478D01*
X169416672Y-92952478D02*
X169369053Y-92857240D01*
X169369053Y-92857240D02*
X169321434Y-92809621D01*
X169321434Y-92809621D02*
X169226196Y-92762002D01*
X169226196Y-92762002D02*
X169035720Y-92714383D01*
X169035720Y-92714383D02*
X168940482Y-92666764D01*
X168940482Y-92666764D02*
X168892863Y-92619145D01*
X168892863Y-92619145D02*
X168845244Y-92523907D01*
X168845244Y-92523907D02*
X168845244Y-92428669D01*
X168845244Y-92428669D02*
X168892863Y-92333431D01*
X168892863Y-92333431D02*
X168940482Y-92285812D01*
X168940482Y-92285812D02*
X169035720Y-92238193D01*
X169035720Y-92238193D02*
X169273815Y-92238193D01*
X169273815Y-92238193D02*
X169416672Y-92285812D01*
X169750006Y-92571526D02*
X169988101Y-93238193D01*
X170226196Y-92571526D02*
X169988101Y-93238193D01*
X169988101Y-93238193D02*
X169892863Y-93476288D01*
X169892863Y-93476288D02*
X169845244Y-93523907D01*
X169845244Y-93523907D02*
X169750006Y-93571526D01*
X170559530Y-93190574D02*
X170654768Y-93238193D01*
X170654768Y-93238193D02*
X170845244Y-93238193D01*
X170845244Y-93238193D02*
X170940482Y-93190574D01*
X170940482Y-93190574D02*
X170988101Y-93095335D01*
X170988101Y-93095335D02*
X170988101Y-93047716D01*
X170988101Y-93047716D02*
X170940482Y-92952478D01*
X170940482Y-92952478D02*
X170845244Y-92904859D01*
X170845244Y-92904859D02*
X170702387Y-92904859D01*
X170702387Y-92904859D02*
X170607149Y-92857240D01*
X170607149Y-92857240D02*
X170559530Y-92762002D01*
X170559530Y-92762002D02*
X170559530Y-92714383D01*
X170559530Y-92714383D02*
X170607149Y-92619145D01*
X170607149Y-92619145D02*
X170702387Y-92571526D01*
X170702387Y-92571526D02*
X170845244Y-92571526D01*
X170845244Y-92571526D02*
X170940482Y-92619145D01*
X171369054Y-92333431D02*
X171416673Y-92285812D01*
X171416673Y-92285812D02*
X171511911Y-92238193D01*
X171511911Y-92238193D02*
X171750006Y-92238193D01*
X171750006Y-92238193D02*
X171845244Y-92285812D01*
X171845244Y-92285812D02*
X171892863Y-92333431D01*
X171892863Y-92333431D02*
X171940482Y-92428669D01*
X171940482Y-92428669D02*
X171940482Y-92523907D01*
X171940482Y-92523907D02*
X171892863Y-92666764D01*
X171892863Y-92666764D02*
X171321435Y-93238193D01*
X171321435Y-93238193D02*
X171940482Y-93238193D01*
X172130959Y-93333431D02*
X172892863Y-93333431D01*
X173702387Y-93142954D02*
X173654768Y-93190574D01*
X173654768Y-93190574D02*
X173511911Y-93238193D01*
X173511911Y-93238193D02*
X173416673Y-93238193D01*
X173416673Y-93238193D02*
X173273816Y-93190574D01*
X173273816Y-93190574D02*
X173178578Y-93095335D01*
X173178578Y-93095335D02*
X173130959Y-93000097D01*
X173130959Y-93000097D02*
X173083340Y-92809621D01*
X173083340Y-92809621D02*
X173083340Y-92666764D01*
X173083340Y-92666764D02*
X173130959Y-92476288D01*
X173130959Y-92476288D02*
X173178578Y-92381050D01*
X173178578Y-92381050D02*
X173273816Y-92285812D01*
X173273816Y-92285812D02*
X173416673Y-92238193D01*
X173416673Y-92238193D02*
X173511911Y-92238193D01*
X173511911Y-92238193D02*
X173654768Y-92285812D01*
X173654768Y-92285812D02*
X173702387Y-92333431D01*
X174273816Y-93238193D02*
X174178578Y-93190574D01*
X174178578Y-93190574D02*
X174130959Y-93142954D01*
X174130959Y-93142954D02*
X174083340Y-93047716D01*
X174083340Y-93047716D02*
X174083340Y-92762002D01*
X174083340Y-92762002D02*
X174130959Y-92666764D01*
X174130959Y-92666764D02*
X174178578Y-92619145D01*
X174178578Y-92619145D02*
X174273816Y-92571526D01*
X174273816Y-92571526D02*
X174416673Y-92571526D01*
X174416673Y-92571526D02*
X174511911Y-92619145D01*
X174511911Y-92619145D02*
X174559530Y-92666764D01*
X174559530Y-92666764D02*
X174607149Y-92762002D01*
X174607149Y-92762002D02*
X174607149Y-93047716D01*
X174607149Y-93047716D02*
X174559530Y-93142954D01*
X174559530Y-93142954D02*
X174511911Y-93190574D01*
X174511911Y-93190574D02*
X174416673Y-93238193D01*
X174416673Y-93238193D02*
X174273816Y-93238193D01*
X175035721Y-92571526D02*
X175035721Y-93238193D01*
X175035721Y-92666764D02*
X175083340Y-92619145D01*
X175083340Y-92619145D02*
X175178578Y-92571526D01*
X175178578Y-92571526D02*
X175321435Y-92571526D01*
X175321435Y-92571526D02*
X175416673Y-92619145D01*
X175416673Y-92619145D02*
X175464292Y-92714383D01*
X175464292Y-92714383D02*
X175464292Y-93238193D01*
X175940483Y-92571526D02*
X175940483Y-93238193D01*
X175940483Y-92666764D02*
X175988102Y-92619145D01*
X175988102Y-92619145D02*
X176083340Y-92571526D01*
X176083340Y-92571526D02*
X176226197Y-92571526D01*
X176226197Y-92571526D02*
X176321435Y-92619145D01*
X176321435Y-92619145D02*
X176369054Y-92714383D01*
X176369054Y-92714383D02*
X176369054Y-93238193D01*
X177369054Y-93238193D02*
X176797626Y-93238193D01*
X177083340Y-93238193D02*
X177083340Y-92238193D01*
X177083340Y-92238193D02*
X176988102Y-92381050D01*
X176988102Y-92381050D02*
X176892864Y-92476288D01*
X176892864Y-92476288D02*
X176797626Y-92523907D01*
X113322745Y-78925721D02*
X113465602Y-78973340D01*
X113465602Y-78973340D02*
X113703697Y-78973340D01*
X113703697Y-78973340D02*
X113798935Y-78925721D01*
X113798935Y-78925721D02*
X113846554Y-78878101D01*
X113846554Y-78878101D02*
X113894173Y-78782863D01*
X113894173Y-78782863D02*
X113894173Y-78687625D01*
X113894173Y-78687625D02*
X113846554Y-78592387D01*
X113846554Y-78592387D02*
X113798935Y-78544768D01*
X113798935Y-78544768D02*
X113703697Y-78497149D01*
X113703697Y-78497149D02*
X113513221Y-78449530D01*
X113513221Y-78449530D02*
X113417983Y-78401911D01*
X113417983Y-78401911D02*
X113370364Y-78354292D01*
X113370364Y-78354292D02*
X113322745Y-78259054D01*
X113322745Y-78259054D02*
X113322745Y-78163816D01*
X113322745Y-78163816D02*
X113370364Y-78068578D01*
X113370364Y-78068578D02*
X113417983Y-78020959D01*
X113417983Y-78020959D02*
X113513221Y-77973340D01*
X113513221Y-77973340D02*
X113751316Y-77973340D01*
X113751316Y-77973340D02*
X113894173Y-78020959D01*
X114227507Y-78306673D02*
X114465602Y-78973340D01*
X114703697Y-78306673D02*
X114465602Y-78973340D01*
X114465602Y-78973340D02*
X114370364Y-79211435D01*
X114370364Y-79211435D02*
X114322745Y-79259054D01*
X114322745Y-79259054D02*
X114227507Y-79306673D01*
X115037031Y-78925721D02*
X115132269Y-78973340D01*
X115132269Y-78973340D02*
X115322745Y-78973340D01*
X115322745Y-78973340D02*
X115417983Y-78925721D01*
X115417983Y-78925721D02*
X115465602Y-78830482D01*
X115465602Y-78830482D02*
X115465602Y-78782863D01*
X115465602Y-78782863D02*
X115417983Y-78687625D01*
X115417983Y-78687625D02*
X115322745Y-78640006D01*
X115322745Y-78640006D02*
X115179888Y-78640006D01*
X115179888Y-78640006D02*
X115084650Y-78592387D01*
X115084650Y-78592387D02*
X115037031Y-78497149D01*
X115037031Y-78497149D02*
X115037031Y-78449530D01*
X115037031Y-78449530D02*
X115084650Y-78354292D01*
X115084650Y-78354292D02*
X115179888Y-78306673D01*
X115179888Y-78306673D02*
X115322745Y-78306673D01*
X115322745Y-78306673D02*
X115417983Y-78354292D01*
X116417983Y-78973340D02*
X115846555Y-78973340D01*
X116132269Y-78973340D02*
X116132269Y-77973340D01*
X116132269Y-77973340D02*
X116037031Y-78116197D01*
X116037031Y-78116197D02*
X115941793Y-78211435D01*
X115941793Y-78211435D02*
X115846555Y-78259054D01*
X116608460Y-79068578D02*
X117370364Y-79068578D01*
X118179888Y-78878101D02*
X118132269Y-78925721D01*
X118132269Y-78925721D02*
X117989412Y-78973340D01*
X117989412Y-78973340D02*
X117894174Y-78973340D01*
X117894174Y-78973340D02*
X117751317Y-78925721D01*
X117751317Y-78925721D02*
X117656079Y-78830482D01*
X117656079Y-78830482D02*
X117608460Y-78735244D01*
X117608460Y-78735244D02*
X117560841Y-78544768D01*
X117560841Y-78544768D02*
X117560841Y-78401911D01*
X117560841Y-78401911D02*
X117608460Y-78211435D01*
X117608460Y-78211435D02*
X117656079Y-78116197D01*
X117656079Y-78116197D02*
X117751317Y-78020959D01*
X117751317Y-78020959D02*
X117894174Y-77973340D01*
X117894174Y-77973340D02*
X117989412Y-77973340D01*
X117989412Y-77973340D02*
X118132269Y-78020959D01*
X118132269Y-78020959D02*
X118179888Y-78068578D01*
X118751317Y-78973340D02*
X118656079Y-78925721D01*
X118656079Y-78925721D02*
X118608460Y-78878101D01*
X118608460Y-78878101D02*
X118560841Y-78782863D01*
X118560841Y-78782863D02*
X118560841Y-78497149D01*
X118560841Y-78497149D02*
X118608460Y-78401911D01*
X118608460Y-78401911D02*
X118656079Y-78354292D01*
X118656079Y-78354292D02*
X118751317Y-78306673D01*
X118751317Y-78306673D02*
X118894174Y-78306673D01*
X118894174Y-78306673D02*
X118989412Y-78354292D01*
X118989412Y-78354292D02*
X119037031Y-78401911D01*
X119037031Y-78401911D02*
X119084650Y-78497149D01*
X119084650Y-78497149D02*
X119084650Y-78782863D01*
X119084650Y-78782863D02*
X119037031Y-78878101D01*
X119037031Y-78878101D02*
X118989412Y-78925721D01*
X118989412Y-78925721D02*
X118894174Y-78973340D01*
X118894174Y-78973340D02*
X118751317Y-78973340D01*
X119513222Y-78306673D02*
X119513222Y-78973340D01*
X119513222Y-78401911D02*
X119560841Y-78354292D01*
X119560841Y-78354292D02*
X119656079Y-78306673D01*
X119656079Y-78306673D02*
X119798936Y-78306673D01*
X119798936Y-78306673D02*
X119894174Y-78354292D01*
X119894174Y-78354292D02*
X119941793Y-78449530D01*
X119941793Y-78449530D02*
X119941793Y-78973340D01*
X120417984Y-78306673D02*
X120417984Y-78973340D01*
X120417984Y-78401911D02*
X120465603Y-78354292D01*
X120465603Y-78354292D02*
X120560841Y-78306673D01*
X120560841Y-78306673D02*
X120703698Y-78306673D01*
X120703698Y-78306673D02*
X120798936Y-78354292D01*
X120798936Y-78354292D02*
X120846555Y-78449530D01*
X120846555Y-78449530D02*
X120846555Y-78973340D01*
X121846555Y-78973340D02*
X121275127Y-78973340D01*
X121560841Y-78973340D02*
X121560841Y-77973340D01*
X121560841Y-77973340D02*
X121465603Y-78116197D01*
X121465603Y-78116197D02*
X121370365Y-78211435D01*
X121370365Y-78211435D02*
X121275127Y-78259054D01*
D14*
X147828095Y-115027419D02*
X147828095Y-115836942D01*
X147828095Y-115836942D02*
X147875714Y-115932180D01*
X147875714Y-115932180D02*
X147923333Y-115979800D01*
X147923333Y-115979800D02*
X148018571Y-116027419D01*
X148018571Y-116027419D02*
X148209047Y-116027419D01*
X148209047Y-116027419D02*
X148304285Y-115979800D01*
X148304285Y-115979800D02*
X148351904Y-115932180D01*
X148351904Y-115932180D02*
X148399523Y-115836942D01*
X148399523Y-115836942D02*
X148399523Y-115027419D01*
X149351904Y-115027419D02*
X148875714Y-115027419D01*
X148875714Y-115027419D02*
X148828095Y-115503609D01*
X148828095Y-115503609D02*
X148875714Y-115455990D01*
X148875714Y-115455990D02*
X148970952Y-115408371D01*
X148970952Y-115408371D02*
X149209047Y-115408371D01*
X149209047Y-115408371D02*
X149304285Y-115455990D01*
X149304285Y-115455990D02*
X149351904Y-115503609D01*
X149351904Y-115503609D02*
X149399523Y-115598847D01*
X149399523Y-115598847D02*
X149399523Y-115836942D01*
X149399523Y-115836942D02*
X149351904Y-115932180D01*
X149351904Y-115932180D02*
X149304285Y-115979800D01*
X149304285Y-115979800D02*
X149209047Y-116027419D01*
X149209047Y-116027419D02*
X148970952Y-116027419D01*
X148970952Y-116027419D02*
X148875714Y-115979800D01*
X148875714Y-115979800D02*
X148828095Y-115932180D01*
D15*
X147689673Y-113569394D02*
X147689673Y-112569394D01*
X147689673Y-112569394D02*
X147927768Y-112569394D01*
X147927768Y-112569394D02*
X148070625Y-112617013D01*
X148070625Y-112617013D02*
X148165863Y-112712251D01*
X148165863Y-112712251D02*
X148213482Y-112807489D01*
X148213482Y-112807489D02*
X148261101Y-112997965D01*
X148261101Y-112997965D02*
X148261101Y-113140822D01*
X148261101Y-113140822D02*
X148213482Y-113331298D01*
X148213482Y-113331298D02*
X148165863Y-113426536D01*
X148165863Y-113426536D02*
X148070625Y-113521775D01*
X148070625Y-113521775D02*
X147927768Y-113569394D01*
X147927768Y-113569394D02*
X147689673Y-113569394D01*
X149118244Y-112902727D02*
X149118244Y-113569394D01*
X148689673Y-112902727D02*
X148689673Y-113426536D01*
X148689673Y-113426536D02*
X148737292Y-113521775D01*
X148737292Y-113521775D02*
X148832530Y-113569394D01*
X148832530Y-113569394D02*
X148975387Y-113569394D01*
X148975387Y-113569394D02*
X149070625Y-113521775D01*
X149070625Y-113521775D02*
X149118244Y-113474155D01*
X150023006Y-113569394D02*
X150023006Y-113045584D01*
X150023006Y-113045584D02*
X149975387Y-112950346D01*
X149975387Y-112950346D02*
X149880149Y-112902727D01*
X149880149Y-112902727D02*
X149689673Y-112902727D01*
X149689673Y-112902727D02*
X149594435Y-112950346D01*
X150023006Y-113521775D02*
X149927768Y-113569394D01*
X149927768Y-113569394D02*
X149689673Y-113569394D01*
X149689673Y-113569394D02*
X149594435Y-113521775D01*
X149594435Y-113521775D02*
X149546816Y-113426536D01*
X149546816Y-113426536D02*
X149546816Y-113331298D01*
X149546816Y-113331298D02*
X149594435Y-113236060D01*
X149594435Y-113236060D02*
X149689673Y-113188441D01*
X149689673Y-113188441D02*
X149927768Y-113188441D01*
X149927768Y-113188441D02*
X150023006Y-113140822D01*
X150642054Y-113569394D02*
X150546816Y-113521775D01*
X150546816Y-113521775D02*
X150499197Y-113426536D01*
X150499197Y-113426536D02*
X150499197Y-112569394D01*
X151784912Y-113569394D02*
X151784912Y-112569394D01*
X151784912Y-112569394D02*
X152118245Y-113283679D01*
X152118245Y-113283679D02*
X152451578Y-112569394D01*
X152451578Y-112569394D02*
X152451578Y-113569394D01*
X153118245Y-112569394D02*
X153308721Y-112569394D01*
X153308721Y-112569394D02*
X153403959Y-112617013D01*
X153403959Y-112617013D02*
X153499197Y-112712251D01*
X153499197Y-112712251D02*
X153546816Y-112902727D01*
X153546816Y-112902727D02*
X153546816Y-113236060D01*
X153546816Y-113236060D02*
X153499197Y-113426536D01*
X153499197Y-113426536D02*
X153403959Y-113521775D01*
X153403959Y-113521775D02*
X153308721Y-113569394D01*
X153308721Y-113569394D02*
X153118245Y-113569394D01*
X153118245Y-113569394D02*
X153023007Y-113521775D01*
X153023007Y-113521775D02*
X152927769Y-113426536D01*
X152927769Y-113426536D02*
X152880150Y-113236060D01*
X152880150Y-113236060D02*
X152880150Y-112902727D01*
X152880150Y-112902727D02*
X152927769Y-112712251D01*
X152927769Y-112712251D02*
X153023007Y-112617013D01*
X153023007Y-112617013D02*
X153118245Y-112569394D01*
X153927769Y-113521775D02*
X154070626Y-113569394D01*
X154070626Y-113569394D02*
X154308721Y-113569394D01*
X154308721Y-113569394D02*
X154403959Y-113521775D01*
X154403959Y-113521775D02*
X154451578Y-113474155D01*
X154451578Y-113474155D02*
X154499197Y-113378917D01*
X154499197Y-113378917D02*
X154499197Y-113283679D01*
X154499197Y-113283679D02*
X154451578Y-113188441D01*
X154451578Y-113188441D02*
X154403959Y-113140822D01*
X154403959Y-113140822D02*
X154308721Y-113093203D01*
X154308721Y-113093203D02*
X154118245Y-113045584D01*
X154118245Y-113045584D02*
X154023007Y-112997965D01*
X154023007Y-112997965D02*
X153975388Y-112950346D01*
X153975388Y-112950346D02*
X153927769Y-112855108D01*
X153927769Y-112855108D02*
X153927769Y-112759870D01*
X153927769Y-112759870D02*
X153975388Y-112664632D01*
X153975388Y-112664632D02*
X154023007Y-112617013D01*
X154023007Y-112617013D02*
X154118245Y-112569394D01*
X154118245Y-112569394D02*
X154356340Y-112569394D01*
X154356340Y-112569394D02*
X154499197Y-112617013D01*
X155689674Y-113569394D02*
X155689674Y-112569394D01*
X155689674Y-112569394D02*
X155927769Y-112569394D01*
X155927769Y-112569394D02*
X156070626Y-112617013D01*
X156070626Y-112617013D02*
X156165864Y-112712251D01*
X156165864Y-112712251D02*
X156213483Y-112807489D01*
X156213483Y-112807489D02*
X156261102Y-112997965D01*
X156261102Y-112997965D02*
X156261102Y-113140822D01*
X156261102Y-113140822D02*
X156213483Y-113331298D01*
X156213483Y-113331298D02*
X156165864Y-113426536D01*
X156165864Y-113426536D02*
X156070626Y-113521775D01*
X156070626Y-113521775D02*
X155927769Y-113569394D01*
X155927769Y-113569394D02*
X155689674Y-113569394D01*
X156689674Y-113569394D02*
X156689674Y-112902727D01*
X156689674Y-113093203D02*
X156737293Y-112997965D01*
X156737293Y-112997965D02*
X156784912Y-112950346D01*
X156784912Y-112950346D02*
X156880150Y-112902727D01*
X156880150Y-112902727D02*
X156975388Y-112902727D01*
X157308722Y-113569394D02*
X157308722Y-112902727D01*
X157308722Y-112569394D02*
X157261103Y-112617013D01*
X157261103Y-112617013D02*
X157308722Y-112664632D01*
X157308722Y-112664632D02*
X157356341Y-112617013D01*
X157356341Y-112617013D02*
X157308722Y-112569394D01*
X157308722Y-112569394D02*
X157308722Y-112664632D01*
X157689674Y-112902727D02*
X157927769Y-113569394D01*
X157927769Y-113569394D02*
X158165864Y-112902727D01*
X158927769Y-113521775D02*
X158832531Y-113569394D01*
X158832531Y-113569394D02*
X158642055Y-113569394D01*
X158642055Y-113569394D02*
X158546817Y-113521775D01*
X158546817Y-113521775D02*
X158499198Y-113426536D01*
X158499198Y-113426536D02*
X158499198Y-113045584D01*
X158499198Y-113045584D02*
X158546817Y-112950346D01*
X158546817Y-112950346D02*
X158642055Y-112902727D01*
X158642055Y-112902727D02*
X158832531Y-112902727D01*
X158832531Y-112902727D02*
X158927769Y-112950346D01*
X158927769Y-112950346D02*
X158975388Y-113045584D01*
X158975388Y-113045584D02*
X158975388Y-113140822D01*
X158975388Y-113140822D02*
X158499198Y-113236060D01*
X159403960Y-113569394D02*
X159403960Y-112902727D01*
X159403960Y-113093203D02*
X159451579Y-112997965D01*
X159451579Y-112997965D02*
X159499198Y-112950346D01*
X159499198Y-112950346D02*
X159594436Y-112902727D01*
X159594436Y-112902727D02*
X159689674Y-112902727D01*
X160784913Y-113569394D02*
X160784913Y-112569394D01*
X160784913Y-112569394D02*
X161118246Y-113283679D01*
X161118246Y-113283679D02*
X161451579Y-112569394D01*
X161451579Y-112569394D02*
X161451579Y-113569394D01*
X162070627Y-113569394D02*
X161975389Y-113521775D01*
X161975389Y-113521775D02*
X161927770Y-113474155D01*
X161927770Y-113474155D02*
X161880151Y-113378917D01*
X161880151Y-113378917D02*
X161880151Y-113093203D01*
X161880151Y-113093203D02*
X161927770Y-112997965D01*
X161927770Y-112997965D02*
X161975389Y-112950346D01*
X161975389Y-112950346D02*
X162070627Y-112902727D01*
X162070627Y-112902727D02*
X162213484Y-112902727D01*
X162213484Y-112902727D02*
X162308722Y-112950346D01*
X162308722Y-112950346D02*
X162356341Y-112997965D01*
X162356341Y-112997965D02*
X162403960Y-113093203D01*
X162403960Y-113093203D02*
X162403960Y-113378917D01*
X162403960Y-113378917D02*
X162356341Y-113474155D01*
X162356341Y-113474155D02*
X162308722Y-113521775D01*
X162308722Y-113521775D02*
X162213484Y-113569394D01*
X162213484Y-113569394D02*
X162070627Y-113569394D01*
X163261103Y-113569394D02*
X163261103Y-112569394D01*
X163261103Y-113521775D02*
X163165865Y-113569394D01*
X163165865Y-113569394D02*
X162975389Y-113569394D01*
X162975389Y-113569394D02*
X162880151Y-113521775D01*
X162880151Y-113521775D02*
X162832532Y-113474155D01*
X162832532Y-113474155D02*
X162784913Y-113378917D01*
X162784913Y-113378917D02*
X162784913Y-113093203D01*
X162784913Y-113093203D02*
X162832532Y-112997965D01*
X162832532Y-112997965D02*
X162880151Y-112950346D01*
X162880151Y-112950346D02*
X162975389Y-112902727D01*
X162975389Y-112902727D02*
X163165865Y-112902727D01*
X163165865Y-112902727D02*
X163261103Y-112950346D01*
X164165865Y-112902727D02*
X164165865Y-113569394D01*
X163737294Y-112902727D02*
X163737294Y-113426536D01*
X163737294Y-113426536D02*
X163784913Y-113521775D01*
X163784913Y-113521775D02*
X163880151Y-113569394D01*
X163880151Y-113569394D02*
X164023008Y-113569394D01*
X164023008Y-113569394D02*
X164118246Y-113521775D01*
X164118246Y-113521775D02*
X164165865Y-113474155D01*
X164784913Y-113569394D02*
X164689675Y-113521775D01*
X164689675Y-113521775D02*
X164642056Y-113426536D01*
X164642056Y-113426536D02*
X164642056Y-112569394D01*
X165546818Y-113521775D02*
X165451580Y-113569394D01*
X165451580Y-113569394D02*
X165261104Y-113569394D01*
X165261104Y-113569394D02*
X165165866Y-113521775D01*
X165165866Y-113521775D02*
X165118247Y-113426536D01*
X165118247Y-113426536D02*
X165118247Y-113045584D01*
X165118247Y-113045584D02*
X165165866Y-112950346D01*
X165165866Y-112950346D02*
X165261104Y-112902727D01*
X165261104Y-112902727D02*
X165451580Y-112902727D01*
X165451580Y-112902727D02*
X165546818Y-112950346D01*
X165546818Y-112950346D02*
X165594437Y-113045584D01*
X165594437Y-113045584D02*
X165594437Y-113140822D01*
X165594437Y-113140822D02*
X165118247Y-113236060D01*
D11*
X148096303Y-85737165D02*
X148048684Y-85689546D01*
X148048684Y-85689546D02*
X148001065Y-85594308D01*
X148001065Y-85594308D02*
X148001065Y-85356213D01*
X148001065Y-85356213D02*
X148048684Y-85260975D01*
X148048684Y-85260975D02*
X148096303Y-85213356D01*
X148096303Y-85213356D02*
X148191541Y-85165737D01*
X148191541Y-85165737D02*
X148286779Y-85165737D01*
X148286779Y-85165737D02*
X148429636Y-85213356D01*
X148429636Y-85213356D02*
X149001065Y-85784784D01*
X149001065Y-85784784D02*
X149001065Y-85165737D01*
X148001065Y-84832403D02*
X148001065Y-84165737D01*
X148001065Y-84165737D02*
X149001065Y-84594308D01*
X148001065Y-83594308D02*
X148001065Y-83499070D01*
X148001065Y-83499070D02*
X148048684Y-83403832D01*
X148048684Y-83403832D02*
X148096303Y-83356213D01*
X148096303Y-83356213D02*
X148191541Y-83308594D01*
X148191541Y-83308594D02*
X148382017Y-83260975D01*
X148382017Y-83260975D02*
X148620112Y-83260975D01*
X148620112Y-83260975D02*
X148810588Y-83308594D01*
X148810588Y-83308594D02*
X148905826Y-83356213D01*
X148905826Y-83356213D02*
X148953446Y-83403832D01*
X148953446Y-83403832D02*
X149001065Y-83499070D01*
X149001065Y-83499070D02*
X149001065Y-83594308D01*
X149001065Y-83594308D02*
X148953446Y-83689546D01*
X148953446Y-83689546D02*
X148905826Y-83737165D01*
X148905826Y-83737165D02*
X148810588Y-83784784D01*
X148810588Y-83784784D02*
X148620112Y-83832403D01*
X148620112Y-83832403D02*
X148382017Y-83832403D01*
X148382017Y-83832403D02*
X148191541Y-83784784D01*
X148191541Y-83784784D02*
X148096303Y-83737165D01*
X148096303Y-83737165D02*
X148048684Y-83689546D01*
X148048684Y-83689546D02*
X148001065Y-83594308D01*
X149001065Y-82260975D02*
X148524874Y-82594308D01*
X149001065Y-82832403D02*
X148001065Y-82832403D01*
X148001065Y-82832403D02*
X148001065Y-82451451D01*
X148001065Y-82451451D02*
X148048684Y-82356213D01*
X148048684Y-82356213D02*
X148096303Y-82308594D01*
X148096303Y-82308594D02*
X148191541Y-82260975D01*
X148191541Y-82260975D02*
X148334398Y-82260975D01*
X148334398Y-82260975D02*
X148429636Y-82308594D01*
X148429636Y-82308594D02*
X148477255Y-82356213D01*
X148477255Y-82356213D02*
X148524874Y-82451451D01*
X148524874Y-82451451D02*
X148524874Y-82832403D01*
X146631065Y-84165737D02*
X146154874Y-84499070D01*
X146631065Y-84737165D02*
X145631065Y-84737165D01*
X145631065Y-84737165D02*
X145631065Y-84356213D01*
X145631065Y-84356213D02*
X145678684Y-84260975D01*
X145678684Y-84260975D02*
X145726303Y-84213356D01*
X145726303Y-84213356D02*
X145821541Y-84165737D01*
X145821541Y-84165737D02*
X145964398Y-84165737D01*
X145964398Y-84165737D02*
X146059636Y-84213356D01*
X146059636Y-84213356D02*
X146107255Y-84260975D01*
X146107255Y-84260975D02*
X146154874Y-84356213D01*
X146154874Y-84356213D02*
X146154874Y-84737165D01*
X145726303Y-83784784D02*
X145678684Y-83737165D01*
X145678684Y-83737165D02*
X145631065Y-83641927D01*
X145631065Y-83641927D02*
X145631065Y-83403832D01*
X145631065Y-83403832D02*
X145678684Y-83308594D01*
X145678684Y-83308594D02*
X145726303Y-83260975D01*
X145726303Y-83260975D02*
X145821541Y-83213356D01*
X145821541Y-83213356D02*
X145916779Y-83213356D01*
X145916779Y-83213356D02*
X146059636Y-83260975D01*
X146059636Y-83260975D02*
X146631065Y-83832403D01*
X146631065Y-83832403D02*
X146631065Y-83213356D01*
X135128095Y-78194819D02*
X135128095Y-79004342D01*
X135128095Y-79004342D02*
X135175714Y-79099580D01*
X135175714Y-79099580D02*
X135223333Y-79147200D01*
X135223333Y-79147200D02*
X135318571Y-79194819D01*
X135318571Y-79194819D02*
X135509047Y-79194819D01*
X135509047Y-79194819D02*
X135604285Y-79147200D01*
X135604285Y-79147200D02*
X135651904Y-79099580D01*
X135651904Y-79099580D02*
X135699523Y-79004342D01*
X135699523Y-79004342D02*
X135699523Y-78194819D01*
X136080476Y-78194819D02*
X136699523Y-78194819D01*
X136699523Y-78194819D02*
X136366190Y-78575771D01*
X136366190Y-78575771D02*
X136509047Y-78575771D01*
X136509047Y-78575771D02*
X136604285Y-78623390D01*
X136604285Y-78623390D02*
X136651904Y-78671009D01*
X136651904Y-78671009D02*
X136699523Y-78766247D01*
X136699523Y-78766247D02*
X136699523Y-79004342D01*
X136699523Y-79004342D02*
X136651904Y-79099580D01*
X136651904Y-79099580D02*
X136604285Y-79147200D01*
X136604285Y-79147200D02*
X136509047Y-79194819D01*
X136509047Y-79194819D02*
X136223333Y-79194819D01*
X136223333Y-79194819D02*
X136128095Y-79147200D01*
X136128095Y-79147200D02*
X136080476Y-79099580D01*
X136310952Y-88955896D02*
X136310952Y-87955896D01*
X136310952Y-88432086D02*
X136882380Y-88432086D01*
X136882380Y-88955896D02*
X136882380Y-87955896D01*
X137882380Y-88955896D02*
X137310952Y-88955896D01*
X137596666Y-88955896D02*
X137596666Y-87955896D01*
X137596666Y-87955896D02*
X137501428Y-88098753D01*
X137501428Y-88098753D02*
X137406190Y-88193991D01*
X137406190Y-88193991D02*
X137310952Y-88241610D01*
X138834761Y-88955896D02*
X138263333Y-88955896D01*
X138549047Y-88955896D02*
X138549047Y-87955896D01*
X138549047Y-87955896D02*
X138453809Y-88098753D01*
X138453809Y-88098753D02*
X138358571Y-88193991D01*
X138358571Y-88193991D02*
X138263333Y-88241610D01*
X139739523Y-88955896D02*
X139263333Y-88955896D01*
X139263333Y-88955896D02*
X139263333Y-87955896D01*
X140596666Y-88955896D02*
X140025238Y-88955896D01*
X140310952Y-88955896D02*
X140310952Y-87955896D01*
X140310952Y-87955896D02*
X140215714Y-88098753D01*
X140215714Y-88098753D02*
X140120476Y-88193991D01*
X140120476Y-88193991D02*
X140025238Y-88241610D01*
X137668095Y-83274819D02*
X137668095Y-84084342D01*
X137668095Y-84084342D02*
X137715714Y-84179580D01*
X137715714Y-84179580D02*
X137763333Y-84227200D01*
X137763333Y-84227200D02*
X137858571Y-84274819D01*
X137858571Y-84274819D02*
X138049047Y-84274819D01*
X138049047Y-84274819D02*
X138144285Y-84227200D01*
X138144285Y-84227200D02*
X138191904Y-84179580D01*
X138191904Y-84179580D02*
X138239523Y-84084342D01*
X138239523Y-84084342D02*
X138239523Y-83274819D01*
X138620476Y-83274819D02*
X139239523Y-83274819D01*
X139239523Y-83274819D02*
X138906190Y-83655771D01*
X138906190Y-83655771D02*
X139049047Y-83655771D01*
X139049047Y-83655771D02*
X139144285Y-83703390D01*
X139144285Y-83703390D02*
X139191904Y-83751009D01*
X139191904Y-83751009D02*
X139239523Y-83846247D01*
X139239523Y-83846247D02*
X139239523Y-84084342D01*
X139239523Y-84084342D02*
X139191904Y-84179580D01*
X139191904Y-84179580D02*
X139144285Y-84227200D01*
X139144285Y-84227200D02*
X139049047Y-84274819D01*
X139049047Y-84274819D02*
X138763333Y-84274819D01*
X138763333Y-84274819D02*
X138668095Y-84227200D01*
X138668095Y-84227200D02*
X138620476Y-84179580D01*
X170552447Y-86464734D02*
X170076256Y-86798067D01*
X170552447Y-87036162D02*
X169552447Y-87036162D01*
X169552447Y-87036162D02*
X169552447Y-86655210D01*
X169552447Y-86655210D02*
X169600066Y-86559972D01*
X169600066Y-86559972D02*
X169647685Y-86512353D01*
X169647685Y-86512353D02*
X169742923Y-86464734D01*
X169742923Y-86464734D02*
X169885780Y-86464734D01*
X169885780Y-86464734D02*
X169981018Y-86512353D01*
X169981018Y-86512353D02*
X170028637Y-86559972D01*
X170028637Y-86559972D02*
X170076256Y-86655210D01*
X170076256Y-86655210D02*
X170076256Y-87036162D01*
X169552447Y-86131400D02*
X169552447Y-85512353D01*
X169552447Y-85512353D02*
X169933399Y-85845686D01*
X169933399Y-85845686D02*
X169933399Y-85702829D01*
X169933399Y-85702829D02*
X169981018Y-85607591D01*
X169981018Y-85607591D02*
X170028637Y-85559972D01*
X170028637Y-85559972D02*
X170123875Y-85512353D01*
X170123875Y-85512353D02*
X170361970Y-85512353D01*
X170361970Y-85512353D02*
X170457208Y-85559972D01*
X170457208Y-85559972D02*
X170504828Y-85607591D01*
X170504828Y-85607591D02*
X170552447Y-85702829D01*
X170552447Y-85702829D02*
X170552447Y-85988543D01*
X170552447Y-85988543D02*
X170504828Y-86083781D01*
X170504828Y-86083781D02*
X170457208Y-86131400D01*
X167190057Y-88098094D02*
X167142438Y-88050475D01*
X167142438Y-88050475D02*
X167094819Y-87955237D01*
X167094819Y-87955237D02*
X167094819Y-87717142D01*
X167094819Y-87717142D02*
X167142438Y-87621904D01*
X167142438Y-87621904D02*
X167190057Y-87574285D01*
X167190057Y-87574285D02*
X167285295Y-87526666D01*
X167285295Y-87526666D02*
X167380533Y-87526666D01*
X167380533Y-87526666D02*
X167523390Y-87574285D01*
X167523390Y-87574285D02*
X168094819Y-88145713D01*
X168094819Y-88145713D02*
X168094819Y-87526666D01*
X167094819Y-87193332D02*
X167094819Y-86526666D01*
X167094819Y-86526666D02*
X168094819Y-86955237D01*
X167094819Y-85955237D02*
X167094819Y-85859999D01*
X167094819Y-85859999D02*
X167142438Y-85764761D01*
X167142438Y-85764761D02*
X167190057Y-85717142D01*
X167190057Y-85717142D02*
X167285295Y-85669523D01*
X167285295Y-85669523D02*
X167475771Y-85621904D01*
X167475771Y-85621904D02*
X167713866Y-85621904D01*
X167713866Y-85621904D02*
X167904342Y-85669523D01*
X167904342Y-85669523D02*
X167999580Y-85717142D01*
X167999580Y-85717142D02*
X168047200Y-85764761D01*
X168047200Y-85764761D02*
X168094819Y-85859999D01*
X168094819Y-85859999D02*
X168094819Y-85955237D01*
X168094819Y-85955237D02*
X168047200Y-86050475D01*
X168047200Y-86050475D02*
X167999580Y-86098094D01*
X167999580Y-86098094D02*
X167904342Y-86145713D01*
X167904342Y-86145713D02*
X167713866Y-86193332D01*
X167713866Y-86193332D02*
X167475771Y-86193332D01*
X167475771Y-86193332D02*
X167285295Y-86145713D01*
X167285295Y-86145713D02*
X167190057Y-86098094D01*
X167190057Y-86098094D02*
X167142438Y-86050475D01*
X167142438Y-86050475D02*
X167094819Y-85955237D01*
X168094819Y-84621904D02*
X167618628Y-84955237D01*
X168094819Y-85193332D02*
X167094819Y-85193332D01*
X167094819Y-85193332D02*
X167094819Y-84812380D01*
X167094819Y-84812380D02*
X167142438Y-84717142D01*
X167142438Y-84717142D02*
X167190057Y-84669523D01*
X167190057Y-84669523D02*
X167285295Y-84621904D01*
X167285295Y-84621904D02*
X167428152Y-84621904D01*
X167428152Y-84621904D02*
X167523390Y-84669523D01*
X167523390Y-84669523D02*
X167571009Y-84717142D01*
X167571009Y-84717142D02*
X167618628Y-84812380D01*
X167618628Y-84812380D02*
X167618628Y-85193332D01*
X110692513Y-98192314D02*
X110835370Y-98239933D01*
X110835370Y-98239933D02*
X111073465Y-98239933D01*
X111073465Y-98239933D02*
X111168703Y-98192314D01*
X111168703Y-98192314D02*
X111216322Y-98144694D01*
X111216322Y-98144694D02*
X111263941Y-98049456D01*
X111263941Y-98049456D02*
X111263941Y-97954218D01*
X111263941Y-97954218D02*
X111216322Y-97858980D01*
X111216322Y-97858980D02*
X111168703Y-97811361D01*
X111168703Y-97811361D02*
X111073465Y-97763742D01*
X111073465Y-97763742D02*
X110882989Y-97716123D01*
X110882989Y-97716123D02*
X110787751Y-97668504D01*
X110787751Y-97668504D02*
X110740132Y-97620885D01*
X110740132Y-97620885D02*
X110692513Y-97525647D01*
X110692513Y-97525647D02*
X110692513Y-97430409D01*
X110692513Y-97430409D02*
X110740132Y-97335171D01*
X110740132Y-97335171D02*
X110787751Y-97287552D01*
X110787751Y-97287552D02*
X110882989Y-97239933D01*
X110882989Y-97239933D02*
X111121084Y-97239933D01*
X111121084Y-97239933D02*
X111263941Y-97287552D01*
X111549656Y-97573266D02*
X111930608Y-97573266D01*
X111692513Y-97239933D02*
X111692513Y-98097075D01*
X111692513Y-98097075D02*
X111740132Y-98192314D01*
X111740132Y-98192314D02*
X111835370Y-98239933D01*
X111835370Y-98239933D02*
X111930608Y-98239933D01*
X112263942Y-98239933D02*
X112263942Y-97573266D01*
X112263942Y-97763742D02*
X112311561Y-97668504D01*
X112311561Y-97668504D02*
X112359180Y-97620885D01*
X112359180Y-97620885D02*
X112454418Y-97573266D01*
X112454418Y-97573266D02*
X112549656Y-97573266D01*
X113025847Y-98239933D02*
X112930609Y-98192314D01*
X112930609Y-98192314D02*
X112882990Y-98144694D01*
X112882990Y-98144694D02*
X112835371Y-98049456D01*
X112835371Y-98049456D02*
X112835371Y-97763742D01*
X112835371Y-97763742D02*
X112882990Y-97668504D01*
X112882990Y-97668504D02*
X112930609Y-97620885D01*
X112930609Y-97620885D02*
X113025847Y-97573266D01*
X113025847Y-97573266D02*
X113168704Y-97573266D01*
X113168704Y-97573266D02*
X113263942Y-97620885D01*
X113263942Y-97620885D02*
X113311561Y-97668504D01*
X113311561Y-97668504D02*
X113359180Y-97763742D01*
X113359180Y-97763742D02*
X113359180Y-98049456D01*
X113359180Y-98049456D02*
X113311561Y-98144694D01*
X113311561Y-98144694D02*
X113263942Y-98192314D01*
X113263942Y-98192314D02*
X113168704Y-98239933D01*
X113168704Y-98239933D02*
X113025847Y-98239933D01*
X113787752Y-98239933D02*
X113787752Y-97239933D01*
X113787752Y-97620885D02*
X113882990Y-97573266D01*
X113882990Y-97573266D02*
X114073466Y-97573266D01*
X114073466Y-97573266D02*
X114168704Y-97620885D01*
X114168704Y-97620885D02*
X114216323Y-97668504D01*
X114216323Y-97668504D02*
X114263942Y-97763742D01*
X114263942Y-97763742D02*
X114263942Y-98049456D01*
X114263942Y-98049456D02*
X114216323Y-98144694D01*
X114216323Y-98144694D02*
X114168704Y-98192314D01*
X114168704Y-98192314D02*
X114073466Y-98239933D01*
X114073466Y-98239933D02*
X113882990Y-98239933D01*
X113882990Y-98239933D02*
X113787752Y-98192314D01*
X115073466Y-98192314D02*
X114978228Y-98239933D01*
X114978228Y-98239933D02*
X114787752Y-98239933D01*
X114787752Y-98239933D02*
X114692514Y-98192314D01*
X114692514Y-98192314D02*
X114644895Y-98097075D01*
X114644895Y-98097075D02*
X114644895Y-97716123D01*
X114644895Y-97716123D02*
X114692514Y-97620885D01*
X114692514Y-97620885D02*
X114787752Y-97573266D01*
X114787752Y-97573266D02*
X114978228Y-97573266D01*
X114978228Y-97573266D02*
X115073466Y-97620885D01*
X115073466Y-97620885D02*
X115121085Y-97716123D01*
X115121085Y-97716123D02*
X115121085Y-97811361D01*
X115121085Y-97811361D02*
X114644895Y-97906599D01*
X116073466Y-98239933D02*
X115502038Y-98239933D01*
X115787752Y-98239933D02*
X115787752Y-97239933D01*
X115787752Y-97239933D02*
X115692514Y-97382790D01*
X115692514Y-97382790D02*
X115597276Y-97478028D01*
X115597276Y-97478028D02*
X115502038Y-97525647D01*
X110449186Y-92554760D02*
X110592043Y-92602379D01*
X110592043Y-92602379D02*
X110830138Y-92602379D01*
X110830138Y-92602379D02*
X110925376Y-92554760D01*
X110925376Y-92554760D02*
X110972995Y-92507140D01*
X110972995Y-92507140D02*
X111020614Y-92411902D01*
X111020614Y-92411902D02*
X111020614Y-92316664D01*
X111020614Y-92316664D02*
X110972995Y-92221426D01*
X110972995Y-92221426D02*
X110925376Y-92173807D01*
X110925376Y-92173807D02*
X110830138Y-92126188D01*
X110830138Y-92126188D02*
X110639662Y-92078569D01*
X110639662Y-92078569D02*
X110544424Y-92030950D01*
X110544424Y-92030950D02*
X110496805Y-91983331D01*
X110496805Y-91983331D02*
X110449186Y-91888093D01*
X110449186Y-91888093D02*
X110449186Y-91792855D01*
X110449186Y-91792855D02*
X110496805Y-91697617D01*
X110496805Y-91697617D02*
X110544424Y-91649998D01*
X110544424Y-91649998D02*
X110639662Y-91602379D01*
X110639662Y-91602379D02*
X110877757Y-91602379D01*
X110877757Y-91602379D02*
X111020614Y-91649998D01*
X111449186Y-92602379D02*
X111449186Y-91602379D01*
X111877757Y-92602379D02*
X111877757Y-92078569D01*
X111877757Y-92078569D02*
X111830138Y-91983331D01*
X111830138Y-91983331D02*
X111734900Y-91935712D01*
X111734900Y-91935712D02*
X111592043Y-91935712D01*
X111592043Y-91935712D02*
X111496805Y-91983331D01*
X111496805Y-91983331D02*
X111449186Y-92030950D01*
X112782519Y-91935712D02*
X112782519Y-92602379D01*
X112353948Y-91935712D02*
X112353948Y-92459521D01*
X112353948Y-92459521D02*
X112401567Y-92554760D01*
X112401567Y-92554760D02*
X112496805Y-92602379D01*
X112496805Y-92602379D02*
X112639662Y-92602379D01*
X112639662Y-92602379D02*
X112734900Y-92554760D01*
X112734900Y-92554760D02*
X112782519Y-92507140D01*
X113115853Y-91935712D02*
X113496805Y-91935712D01*
X113258710Y-91602379D02*
X113258710Y-92459521D01*
X113258710Y-92459521D02*
X113306329Y-92554760D01*
X113306329Y-92554760D02*
X113401567Y-92602379D01*
X113401567Y-92602379D02*
X113496805Y-92602379D01*
X113687282Y-91935712D02*
X114068234Y-91935712D01*
X113830139Y-91602379D02*
X113830139Y-92459521D01*
X113830139Y-92459521D02*
X113877758Y-92554760D01*
X113877758Y-92554760D02*
X113972996Y-92602379D01*
X113972996Y-92602379D02*
X114068234Y-92602379D01*
X114782520Y-92554760D02*
X114687282Y-92602379D01*
X114687282Y-92602379D02*
X114496806Y-92602379D01*
X114496806Y-92602379D02*
X114401568Y-92554760D01*
X114401568Y-92554760D02*
X114353949Y-92459521D01*
X114353949Y-92459521D02*
X114353949Y-92078569D01*
X114353949Y-92078569D02*
X114401568Y-91983331D01*
X114401568Y-91983331D02*
X114496806Y-91935712D01*
X114496806Y-91935712D02*
X114687282Y-91935712D01*
X114687282Y-91935712D02*
X114782520Y-91983331D01*
X114782520Y-91983331D02*
X114830139Y-92078569D01*
X114830139Y-92078569D02*
X114830139Y-92173807D01*
X114830139Y-92173807D02*
X114353949Y-92269045D01*
X115258711Y-92602379D02*
X115258711Y-91935712D01*
X115258711Y-92126188D02*
X115306330Y-92030950D01*
X115306330Y-92030950D02*
X115353949Y-91983331D01*
X115353949Y-91983331D02*
X115449187Y-91935712D01*
X115449187Y-91935712D02*
X115544425Y-91935712D01*
X116401568Y-92602379D02*
X115830140Y-92602379D01*
X116115854Y-92602379D02*
X116115854Y-91602379D01*
X116115854Y-91602379D02*
X116020616Y-91745236D01*
X116020616Y-91745236D02*
X115925378Y-91840474D01*
X115925378Y-91840474D02*
X115830140Y-91888093D01*
X131318095Y-93434819D02*
X131318095Y-94244342D01*
X131318095Y-94244342D02*
X131365714Y-94339580D01*
X131365714Y-94339580D02*
X131413333Y-94387200D01*
X131413333Y-94387200D02*
X131508571Y-94434819D01*
X131508571Y-94434819D02*
X131699047Y-94434819D01*
X131699047Y-94434819D02*
X131794285Y-94387200D01*
X131794285Y-94387200D02*
X131841904Y-94339580D01*
X131841904Y-94339580D02*
X131889523Y-94244342D01*
X131889523Y-94244342D02*
X131889523Y-93434819D01*
X132794285Y-93768152D02*
X132794285Y-94434819D01*
X132556190Y-93387200D02*
X132318095Y-94101485D01*
X132318095Y-94101485D02*
X132937142Y-94101485D01*
X122944286Y-108464819D02*
X123610952Y-108464819D01*
X123610952Y-108464819D02*
X123182381Y-109464819D01*
X124420476Y-108798152D02*
X124420476Y-109464819D01*
X124182381Y-108417200D02*
X123944286Y-109131485D01*
X123944286Y-109131485D02*
X124563333Y-109131485D01*
X124944286Y-109464819D02*
X124944286Y-108464819D01*
X124944286Y-108941009D02*
X125515714Y-108941009D01*
X125515714Y-109464819D02*
X125515714Y-108464819D01*
X126563333Y-109369580D02*
X126515714Y-109417200D01*
X126515714Y-109417200D02*
X126372857Y-109464819D01*
X126372857Y-109464819D02*
X126277619Y-109464819D01*
X126277619Y-109464819D02*
X126134762Y-109417200D01*
X126134762Y-109417200D02*
X126039524Y-109321961D01*
X126039524Y-109321961D02*
X125991905Y-109226723D01*
X125991905Y-109226723D02*
X125944286Y-109036247D01*
X125944286Y-109036247D02*
X125944286Y-108893390D01*
X125944286Y-108893390D02*
X125991905Y-108702914D01*
X125991905Y-108702914D02*
X126039524Y-108607676D01*
X126039524Y-108607676D02*
X126134762Y-108512438D01*
X126134762Y-108512438D02*
X126277619Y-108464819D01*
X126277619Y-108464819D02*
X126372857Y-108464819D01*
X126372857Y-108464819D02*
X126515714Y-108512438D01*
X126515714Y-108512438D02*
X126563333Y-108560057D01*
X127182381Y-108464819D02*
X127277619Y-108464819D01*
X127277619Y-108464819D02*
X127372857Y-108512438D01*
X127372857Y-108512438D02*
X127420476Y-108560057D01*
X127420476Y-108560057D02*
X127468095Y-108655295D01*
X127468095Y-108655295D02*
X127515714Y-108845771D01*
X127515714Y-108845771D02*
X127515714Y-109083866D01*
X127515714Y-109083866D02*
X127468095Y-109274342D01*
X127468095Y-109274342D02*
X127420476Y-109369580D01*
X127420476Y-109369580D02*
X127372857Y-109417200D01*
X127372857Y-109417200D02*
X127277619Y-109464819D01*
X127277619Y-109464819D02*
X127182381Y-109464819D01*
X127182381Y-109464819D02*
X127087143Y-109417200D01*
X127087143Y-109417200D02*
X127039524Y-109369580D01*
X127039524Y-109369580D02*
X126991905Y-109274342D01*
X126991905Y-109274342D02*
X126944286Y-109083866D01*
X126944286Y-109083866D02*
X126944286Y-108845771D01*
X126944286Y-108845771D02*
X126991905Y-108655295D01*
X126991905Y-108655295D02*
X127039524Y-108560057D01*
X127039524Y-108560057D02*
X127087143Y-108512438D01*
X127087143Y-108512438D02*
X127182381Y-108464819D01*
X128372857Y-108798152D02*
X128372857Y-109464819D01*
X128134762Y-108417200D02*
X127896667Y-109131485D01*
X127896667Y-109131485D02*
X128515714Y-109131485D01*
X124968095Y-98514819D02*
X124968095Y-99324342D01*
X124968095Y-99324342D02*
X125015714Y-99419580D01*
X125015714Y-99419580D02*
X125063333Y-99467200D01*
X125063333Y-99467200D02*
X125158571Y-99514819D01*
X125158571Y-99514819D02*
X125349047Y-99514819D01*
X125349047Y-99514819D02*
X125444285Y-99467200D01*
X125444285Y-99467200D02*
X125491904Y-99419580D01*
X125491904Y-99419580D02*
X125539523Y-99324342D01*
X125539523Y-99324342D02*
X125539523Y-98514819D01*
X126444285Y-98848152D02*
X126444285Y-99514819D01*
X126206190Y-98467200D02*
X125968095Y-99181485D01*
X125968095Y-99181485D02*
X126587142Y-99181485D01*
X125563333Y-84104819D02*
X125230000Y-83628628D01*
X124991905Y-84104819D02*
X124991905Y-83104819D01*
X124991905Y-83104819D02*
X125372857Y-83104819D01*
X125372857Y-83104819D02*
X125468095Y-83152438D01*
X125468095Y-83152438D02*
X125515714Y-83200057D01*
X125515714Y-83200057D02*
X125563333Y-83295295D01*
X125563333Y-83295295D02*
X125563333Y-83438152D01*
X125563333Y-83438152D02*
X125515714Y-83533390D01*
X125515714Y-83533390D02*
X125468095Y-83581009D01*
X125468095Y-83581009D02*
X125372857Y-83628628D01*
X125372857Y-83628628D02*
X124991905Y-83628628D01*
X126515714Y-84104819D02*
X125944286Y-84104819D01*
X126230000Y-84104819D02*
X126230000Y-83104819D01*
X126230000Y-83104819D02*
X126134762Y-83247676D01*
X126134762Y-83247676D02*
X126039524Y-83342914D01*
X126039524Y-83342914D02*
X125944286Y-83390533D01*
X123944286Y-78364819D02*
X124563333Y-78364819D01*
X124563333Y-78364819D02*
X124230000Y-78745771D01*
X124230000Y-78745771D02*
X124372857Y-78745771D01*
X124372857Y-78745771D02*
X124468095Y-78793390D01*
X124468095Y-78793390D02*
X124515714Y-78841009D01*
X124515714Y-78841009D02*
X124563333Y-78936247D01*
X124563333Y-78936247D02*
X124563333Y-79174342D01*
X124563333Y-79174342D02*
X124515714Y-79269580D01*
X124515714Y-79269580D02*
X124468095Y-79317200D01*
X124468095Y-79317200D02*
X124372857Y-79364819D01*
X124372857Y-79364819D02*
X124087143Y-79364819D01*
X124087143Y-79364819D02*
X123991905Y-79317200D01*
X123991905Y-79317200D02*
X123944286Y-79269580D01*
X124896667Y-78364819D02*
X125515714Y-78364819D01*
X125515714Y-78364819D02*
X125182381Y-78745771D01*
X125182381Y-78745771D02*
X125325238Y-78745771D01*
X125325238Y-78745771D02*
X125420476Y-78793390D01*
X125420476Y-78793390D02*
X125468095Y-78841009D01*
X125468095Y-78841009D02*
X125515714Y-78936247D01*
X125515714Y-78936247D02*
X125515714Y-79174342D01*
X125515714Y-79174342D02*
X125468095Y-79269580D01*
X125468095Y-79269580D02*
X125420476Y-79317200D01*
X125420476Y-79317200D02*
X125325238Y-79364819D01*
X125325238Y-79364819D02*
X125039524Y-79364819D01*
X125039524Y-79364819D02*
X124944286Y-79317200D01*
X124944286Y-79317200D02*
X124896667Y-79269580D01*
X126134762Y-78364819D02*
X126230000Y-78364819D01*
X126230000Y-78364819D02*
X126325238Y-78412438D01*
X126325238Y-78412438D02*
X126372857Y-78460057D01*
X126372857Y-78460057D02*
X126420476Y-78555295D01*
X126420476Y-78555295D02*
X126468095Y-78745771D01*
X126468095Y-78745771D02*
X126468095Y-78983866D01*
X126468095Y-78983866D02*
X126420476Y-79174342D01*
X126420476Y-79174342D02*
X126372857Y-79269580D01*
X126372857Y-79269580D02*
X126325238Y-79317200D01*
X126325238Y-79317200D02*
X126230000Y-79364819D01*
X126230000Y-79364819D02*
X126134762Y-79364819D01*
X126134762Y-79364819D02*
X126039524Y-79317200D01*
X126039524Y-79317200D02*
X125991905Y-79269580D01*
X125991905Y-79269580D02*
X125944286Y-79174342D01*
X125944286Y-79174342D02*
X125896667Y-78983866D01*
X125896667Y-78983866D02*
X125896667Y-78745771D01*
X125896667Y-78745771D02*
X125944286Y-78555295D01*
X125944286Y-78555295D02*
X125991905Y-78460057D01*
X125991905Y-78460057D02*
X126039524Y-78412438D01*
X126039524Y-78412438D02*
X126134762Y-78364819D01*
X127468095Y-79364819D02*
X127134762Y-78888628D01*
X126896667Y-79364819D02*
X126896667Y-78364819D01*
X126896667Y-78364819D02*
X127277619Y-78364819D01*
X127277619Y-78364819D02*
X127372857Y-78412438D01*
X127372857Y-78412438D02*
X127420476Y-78460057D01*
X127420476Y-78460057D02*
X127468095Y-78555295D01*
X127468095Y-78555295D02*
X127468095Y-78698152D01*
X127468095Y-78698152D02*
X127420476Y-78793390D01*
X127420476Y-78793390D02*
X127372857Y-78841009D01*
X127372857Y-78841009D02*
X127277619Y-78888628D01*
X127277619Y-78888628D02*
X126896667Y-78888628D01*
X125563333Y-81734819D02*
X125230000Y-81258628D01*
X124991905Y-81734819D02*
X124991905Y-80734819D01*
X124991905Y-80734819D02*
X125372857Y-80734819D01*
X125372857Y-80734819D02*
X125468095Y-80782438D01*
X125468095Y-80782438D02*
X125515714Y-80830057D01*
X125515714Y-80830057D02*
X125563333Y-80925295D01*
X125563333Y-80925295D02*
X125563333Y-81068152D01*
X125563333Y-81068152D02*
X125515714Y-81163390D01*
X125515714Y-81163390D02*
X125468095Y-81211009D01*
X125468095Y-81211009D02*
X125372857Y-81258628D01*
X125372857Y-81258628D02*
X124991905Y-81258628D01*
X126515714Y-81734819D02*
X125944286Y-81734819D01*
X126230000Y-81734819D02*
X126230000Y-80734819D01*
X126230000Y-80734819D02*
X126134762Y-80877676D01*
X126134762Y-80877676D02*
X126039524Y-80972914D01*
X126039524Y-80972914D02*
X125944286Y-81020533D01*
X109666356Y-103236441D02*
X109809213Y-103284060D01*
X109809213Y-103284060D02*
X110047308Y-103284060D01*
X110047308Y-103284060D02*
X110142546Y-103236441D01*
X110142546Y-103236441D02*
X110190165Y-103188821D01*
X110190165Y-103188821D02*
X110237784Y-103093583D01*
X110237784Y-103093583D02*
X110237784Y-102998345D01*
X110237784Y-102998345D02*
X110190165Y-102903107D01*
X110190165Y-102903107D02*
X110142546Y-102855488D01*
X110142546Y-102855488D02*
X110047308Y-102807869D01*
X110047308Y-102807869D02*
X109856832Y-102760250D01*
X109856832Y-102760250D02*
X109761594Y-102712631D01*
X109761594Y-102712631D02*
X109713975Y-102665012D01*
X109713975Y-102665012D02*
X109666356Y-102569774D01*
X109666356Y-102569774D02*
X109666356Y-102474536D01*
X109666356Y-102474536D02*
X109713975Y-102379298D01*
X109713975Y-102379298D02*
X109761594Y-102331679D01*
X109761594Y-102331679D02*
X109856832Y-102284060D01*
X109856832Y-102284060D02*
X110094927Y-102284060D01*
X110094927Y-102284060D02*
X110237784Y-102331679D01*
X110571118Y-102617393D02*
X110809213Y-103284060D01*
X111047308Y-102617393D02*
X110809213Y-103284060D01*
X110809213Y-103284060D02*
X110713975Y-103522155D01*
X110713975Y-103522155D02*
X110666356Y-103569774D01*
X110666356Y-103569774D02*
X110571118Y-103617393D01*
X111380642Y-103236441D02*
X111475880Y-103284060D01*
X111475880Y-103284060D02*
X111666356Y-103284060D01*
X111666356Y-103284060D02*
X111761594Y-103236441D01*
X111761594Y-103236441D02*
X111809213Y-103141202D01*
X111809213Y-103141202D02*
X111809213Y-103093583D01*
X111809213Y-103093583D02*
X111761594Y-102998345D01*
X111761594Y-102998345D02*
X111666356Y-102950726D01*
X111666356Y-102950726D02*
X111523499Y-102950726D01*
X111523499Y-102950726D02*
X111428261Y-102903107D01*
X111428261Y-102903107D02*
X111380642Y-102807869D01*
X111380642Y-102807869D02*
X111380642Y-102760250D01*
X111380642Y-102760250D02*
X111428261Y-102665012D01*
X111428261Y-102665012D02*
X111523499Y-102617393D01*
X111523499Y-102617393D02*
X111666356Y-102617393D01*
X111666356Y-102617393D02*
X111761594Y-102665012D01*
X112761594Y-103284060D02*
X112190166Y-103284060D01*
X112475880Y-103284060D02*
X112475880Y-102284060D01*
X112475880Y-102284060D02*
X112380642Y-102426917D01*
X112380642Y-102426917D02*
X112285404Y-102522155D01*
X112285404Y-102522155D02*
X112190166Y-102569774D01*
X112952071Y-103379298D02*
X113713975Y-103379298D01*
X114475880Y-102331679D02*
X114380642Y-102284060D01*
X114380642Y-102284060D02*
X114237785Y-102284060D01*
X114237785Y-102284060D02*
X114094928Y-102331679D01*
X114094928Y-102331679D02*
X113999690Y-102426917D01*
X113999690Y-102426917D02*
X113952071Y-102522155D01*
X113952071Y-102522155D02*
X113904452Y-102712631D01*
X113904452Y-102712631D02*
X113904452Y-102855488D01*
X113904452Y-102855488D02*
X113952071Y-103045964D01*
X113952071Y-103045964D02*
X113999690Y-103141202D01*
X113999690Y-103141202D02*
X114094928Y-103236441D01*
X114094928Y-103236441D02*
X114237785Y-103284060D01*
X114237785Y-103284060D02*
X114333023Y-103284060D01*
X114333023Y-103284060D02*
X114475880Y-103236441D01*
X114475880Y-103236441D02*
X114523499Y-103188821D01*
X114523499Y-103188821D02*
X114523499Y-102855488D01*
X114523499Y-102855488D02*
X114333023Y-102855488D01*
X114952071Y-103284060D02*
X114952071Y-102284060D01*
X114952071Y-102284060D02*
X115523499Y-103284060D01*
X115523499Y-103284060D02*
X115523499Y-102284060D01*
X115999690Y-103284060D02*
X115999690Y-102284060D01*
X115999690Y-102284060D02*
X116237785Y-102284060D01*
X116237785Y-102284060D02*
X116380642Y-102331679D01*
X116380642Y-102331679D02*
X116475880Y-102426917D01*
X116475880Y-102426917D02*
X116523499Y-102522155D01*
X116523499Y-102522155D02*
X116571118Y-102712631D01*
X116571118Y-102712631D02*
X116571118Y-102855488D01*
X116571118Y-102855488D02*
X116523499Y-103045964D01*
X116523499Y-103045964D02*
X116475880Y-103141202D01*
X116475880Y-103141202D02*
X116380642Y-103236441D01*
X116380642Y-103236441D02*
X116237785Y-103284060D01*
X116237785Y-103284060D02*
X115999690Y-103284060D01*
X117523499Y-103284060D02*
X116952071Y-103284060D01*
X117237785Y-103284060D02*
X117237785Y-102284060D01*
X117237785Y-102284060D02*
X117142547Y-102426917D01*
X117142547Y-102426917D02*
X117047309Y-102522155D01*
X117047309Y-102522155D02*
X116952071Y-102569774D01*
X152809336Y-85794849D02*
X152809336Y-85175802D01*
X152809336Y-85175802D02*
X153190288Y-85509135D01*
X153190288Y-85509135D02*
X153190288Y-85366278D01*
X153190288Y-85366278D02*
X153237907Y-85271040D01*
X153237907Y-85271040D02*
X153285526Y-85223421D01*
X153285526Y-85223421D02*
X153380764Y-85175802D01*
X153380764Y-85175802D02*
X153618859Y-85175802D01*
X153618859Y-85175802D02*
X153714097Y-85223421D01*
X153714097Y-85223421D02*
X153761717Y-85271040D01*
X153761717Y-85271040D02*
X153809336Y-85366278D01*
X153809336Y-85366278D02*
X153809336Y-85651992D01*
X153809336Y-85651992D02*
X153761717Y-85747230D01*
X153761717Y-85747230D02*
X153714097Y-85794849D01*
X152809336Y-84842468D02*
X152809336Y-84223421D01*
X152809336Y-84223421D02*
X153190288Y-84556754D01*
X153190288Y-84556754D02*
X153190288Y-84413897D01*
X153190288Y-84413897D02*
X153237907Y-84318659D01*
X153237907Y-84318659D02*
X153285526Y-84271040D01*
X153285526Y-84271040D02*
X153380764Y-84223421D01*
X153380764Y-84223421D02*
X153618859Y-84223421D01*
X153618859Y-84223421D02*
X153714097Y-84271040D01*
X153714097Y-84271040D02*
X153761717Y-84318659D01*
X153761717Y-84318659D02*
X153809336Y-84413897D01*
X153809336Y-84413897D02*
X153809336Y-84699611D01*
X153809336Y-84699611D02*
X153761717Y-84794849D01*
X153761717Y-84794849D02*
X153714097Y-84842468D01*
X152809336Y-83604373D02*
X152809336Y-83509135D01*
X152809336Y-83509135D02*
X152856955Y-83413897D01*
X152856955Y-83413897D02*
X152904574Y-83366278D01*
X152904574Y-83366278D02*
X152999812Y-83318659D01*
X152999812Y-83318659D02*
X153190288Y-83271040D01*
X153190288Y-83271040D02*
X153428383Y-83271040D01*
X153428383Y-83271040D02*
X153618859Y-83318659D01*
X153618859Y-83318659D02*
X153714097Y-83366278D01*
X153714097Y-83366278D02*
X153761717Y-83413897D01*
X153761717Y-83413897D02*
X153809336Y-83509135D01*
X153809336Y-83509135D02*
X153809336Y-83604373D01*
X153809336Y-83604373D02*
X153761717Y-83699611D01*
X153761717Y-83699611D02*
X153714097Y-83747230D01*
X153714097Y-83747230D02*
X153618859Y-83794849D01*
X153618859Y-83794849D02*
X153428383Y-83842468D01*
X153428383Y-83842468D02*
X153190288Y-83842468D01*
X153190288Y-83842468D02*
X152999812Y-83794849D01*
X152999812Y-83794849D02*
X152904574Y-83747230D01*
X152904574Y-83747230D02*
X152856955Y-83699611D01*
X152856955Y-83699611D02*
X152809336Y-83604373D01*
X153809336Y-82271040D02*
X153333145Y-82604373D01*
X153809336Y-82842468D02*
X152809336Y-82842468D01*
X152809336Y-82842468D02*
X152809336Y-82461516D01*
X152809336Y-82461516D02*
X152856955Y-82366278D01*
X152856955Y-82366278D02*
X152904574Y-82318659D01*
X152904574Y-82318659D02*
X152999812Y-82271040D01*
X152999812Y-82271040D02*
X153142669Y-82271040D01*
X153142669Y-82271040D02*
X153237907Y-82318659D01*
X153237907Y-82318659D02*
X153285526Y-82366278D01*
X153285526Y-82366278D02*
X153333145Y-82461516D01*
X153333145Y-82461516D02*
X153333145Y-82842468D01*
X151294851Y-84107668D02*
X150818660Y-84441001D01*
X151294851Y-84679096D02*
X150294851Y-84679096D01*
X150294851Y-84679096D02*
X150294851Y-84298144D01*
X150294851Y-84298144D02*
X150342470Y-84202906D01*
X150342470Y-84202906D02*
X150390089Y-84155287D01*
X150390089Y-84155287D02*
X150485327Y-84107668D01*
X150485327Y-84107668D02*
X150628184Y-84107668D01*
X150628184Y-84107668D02*
X150723422Y-84155287D01*
X150723422Y-84155287D02*
X150771041Y-84202906D01*
X150771041Y-84202906D02*
X150818660Y-84298144D01*
X150818660Y-84298144D02*
X150818660Y-84679096D01*
X150628184Y-83250525D02*
X151294851Y-83250525D01*
X150247232Y-83488620D02*
X150961517Y-83726715D01*
X150961517Y-83726715D02*
X150961517Y-83107668D01*
D14*
X116194358Y-117576605D02*
X116194358Y-118290890D01*
X116194358Y-118290890D02*
X116146739Y-118433747D01*
X116146739Y-118433747D02*
X116051501Y-118528986D01*
X116051501Y-118528986D02*
X115908644Y-118576605D01*
X115908644Y-118576605D02*
X115813406Y-118576605D01*
X116575311Y-117576605D02*
X117194358Y-117576605D01*
X117194358Y-117576605D02*
X116861025Y-117957557D01*
X116861025Y-117957557D02*
X117003882Y-117957557D01*
X117003882Y-117957557D02*
X117099120Y-118005176D01*
X117099120Y-118005176D02*
X117146739Y-118052795D01*
X117146739Y-118052795D02*
X117194358Y-118148033D01*
X117194358Y-118148033D02*
X117194358Y-118386128D01*
X117194358Y-118386128D02*
X117146739Y-118481366D01*
X117146739Y-118481366D02*
X117099120Y-118528986D01*
X117099120Y-118528986D02*
X117003882Y-118576605D01*
X117003882Y-118576605D02*
X116718168Y-118576605D01*
X116718168Y-118576605D02*
X116622930Y-118528986D01*
X116622930Y-118528986D02*
X116575311Y-118481366D01*
X113200108Y-113946486D02*
X113200108Y-112946486D01*
X113200108Y-112946486D02*
X113533441Y-113660771D01*
X113533441Y-113660771D02*
X113866774Y-112946486D01*
X113866774Y-112946486D02*
X113866774Y-113946486D01*
X114342965Y-113946486D02*
X114342965Y-113279819D01*
X114342965Y-112946486D02*
X114295346Y-112994105D01*
X114295346Y-112994105D02*
X114342965Y-113041724D01*
X114342965Y-113041724D02*
X114390584Y-112994105D01*
X114390584Y-112994105D02*
X114342965Y-112946486D01*
X114342965Y-112946486D02*
X114342965Y-113041724D01*
X115247726Y-113898867D02*
X115152488Y-113946486D01*
X115152488Y-113946486D02*
X114962012Y-113946486D01*
X114962012Y-113946486D02*
X114866774Y-113898867D01*
X114866774Y-113898867D02*
X114819155Y-113851247D01*
X114819155Y-113851247D02*
X114771536Y-113756009D01*
X114771536Y-113756009D02*
X114771536Y-113470295D01*
X114771536Y-113470295D02*
X114819155Y-113375057D01*
X114819155Y-113375057D02*
X114866774Y-113327438D01*
X114866774Y-113327438D02*
X114962012Y-113279819D01*
X114962012Y-113279819D02*
X115152488Y-113279819D01*
X115152488Y-113279819D02*
X115247726Y-113327438D01*
X115676298Y-113946486D02*
X115676298Y-113279819D01*
X115676298Y-113470295D02*
X115723917Y-113375057D01*
X115723917Y-113375057D02*
X115771536Y-113327438D01*
X115771536Y-113327438D02*
X115866774Y-113279819D01*
X115866774Y-113279819D02*
X115962012Y-113279819D01*
X116438203Y-113946486D02*
X116342965Y-113898867D01*
X116342965Y-113898867D02*
X116295346Y-113851247D01*
X116295346Y-113851247D02*
X116247727Y-113756009D01*
X116247727Y-113756009D02*
X116247727Y-113470295D01*
X116247727Y-113470295D02*
X116295346Y-113375057D01*
X116295346Y-113375057D02*
X116342965Y-113327438D01*
X116342965Y-113327438D02*
X116438203Y-113279819D01*
X116438203Y-113279819D02*
X116581060Y-113279819D01*
X116581060Y-113279819D02*
X116676298Y-113327438D01*
X116676298Y-113327438D02*
X116723917Y-113375057D01*
X116723917Y-113375057D02*
X116771536Y-113470295D01*
X116771536Y-113470295D02*
X116771536Y-113756009D01*
X116771536Y-113756009D02*
X116723917Y-113851247D01*
X116723917Y-113851247D02*
X116676298Y-113898867D01*
X116676298Y-113898867D02*
X116581060Y-113946486D01*
X116581060Y-113946486D02*
X116438203Y-113946486D01*
X113207947Y-114427132D02*
X113207947Y-115236655D01*
X113207947Y-115236655D02*
X113255566Y-115331893D01*
X113255566Y-115331893D02*
X113303185Y-115379513D01*
X113303185Y-115379513D02*
X113398423Y-115427132D01*
X113398423Y-115427132D02*
X113588899Y-115427132D01*
X113588899Y-115427132D02*
X113684137Y-115379513D01*
X113684137Y-115379513D02*
X113731756Y-115331893D01*
X113731756Y-115331893D02*
X113779375Y-115236655D01*
X113779375Y-115236655D02*
X113779375Y-114427132D01*
X114207947Y-115379513D02*
X114350804Y-115427132D01*
X114350804Y-115427132D02*
X114588899Y-115427132D01*
X114588899Y-115427132D02*
X114684137Y-115379513D01*
X114684137Y-115379513D02*
X114731756Y-115331893D01*
X114731756Y-115331893D02*
X114779375Y-115236655D01*
X114779375Y-115236655D02*
X114779375Y-115141417D01*
X114779375Y-115141417D02*
X114731756Y-115046179D01*
X114731756Y-115046179D02*
X114684137Y-114998560D01*
X114684137Y-114998560D02*
X114588899Y-114950941D01*
X114588899Y-114950941D02*
X114398423Y-114903322D01*
X114398423Y-114903322D02*
X114303185Y-114855703D01*
X114303185Y-114855703D02*
X114255566Y-114808084D01*
X114255566Y-114808084D02*
X114207947Y-114712846D01*
X114207947Y-114712846D02*
X114207947Y-114617608D01*
X114207947Y-114617608D02*
X114255566Y-114522370D01*
X114255566Y-114522370D02*
X114303185Y-114474751D01*
X114303185Y-114474751D02*
X114398423Y-114427132D01*
X114398423Y-114427132D02*
X114636518Y-114427132D01*
X114636518Y-114427132D02*
X114779375Y-114474751D01*
X115541280Y-114903322D02*
X115684137Y-114950941D01*
X115684137Y-114950941D02*
X115731756Y-114998560D01*
X115731756Y-114998560D02*
X115779375Y-115093798D01*
X115779375Y-115093798D02*
X115779375Y-115236655D01*
X115779375Y-115236655D02*
X115731756Y-115331893D01*
X115731756Y-115331893D02*
X115684137Y-115379513D01*
X115684137Y-115379513D02*
X115588899Y-115427132D01*
X115588899Y-115427132D02*
X115207947Y-115427132D01*
X115207947Y-115427132D02*
X115207947Y-114427132D01*
X115207947Y-114427132D02*
X115541280Y-114427132D01*
X115541280Y-114427132D02*
X115636518Y-114474751D01*
X115636518Y-114474751D02*
X115684137Y-114522370D01*
X115684137Y-114522370D02*
X115731756Y-114617608D01*
X115731756Y-114617608D02*
X115731756Y-114712846D01*
X115731756Y-114712846D02*
X115684137Y-114808084D01*
X115684137Y-114808084D02*
X115636518Y-114855703D01*
X115636518Y-114855703D02*
X115541280Y-114903322D01*
X115541280Y-114903322D02*
X115207947Y-114903322D01*
X116207947Y-115046179D02*
X116969852Y-115046179D01*
X117779375Y-114903322D02*
X117922232Y-114950941D01*
X117922232Y-114950941D02*
X117969851Y-114998560D01*
X117969851Y-114998560D02*
X118017470Y-115093798D01*
X118017470Y-115093798D02*
X118017470Y-115236655D01*
X118017470Y-115236655D02*
X117969851Y-115331893D01*
X117969851Y-115331893D02*
X117922232Y-115379513D01*
X117922232Y-115379513D02*
X117826994Y-115427132D01*
X117826994Y-115427132D02*
X117446042Y-115427132D01*
X117446042Y-115427132D02*
X117446042Y-114427132D01*
X117446042Y-114427132D02*
X117779375Y-114427132D01*
X117779375Y-114427132D02*
X117874613Y-114474751D01*
X117874613Y-114474751D02*
X117922232Y-114522370D01*
X117922232Y-114522370D02*
X117969851Y-114617608D01*
X117969851Y-114617608D02*
X117969851Y-114712846D01*
X117969851Y-114712846D02*
X117922232Y-114808084D01*
X117922232Y-114808084D02*
X117874613Y-114855703D01*
X117874613Y-114855703D02*
X117779375Y-114903322D01*
X117779375Y-114903322D02*
X117446042Y-114903322D01*
D16*
%TO.C,U2*%
X156711400Y-79950000D02*
X156711400Y-87690000D01*
X156711400Y-87690000D02*
X162011400Y-87690000D01*
X158361400Y-79950000D02*
X156711400Y-79950000D01*
X162011400Y-79950000D02*
X160361400Y-79950000D01*
X162011400Y-87690000D02*
X162011400Y-79950000D01*
X158361400Y-79950000D02*
G75*
G03*
X160361400Y-79950000I1000000J0D01*
G01*
%TO.C,Sys2_Conn1*%
X171390000Y-83760000D02*
X172720000Y-83760000D01*
X171390000Y-85090000D02*
X171390000Y-83760000D01*
X171390000Y-86360000D02*
X171390000Y-91500000D01*
X171390000Y-86360000D02*
X174050000Y-86360000D01*
X171390000Y-91500000D02*
X174050000Y-91500000D01*
X174050000Y-86360000D02*
X174050000Y-91500000D01*
%TO.C,Sys1_Conn1*%
X113155068Y-79950000D02*
X114485068Y-79950000D01*
X113155068Y-81280000D02*
X113155068Y-79950000D01*
X113155068Y-82550000D02*
X113155068Y-90230000D01*
X113155068Y-82550000D02*
X115815068Y-82550000D01*
X113155068Y-90230000D02*
X115815068Y-90230000D01*
X115815068Y-82550000D02*
X115815068Y-90230000D01*
D14*
%TO.C,U5*%
X174105757Y-105231309D02*
X141085757Y-105231309D01*
X141085757Y-105231309D02*
X141085757Y-120471309D01*
X141085757Y-120471309D02*
X174105757Y-120471309D01*
X174105757Y-120471309D02*
X174105757Y-105231309D01*
D16*
%TO.C,R2*%
X146176246Y-88039071D02*
X146176246Y-87269071D01*
X144806246Y-87269071D02*
X147546246Y-87269071D01*
X147546246Y-87269071D02*
X147546246Y-80729071D01*
X144806246Y-80729071D02*
X144806246Y-87269071D01*
X147546246Y-80729071D02*
X144806246Y-80729071D01*
X146176246Y-79959071D02*
X146176246Y-80729071D01*
%TO.C,U3*%
X135780000Y-79950000D02*
X135780000Y-87690000D01*
X135780000Y-87690000D02*
X141080000Y-87690000D01*
X137430000Y-79950000D02*
X135780000Y-79950000D01*
X141080000Y-79950000D02*
X139430000Y-79950000D01*
X141080000Y-87690000D02*
X141080000Y-79950000D01*
X137430000Y-79950000D02*
G75*
G03*
X139430000Y-79950000I1000000J0D01*
G01*
%TO.C,R3*%
X167640000Y-90400000D02*
X167640000Y-89630000D01*
X166270000Y-89630000D02*
X169010000Y-89630000D01*
X169010000Y-89630000D02*
X169010000Y-83090000D01*
X166270000Y-83090000D02*
X166270000Y-89630000D01*
X169010000Y-83090000D02*
X166270000Y-83090000D01*
X167640000Y-82320000D02*
X167640000Y-83090000D01*
%TO.C,Strobe1*%
X110310000Y-98880000D02*
X113210000Y-98880000D01*
X110310000Y-101780000D02*
X110310000Y-98880000D01*
X113210000Y-98880000D02*
X113210000Y-101780000D01*
X113210000Y-101780000D02*
X110310000Y-101780000D01*
%TO.C,Shutter1*%
X110310000Y-93244197D02*
X113210000Y-93244197D01*
X110310000Y-96144197D02*
X110310000Y-93244197D01*
X113210000Y-93244197D02*
X113210000Y-96144197D01*
X113210000Y-96144197D02*
X110310000Y-96144197D01*
%TO.C,U4*%
X120590000Y-90050000D02*
X120590000Y-108070000D01*
X120590000Y-108070000D02*
X130870000Y-108070000D01*
X123080000Y-90110000D02*
X123080000Y-108010000D01*
X123080000Y-108010000D02*
X128380000Y-108010000D01*
X124730000Y-90110000D02*
X123080000Y-90110000D01*
X128380000Y-90110000D02*
X126730000Y-90110000D01*
X128380000Y-108010000D02*
X128380000Y-90110000D01*
X130870000Y-90050000D02*
X120590000Y-90050000D01*
X130870000Y-108070000D02*
X130870000Y-90050000D01*
X124730000Y-90110000D02*
G75*
G03*
X126730000Y-90110000I1000000J0D01*
G01*
%TO.C,R1*%
X129770000Y-81280000D02*
X129000000Y-81280000D01*
X129000000Y-82650000D02*
X129000000Y-79910000D01*
X129000000Y-79910000D02*
X122460000Y-79910000D01*
X122460000Y-82650000D02*
X129000000Y-82650000D01*
X122460000Y-79910000D02*
X122460000Y-82650000D01*
X121690000Y-81280000D02*
X122460000Y-81280000D01*
%TO.C,Sys1_GND1*%
X110310000Y-103960000D02*
X113210000Y-103960000D01*
X110310000Y-106860000D02*
X110310000Y-103960000D01*
X113210000Y-103960000D02*
X113210000Y-106860000D01*
X113210000Y-106860000D02*
X110310000Y-106860000D01*
%TO.C,R4*%
X150840032Y-79901002D02*
X150840032Y-80671002D01*
X152210032Y-80671002D02*
X149470032Y-80671002D01*
X149470032Y-80671002D02*
X149470032Y-87211002D01*
X152210032Y-87211002D02*
X152210032Y-80671002D01*
X149470032Y-87211002D02*
X152210032Y-87211002D01*
X150840032Y-87981002D02*
X150840032Y-87211002D01*
D14*
%TO.C,J3*%
X107950000Y-109070000D02*
X120950000Y-109070000D01*
X120950000Y-109070000D02*
X120950000Y-121570000D01*
X120950000Y-121570000D02*
X107950000Y-121570000D01*
X107950000Y-121570000D02*
X107950000Y-109070000D01*
X107950000Y-112780000D02*
X112080000Y-112780000D01*
X112080000Y-112780000D02*
X112080000Y-117860000D01*
X112080000Y-117860000D02*
X107950000Y-117860000D01*
X107950000Y-117860000D02*
X107950000Y-112780000D01*
%TD*%
M02*
